<?xml version="1.0" encoding="utf-8"?>
<!-- Generator: Adobe Illustrator 15.0.2, SVG Export Plug-In . SVG Version: 6.00 Build 0)  -->
<!DOCTYPE svg PUBLIC "-//W3C//DTD SVG 1.1//EN" "http://www.w3.org/Graphics/SVG/1.1/DTD/svg11.dtd">
<svg version="1.1" xmlns="http://www.w3.org/2000/svg" xmlns:xlink="http://www.w3.org/1999/xlink" x="0px" y="0px" width="64px"
	 height="64px" viewBox="0 0 64 64" enable-background="new 0 0 64 64" xml:space="preserve">
<g id="Vrstva_3">
	<polygon id="bg" fill="#FFFFFF" points="55.915,22.488 33.915,10.488 32,9.444 30.084,10.488 8.084,22.488 1.646,26 8.084,29.512 
		14,32.738 14,34.359 14,42.359 14,44.733 16.084,45.87 30.084,53.511 32,54.557 33.916,53.511 47.679,46 50,46 54,46 58,46 58,42 
		58,26 58,23.625 	"/>
</g>
<g id="Vrstva_3_kopie">
	<g>
		<path fill="#755741" d="M18,34.359v8L32,50l14-7.641v-8L32,42L18,34.359z M32,14L10,26l22,12l18-9.82V42h4V26L32,14z"/>
	</g>
</g>
</svg>
