<?xml version="1.0" encoding="utf-8"?>
<!-- Generator: Adobe Illustrator 15.0.2, SVG Export Plug-In . SVG Version: 6.00 Build 0)  -->
<!DOCTYPE svg PUBLIC "-//W3C//DTD SVG 1.1//EN" "http://www.w3.org/Graphics/SVG/1.1/DTD/svg11.dtd">
<svg version="1.1" xmlns="http://www.w3.org/2000/svg" xmlns:xlink="http://www.w3.org/1999/xlink" x="0px" y="0px" width="64px"
	 height="64px" viewBox="0 0 64 64" enable-background="new 0 0 64 64" xml:space="preserve">
<g id="Vrstva_3">
	<path id="bg" fill="#FFFFFF" d="M47.625,17.456l-14-6.223L32,10.511l-1.625,0.722l-14,6.223L14,18.512v2.6v9.333
		c0,10.483,7.331,20.179,17.051,22.553L32,53.229l0.949-0.231C42.67,50.624,50,40.928,50,30.444v-9.333v-2.6L47.625,17.456z"/>
</g>
<g id="Vrstva_3_kopie">
	<g>
		<path fill="#8763BA" d="M32,14.889l-14,6.223v9.333c0,8.634,5.974,16.707,14,18.667c8.027-1.96,14-10.033,14-18.667v-9.333
			L32,14.889z M22.163,36.176c-0.671-1.809-1.052-3.746-1.052-5.731v-7.312L32,18.294l7.835,3.481L22.163,36.176z M42.889,30.444
			c0,7.027-4.631,13.521-10.889,15.441c-2.535-0.778-4.794-2.314-6.596-4.325l17.485-14.247V30.444z"/>
	</g>
</g>
</svg>
