<?xml version="1.0" encoding="UTF-8" standalone="no"?>
<!-- Generator: Adobe Illustrator 14.0.0, SVG Export Plug-In . SVG Version: 6.00 Build 43363)  -->

<svg
   version="1.1"
   id="Layer_2"
   x="0px"
   y="0px"
   width="400px"
   height="400px"
   viewBox="0 0 400 400"
   enable-background="new 0 0 400 400"
   xml:space="preserve"
   sodipodi:docname="db_poi_climbing.svg"
   inkscape:version="1.1 (c68e22c387, 2021-05-23)"
   xmlns:inkscape="http://www.inkscape.org/namespaces/inkscape"
   xmlns:sodipodi="http://sodipodi.sourceforge.net/DTD/sodipodi-0.dtd"
   xmlns="http://www.w3.org/2000/svg"
   xmlns:svg="http://www.w3.org/2000/svg"><defs
   id="defs17" /><sodipodi:namedview
   id="namedview15"
   pagecolor="#ffffff"
   bordercolor="#111111"
   borderopacity="1"
   inkscape:pageshadow="0"
   inkscape:pageopacity="0"
   inkscape:pagecheckerboard="1"
   showgrid="false"
   inkscape:zoom="2.06"
   inkscape:cx="182.28155"
   inkscape:cy="200.24272"
   inkscape:window-width="1536"
   inkscape:window-height="793"
   inkscape:window-x="-8"
   inkscape:window-y="-8"
   inkscape:window-maximized="1"
   inkscape:current-layer="g12" />
<g
   id="g12">
	<circle
   cx="190.403"
   cy="92.55"
   r="23.05"
   id="circle2"
   style="fill:#4f4f4f;fill-opacity:1" />
	<path
   d="m 152.78124,147.631 -31.687,-38.824 c -3.497,-4.285 -10.495,-4.362 -15.628,-0.171 l -1.644,1.34 c -5.135001,4.191 -6.461001,11.062 -2.965,15.346 0,0 37.64,46.27 38.512,46.778 4.412,4.632 8.461,6.728 13.859,4.187 l 37.122,-17.471 V 186 h 60.72 v -38.684 l 54.157,-72.381 c 6.249,-8.351 7.012,-18.34 1.707,-22.308 l -1.697,-1.271 c -5.308,-3.972 -14.674,-0.419 -20.923,7.934 l -48.777,65.191 h -34.097 z"
   id="path4"
   style="fill:#4f4f4f;fill-opacity:1" />
	
	
	<path
   d="m 188.38224,219.764 -13.847,50.956 -37.229,48.658 c -3.85,5.028 -1.843,13.032 4.483,17.874 l 2.023,1.549 c 6.326,4.84 14.574,4.687 18.425,-0.347 l 38.7,-50.578 c 0.778,-1.021 1.307,-2.164 1.619,-3.376 0.717,-0.833 1.25,-1.784 1.539,-2.848 l 7.946,-29.245 c 3.058,0.421 6.563,0.692 10.292,0.765 l 3.824,0.073 c 11.378,0.218 23.562,-4.499 24.396,-5.07 l 22.519,-15.411 6.271,41.158 c 0.878,5.766 7.974,9.467 15.849,8.268 l 2.52,-0.383 c 7.874,-1.199 13.548,-6.846 12.668,-12.613 l -8.83,-57.963 c -0.224,-1.468 -3.202,-9.404 -4.989,-12.018 l -1.439,-2.103 c -4.498,-6.573 -11.845,-9.371 -16.41,-6.246 l -27.638,18.915 c 0,-4.093 -0.0156,-58.97931 -0.004,-23.779 -20.23867,3.83333 -62.18724,-110.624042 -60.716,11.5 z"
   id="path10"
   sodipodi:nodetypes="cccccccccccccccccccccccccc"
   style="fill:#4f4f4f;fill-opacity:1" />
<path
   style="fill:#4f4f4f;fill-opacity:1;stroke:#1c74d2;stroke-width:0.689316;stroke-linejoin:round;stroke-miterlimit:30"
   d="m 246.1165,184.61023 c -3.18111,-1.55616 -10.06865,-8.70614 -17.20699,-17.86266 -12.89846,-16.54516 -16.81259,-20.92257 -21.33914,-23.86488 -2.44212,-1.58741 -3.2618,-1.86327 -5.53633,-1.86327 -2.47707,0 -2.80131,0.13824 -4.49151,1.915 -2.82121,2.96572 -4.62898,8.56291 -5.97969,18.51425 l -0.68628,5.05618 -0.0499,-4.05679 c -0.0373,-3.03414 -0.20289,-3.99655 -0.65673,-3.81781 -0.33373,0.13144 -9.25957,4.30529 -19.83519,9.27524 -16.76918,7.88056 -19.53196,9.03594 -21.60194,9.03377 -4.75448,-0.005 -6.7887,-1.93959 -23.67954,-22.52004 -24.40319,-29.73377 -25.04056,-30.54486 -25.597797,-32.57456 -1.414411,-5.15188 2.449247,-11.31754 9.282427,-14.81299 3.92698,-2.00881 8.93375,-1.32675 11.67195,1.59002 0.56128,0.59788 8.02025,9.66108 16.57551,20.14045 8.55525,10.47936 15.67633,19.05339 15.82462,19.05339 0.14829,0 11.28929,-5.24271 24.75778,-11.65048 l 24.48817,-11.65049 h 16.91777 16.91776 l 25.15786,-33.616502 c 14.6465,-19.57098 26.16319,-34.506827 27.56401,-35.747399 5.43704,-4.815104 11.62896,-6.280652 15.91741,-3.767452 6.34285,3.717156 7.38799,10.568041 2.94943,19.333361 -0.63221,1.248482 -13.60542,18.905819 -28.82936,39.238532 l -27.6799,36.96856 v 19.37797 19.37798 l -1.33495,-3.8e-4 c -0.73422,-2.1e-4 -2.31796,-0.48126 -3.51942,-1.069 z"
   id="path1138" /></g>
</svg>
