<?xml version="1.0" encoding="utf-8"?>
<!-- Generator: Adobe Illustrator 15.0.2, SVG Export Plug-In . SVG Version: 6.00 Build 0)  -->
<!DOCTYPE svg PUBLIC "-//W3C//DTD SVG 1.1//EN" "http://www.w3.org/Graphics/SVG/1.1/DTD/svg11.dtd">
<svg version="1.1" xmlns="http://www.w3.org/2000/svg" xmlns:xlink="http://www.w3.org/1999/xlink" x="0px" y="0px" width="64px"
	 height="64px" viewBox="0 0 64 64" enable-background="new 0 0 64 64" xml:space="preserve">
<g id="Vrstva_3">
	<polygon fill="#FFFFFF" points="51.123,16.501 47.123,11.501 45.923,10 44,10 38,10 38,8 34,8 30,8 26,8 26,10 20,10 16,10 16,14 
		16,24 16,26.597 12.876,30.501 10.877,33 12.876,35.499 16.876,40.499 18.078,42 20,42 26,42 26,52 26,56 30,56 34,56 38,56 38,52 
		38,42 44,42 48,42 48,38 48,28 48,25.403 51.123,21.499 53.122,19 	"/>
</g>
<g id="Vrstva_3_kopie">
	<g>
		<polygon fill="#755741" points="44,24 48,19 44,14 34,14 34,12 30,12 30,14 20,14 20,24 30,24 30,28 20,28 16,33 20,38 30,38 
			30,52 34,52 34,38 44,38 44,28 34,28 34,24 		"/>
	</g>
</g>
</svg>
