<?xml version="1.0" encoding="utf-8"?>
<!-- Generator: Adobe Illustrator 27.0.0, SVG Export Plug-In . SVG Version: 6.00 Build 0)  -->
<svg version="1.1" id="Vrstva_1" xmlns="http://www.w3.org/2000/svg" xmlns:xlink="http://www.w3.org/1999/xlink" x="0px" y="0px"
	 viewBox="0 0 64 64" style="enable-background:new 0 0 64 64;" xml:space="preserve">
<style type="text/css">
	.st0{fill:#AF5724;}
</style>
<path id="Vrstva_3_kopie" class="st0" d="M40,22l2,18.2c0.1,1,1,1.8,2,1.8h10c1,0,1.9-0.8,2-1.8L58,22H40z M55.3,28H42.7l-0.4-4
	h13.5L55.3,28z M36,38h-9.7c1.1-0.6,2.1-1.3,2.8-2H34C34,37.1,34.9,38,36,38s2-0.9,2-2s-0.9-2-2-2c1.1,0,2-0.9,2-2s-0.9-2-2-2
	s-2,0.9-2,2h-4.9c-2.1-2.3-7.4-4-10.3-4C15,28,12,30.7,12,34c0,1.5,0.7,2.9,1.7,4H10l4,4h22l4-4H36z"/>
</svg>
