<?xml version="1.0" encoding="utf-8"?>
<!-- Generator: Adobe Illustrator 26.5.0, SVG Export Plug-In . SVG Version: 6.00 Build 0)  -->
<svg version="1.1" id="Layer_1" xmlns="http://www.w3.org/2000/svg" xmlns:xlink="http://www.w3.org/1999/xlink" x="0px" y="0px"
	 viewBox="0 0 48 48" style="enable-background:new 0 0 48 48;" xml:space="preserve">
<style type="text/css">
	.st0{fill:#755741;}
</style>
<path class="st0" d="M41.5,27c0,0.9-0.7,1.6-1.6,1.6h-3.2v4.8c0,0.9-0.7,1.6-1.6,1.6s-1.6-0.7-1.6-1.6v-4.8h-19v4.8
	c0,0.9-0.7,1.6-1.6,1.6s-1.6-0.7-1.6-1.6v-4.8H8.1c-0.9,0-1.6-0.7-1.6-1.6c0-0.9,0.7-1.6,1.6-1.6h31.8C40.8,25.4,41.5,26.1,41.5,27z
	 M11,22.6h26c0.9,0,1.6-0.7,1.6-1.6v-6.4c0-0.9-0.7-1.6-1.6-1.6H11c-0.9,0-1.6,0.7-1.6,1.6V21C9.4,21.9,10.1,22.6,11,22.6z"/>
</svg>
