<?xml version="1.0" encoding="utf-8"?>
<!-- Generator: Adobe Illustrator 15.0.2, SVG Export Plug-In . SVG Version: 6.00 Build 0)  -->
<!DOCTYPE svg PUBLIC "-//W3C//DTD SVG 1.1//EN" "http://www.w3.org/Graphics/SVG/1.1/DTD/svg11.dtd">
<svg version="1.1" id="Vrstva_3_kopie" xmlns="http://www.w3.org/2000/svg" xmlns:xlink="http://www.w3.org/1999/xlink" x="0px"
	 y="0px" width="64px" height="64px" viewBox="0 0 64 64" enable-background="new 0 0 64 64" xml:space="preserve">
<path id="bg" fill="#FFFFFF" d="M32,11c-1.471,0-2.887,0.539-3.987,1.516l-17.999,16c-1.198,1.065-1.91,2.532-2.004,4.132
	c-0.094,1.601,0.441,3.142,1.506,4.339c1.135,1.278,2.771,2.013,4.484,2.013V49v4h4h28h4v-4V39c1.716-0.003,3.348-0.736,4.483-2.013
	c2.199-2.475,1.976-6.274-0.497-8.472l-18.001-16C34.887,11.538,33.471,11,32,11L32,11z"/>
<g>
	<g>
		<path fill="#AF5724" d="M28.952,49h4.352v-6.696l-2.343-2.231L28.952,49z M51.329,31.505l-18.001-16
			c-0.758-0.674-1.899-0.674-2.657,0l-18,16c-0.826,0.734-0.9,1.998-0.166,2.823c0.733,0.825,1.997,0.9,2.823,0.166L18,32.119V49
			h8.608c0,0,3.627-17.619,3.871-18.804c0.558-0.566,1.709-0.446,1.709-0.446c1.115-0.008,1.45,0.725,1.896,1.395l1.116,1.786
			c0.893,1.563,2.678,2.678,4.799,2.678v2.231c-2.455,0-4.687-1.115-6.138-2.79l-0.67,3.349l2.344,2.231V49H46V32.12l2.671,2.374
			C49.053,34.833,49.526,35,49.999,35c0.552-0.001,1.101-0.228,1.496-0.672C52.229,33.503,52.154,32.238,51.329,31.505z
			 M29.887,29.896l-1.209,5.886c-0.172,0.833-1.047,1.389-1.957,1.239c-0.909-0.148-1.506-0.944-1.334-1.777l1.209-5.886
			c0.172-0.833,1.048-1.39,1.957-1.241C29.462,28.266,30.059,29.063,29.887,29.896z M33.862,29.463
			c-1.228,0-2.232-1.004-2.232-2.231c0-1.228,1.004-2.232,2.232-2.232s2.231,1.004,2.231,2.232
			C36.094,28.459,35.09,29.463,33.862,29.463z"/>
	</g>
</g>
</svg>
