<?xml version="1.0" encoding="utf-8"?>
<!-- Generator: Adobe Illustrator 15.0.2, SVG Export Plug-In . SVG Version: 6.00 Build 0)  -->
<!DOCTYPE svg PUBLIC "-//W3C//DTD SVG 1.1//EN" "http://www.w3.org/Graphics/SVG/1.1/DTD/svg11.dtd">
<svg version="1.1" id="Vrstva_3_kopie" xmlns="http://www.w3.org/2000/svg" xmlns:xlink="http://www.w3.org/1999/xlink" x="0px"
	 y="0px" width="64px" height="64px" viewBox="0 0 64 64" enable-background="new 0 0 64 64" xml:space="preserve">
<polygon id="bg" fill="#FFFFFF" points="25.761,18.827 19.837,22.635 8.381,30 15.718,30 14.675,30.745 4.516,38.002 14.854,38 
	11.397,40.963 3.187,48 8,48 8,52 8,56 8,60 12,60 52,60 56,60 56,56 56,52 56,48 60.813,48 52.604,40.963 49.146,38 59.484,38.002 
	49.325,30.745 48.282,30 55.619,30 44.163,22.635 38.238,18.827 31.917,2 "/>
<g>
	<path fill="#654B38" d="M48,48h-2v-4h4l-7-6v-4h4l-7-5v-3h2l-7-4.5L32,14l-3,7.5L22,26h2v3l-7,5h4v4l-7,6h4v4h-2v4h-4v4h40v-4h-4
		V48z M26,48h-4v-4h4V48z M34,48h-4v-4h4V48z M42,48h-4v-4h4V48z"/>
</g>
</svg>
