<svg xmlns="http://www.w3.org/2000/svg" xmlns:xlink="http://www.w3.org/1999/xlink" x="0px" y="0px" width="32px" height="42px">
  <polygon fill="#755741" points="8,42 16,0 24,42 "/>
  <path fill="#755741" d="M16.77,4.039l-0.384-2.02C16.255,2.017,16.13,2,16,2s-0.255,0.017-0.385,0.02L15.23,4.04
	C15.487,4.025,15.74,4,16,4S16.514,4.025,16.77,4.039z M20.582,2.674l0.432,2.271C26.262,6.967,30,12.049,30,18
	c0,4.07-1.757,7.729-4.539,10.29l0.432,2.271C29.607,27.63,32,23.1,32,18C32,10.757,27.184,4.645,20.582,2.674z M10.986,4.944
	l0.433-2.27C4.816,4.645,0,10.757,0,18c0,5.1,2.393,9.63,6.107,12.561l0.432-2.271C3.757,25.729,2,22.071,2,18
	C2,12.048,5.739,6.966,10.986,4.944z M16,32c-2.089,0-4.066-0.473-5.848-1.297l-0.388,2.035C11.681,33.551,13.788,34,16,34
	s4.318-0.449,6.236-1.261l-0.389-2.036C20.064,31.527,18.089,32,16,32z"/>
</svg>