<?xml version="1.0" encoding="utf-8"?>
<!-- Generator: Adobe Illustrator 15.0.2, SVG Export Plug-In . SVG Version: 6.00 Build 0)  -->
<!DOCTYPE svg PUBLIC "-//W3C//DTD SVG 1.1//EN" "http://www.w3.org/Graphics/SVG/1.1/DTD/svg11.dtd">
<svg version="1.1" id="Vrstva_3_kopie" xmlns="http://www.w3.org/2000/svg" xmlns:xlink="http://www.w3.org/1999/xlink" x="0px"
	 y="0px" width="64px" height="64px" viewBox="0 0 64 64" enable-background="new 0 0 64 64" xml:space="preserve">
<path id="bg_1_" fill="#FFFFFF" d="M54,33h-2.401C49.739,23.882,41.658,17,32,17s-17.74,6.882-19.598,16H10H6v4v6v4h4h12h4v-4v-6
	c0-1.599,0.625-3.104,1.76-4.239C28.896,31.625,30.401,31,32,31c3.309,0,6,2.691,6,6v6v4h4h12h4v-4v-6v-4H54z"/>
<g>
	<path fill="#755741" d="M48,37c0-8.836-7.163-16-16-16c-8.836,0-16,7.164-16,16h-6v6h12v-6h0c0-5.514,4.486-10,10-10
		c5.514,0,10,4.486,10,10v6h12v-6H48z"/>
</g>
</svg>
