<?xml version="1.0" encoding="utf-8"?>
<!-- Generator: Adobe Illustrator 15.0.2, SVG Export Plug-In . SVG Version: 6.00 Build 0)  -->
<!DOCTYPE svg PUBLIC "-//W3C//DTD SVG 1.1//EN" "http://www.w3.org/Graphics/SVG/1.1/DTD/svg11.dtd">
<svg version="1.1" xmlns="http://www.w3.org/2000/svg" xmlns:xlink="http://www.w3.org/1999/xlink" x="0px" y="0px" width="64px"
	 height="64px" viewBox="0 0 64 64" enable-background="new 0 0 64 64" xml:space="preserve">
<g id="Vrstva_3">
	<path fill="#FFFFFF" d="M55.991,37.667C55.723,32.045,48.661,28,39.001,28c-1.356,0-2.701,0.087-4.002,0.256l0.97-7.76L36.531,16
		h-2.82l0.255-2.355l0.43-3.977l-3.977-0.43l-3.977-0.43l-3.977-0.43l-0.43,3.977L21.641,16H12H7.469l0.562,4.496l4,32L12.469,56H16
		h12h3.531l0.112-0.895C33.886,55.688,36.392,56,38.999,56c9.661,0,16.724-4.045,16.992-9.667C57.229,45.24,58,43.701,58,42
		S57.229,38.76,55.991,37.667z"/>
</g>
<g id="Vrstva_3_kopie">
	<g>
		<path fill="#AF5724" d="M39.001,32C31.82,32,26,34.687,26,38h25.999C51.999,34.687,46.179,32,39.001,32z"/>
	</g>
	<g>
		<path fill="#AF5724" d="M38.999,52c7.18,0,13-2.687,13-6H26C26,49.313,31.821,52,38.999,52z"/>
	</g>
	<g>
		<path fill="#AF5724" d="M54,42c0,1.105-1.121,2-2.503,2H26.5c-1.38,0-2.5-0.895-2.5-2l0,0c0-1.105,1.12-2,2.5-2h24.997
			C52.879,40,54,40.895,54,42L54,42z"/>
	</g>
	<g>
		<polygon fill="#AF5724" points="29.255,20 29.989,13.215 26.012,12.785 25.232,20 12,20 16,52 28,52 32,20 		"/>
		<path fill="none" d="M26.012,12.785l3.977,0.43L29.255,20H32l-4,32H16l-4-32h13.232L26.012,12.785 M25.125,11.684l-0.107,0.994
			L24.334,19H12h-1.133l0.141,1.124l4,32L15.117,53H16h12h0.883l0.109-0.876l4-32L33.133,19H32h-1.631l0.614-5.678l0.107-0.994
			l-0.994-0.107l-3.977-0.43L25.125,11.684L25.125,11.684z"/>
	</g>
</g>
</svg>
