<?xml version="1.0" encoding="utf-8"?>
<!-- Generator: Adobe Illustrator 15.0.2, SVG Export Plug-In . SVG Version: 6.00 Build 0)  -->
<!DOCTYPE svg PUBLIC "-//W3C//DTD SVG 1.1//EN" "http://www.w3.org/Graphics/SVG/1.1/DTD/svg11.dtd">
<svg version="1.1" xmlns="http://www.w3.org/2000/svg" xmlns:xlink="http://www.w3.org/1999/xlink" x="0px" y="0px" width="64px"
	 height="64px" viewBox="0 0 64 64" enable-background="new 0 0 64 64" xml:space="preserve">
<g id="Vrstva_3">
	<path id="bg" fill="#FFFFFF" d="M52.697,22.46l-2.809-2.849l-7.44-7.439L39.62,9.343l-2.74,2.74C35.458,10.79,33.569,10,31.5,10
		h-12c-4.411,0-8,3.589-8,8v32v4h4h20h4v-0.938c1.206,0.601,2.564,0.938,4,0.938c4.963,0,9-4.037,9-9V26
		c0-0.98-0.163-1.951-0.473-2.871L52.697,22.46z"/>
</g>
<g id="Vrstva_3_kopie">
	<g>
		<path fill="#488BC2" d="M47.04,22.46l0.021-0.021L39.62,15l-2.12,2.12l4.221,4.22C39.84,22.061,38.5,23.859,38.5,26
			c0,2.76,2.24,5,5,5c0.721,0,1.38-0.16,2-0.42V45c0,1.1-0.9,2-2,2s-2-0.9-2-2v-9c0-2.2-1.8-4-4-4h-2V18c0-2.2-1.8-4-4-4h-12
			c-2.2,0-4,1.8-4,4v32h20V35h3v10c0,2.76,2.24,5,5,5s5-2.24,5-5V26C48.5,24.62,47.939,23.359,47.04,22.46z M31.5,28h-12V18h12V28z
			 M43.5,28c-1.1,0-2-0.9-2-2s0.9-2,2-2s2,0.9,2,2S44.6,28,43.5,28z"/>
	</g>
</g>
</svg>
