<?xml version="1.0" encoding="utf-8"?>
<!-- Generator: Adobe Illustrator 26.5.0, SVG Export Plug-In . SVG Version: 6.00 Build 0)  -->
<svg version="1.1"
	 id="Layer_1" xmlns:svg="http://www.w3.org/2000/svg" xmlns:rdf="http://www.w3.org/1999/02/22-rdf-syntax-ns#" xmlns:cc="http://creativecommons.org/ns#" xmlns:dc="http://purl.org/dc/elements/1.1/"
	 xmlns="http://www.w3.org/2000/svg" xmlns:xlink="http://www.w3.org/1999/xlink" x="0px" y="0px" viewBox="0 0 48 48"
	 style="enable-background:new 0 0 48 48;" xml:space="preserve">
<style type="text/css">
	.st0{fill:#FFFFFF;}
	.st1{fill:#654B38;}
</style>
<path class="st0" d="M22.5,45.5c-2.2,0-4-1.8-4-4V23.9h-5.8c-2.2,0-4-1.8-4-4v-3c0-2.2,1.8-4,4-4h5.8V6.5c0-2.2,1.8-4,4-4h3
	c2.2,0,4,1.8,4,4v6.4h5.8c2.2,0,4,1.8,4,4v3c0,2.2-1.8,4-4,4h-5.8v17.6c0,2.2-1.8,4-4,4H22.5z"/>
<path class="st1" d="M22.5,41.5h3V19.9h9.8v-3h-9.8V6.5h-3v10.4h-9.8v3h9.8V41.5z"/>
</svg>
