<?xml version="1.0" encoding="utf-8"?>
<!-- Generator: Adobe Illustrator 26.5.0, SVG Export Plug-In . SVG Version: 6.00 Build 0)  -->
<svg version="1.1"
	 id="Layer_1" xmlns:cc="http://creativecommons.org/ns#" xmlns:rdf="http://www.w3.org/1999/02/22-rdf-syntax-ns#" xmlns:svg="http://www.w3.org/2000/svg" xmlns:dc="http://purl.org/dc/elements/1.1/"
	 xmlns="http://www.w3.org/2000/svg" xmlns:xlink="http://www.w3.org/1999/xlink" x="0px" y="0px" viewBox="0 0 48 48"
	 style="enable-background:new 0 0 48 48;" xml:space="preserve">
<style type="text/css">
	.st0{fill:#FFFFFF;}
	.st1{fill:#654B38;}
</style>
<path class="st0" d="M14.4,47c-2.2,0-4-1.8-4-4v-2.7c0-1.7,1.1-3.2,2.6-3.8V13.1c0-1,0.3-1.9,1-2.6l6.9-8.1C21.7,1.5,22.8,1,24,1
	c0,0,0,0,0,0c1.2,0,2.3,0.5,3,1.4l7.1,8.1c0.6,0.7,1,1.7,1,2.6v23.5c1.5,0.6,2.5,2,2.5,3.7V43c0,2.2-1.8,4-4,4H14.4z"/>
<path class="st1" d="M14.4,40.3V43h19.2v-2.7H14.4z M24,5L17,13.1v24.4h14V13.1L24,5z M24,13.9c1.8,0,3.2,1.4,3.2,3.2l0,0v9.6h-6.4
	v-9.6l0,0C20.8,15.3,22.2,13.9,24,13.9z"/>
</svg>
