<?xml version="1.0" encoding="utf-8"?>
<!-- Generator: Adobe Illustrator 15.0.2, SVG Export Plug-In . SVG Version: 6.00 Build 0)  -->
<!DOCTYPE svg PUBLIC "-//W3C//DTD SVG 1.1//EN" "http://www.w3.org/Graphics/SVG/1.1/DTD/svg11.dtd">
<svg version="1.1" xmlns="http://www.w3.org/2000/svg" xmlns:xlink="http://www.w3.org/1999/xlink" x="0px" y="0px" width="64px"
	 height="64px" viewBox="0 0 64 64" enable-background="new 0 0 64 64" xml:space="preserve">
<g id="Vrstva_3">
	<path id="bg" fill="#FFFFFF" d="M46,14H18c-4.4,0-7.98,3.589-7.98,8L10,41.996C10,46.411,13.589,50,18,50h28c4.411,0,8-3.589,8-8
		V22C54,17.589,50.411,14,46,14z"/>
</g>
<g id="Vrstva_3_kopie">
	<g>
		<path fill="#8763BA" d="M46,18H18c-2.2,0-3.98,1.8-3.98,4L14,42c0,2.2,1.8,4,4,4h28c2.2,0,4-1.8,4-4V22C50,19.8,48.2,18,46,18z
			 M46,42H18V26l14,10l14-10V42z M32,32L18,22h28L32,32z"/>
	</g>
</g>
</svg>
