<?xml version="1.0" encoding="utf-8"?>
<!-- Generator: Adobe Illustrator 27.0.0, SVG Export Plug-In . SVG Version: 6.00 Build 0)  -->
<svg version="1.1" id="Vrstva_3" xmlns="http://www.w3.org/2000/svg" xmlns:xlink="http://www.w3.org/1999/xlink" x="0px" y="0px"
	 viewBox="0 0 48 48" enable-background="new 0 0 48 48" xml:space="preserve">
<path fill="#FFFFFF" d="M33.091,48c-7.484,0-13.699-5.545-14.752-12.742c-0.235,0.01-0.469,0.015-0.703,0.015
	C7.912,35.272,0,27.361,0,17.636C0,7.912,7.912,0,17.636,0c9.725,0,17.636,7.912,17.636,17.636c0,0.233-0.005,0.468-0.015,0.703
	C42.455,19.392,48,25.606,48,33.091C48,41.312,41.312,48,33.091,48z"/>
<path fill="#488BC2" d="M16.273,9.454v6.136H19V9.454h4.091v16.364H19v-6.136h-2.727v6.136h-4.091V9.454H16.273z M44,33.091
	C44,39.115,39.115,44,33.091,44s-10.909-4.885-10.909-10.909s4.885-10.909,10.909-10.909S44,27.066,44,33.091z M40.364,30.364
	h-4.545v-4.545h-5.455v4.545h-4.545v5.455h4.545v4.545h5.455v-4.545h4.545V30.364z M21.516,27.819
	c-1.207,0.463-2.512,0.726-3.88,0.726c-6.015,0-10.909-4.893-10.909-10.909c0-6.015,4.894-10.909,10.909-10.909
	c6.016,0,10.909,4.894,10.909,10.909c0,1.368-0.264,2.673-0.725,3.88c0.983-0.449,2.032-0.773,3.131-0.959
	c0.206-0.942,0.321-1.917,0.321-2.921C31.273,10.105,25.167,4,17.636,4C10.106,4,4,10.105,4,17.636
	c0,7.53,6.106,13.636,13.636,13.636c1.004,0,1.979-0.115,2.921-0.321C20.744,29.852,21.068,28.803,21.516,27.819z"/>
<g>
</g>
<g>
</g>
<g>
</g>
<g>
</g>
<g>
</g>
<g>
</g>
</svg>
