<?xml version="1.0" encoding="utf-8"?>
<!-- Generator: Adobe Illustrator 15.0.2, SVG Export Plug-In . SVG Version: 6.00 Build 0)  -->
<!DOCTYPE svg PUBLIC "-//W3C//DTD SVG 1.1//EN" "http://www.w3.org/Graphics/SVG/1.1/DTD/svg11.dtd">
<svg version="1.1" xmlns="http://www.w3.org/2000/svg" xmlns:xlink="http://www.w3.org/1999/xlink" x="0px" y="0px" width="64px"
	 height="64px" viewBox="0 0 64 64" enable-background="new 0 0 64 64" xml:space="preserve">
<g id="Vrstva_3">
	<polygon id="bg" fill="#FFFFFF" points="50,10 14,10 10,10 10,14 10,18 10,19.521 11.01,20.657 26,37.521 26,42 20,42 16,42 16,46 
		16,50 16,54 20,54 44,54 48,54 48,50 48,46 48,42 44,42 38,42 38,37.521 52.989,20.657 54,19.521 54,18 54,14 54,10 	"/>
</g>
<g id="Vrstva_3_kopie">
	<g>
		<path fill="#AF5724" d="M50,18v-4H14v4l16,18v10H20v4h24v-4H34V36L50,18z M22.86,22l-3.54-4H44.7l-3.56,4H22.86z"/>
	</g>
</g>
</svg>
