<?xml version="1.0" encoding="utf-8"?>
<!-- Generator: Adobe Illustrator 15.0.2, SVG Export Plug-In . SVG Version: 6.00 Build 0)  -->
<!DOCTYPE svg PUBLIC "-//W3C//DTD SVG 1.1//EN" "http://www.w3.org/Graphics/SVG/1.1/DTD/svg11.dtd">
<svg version="1.1" xmlns="http://www.w3.org/2000/svg" xmlns:xlink="http://www.w3.org/1999/xlink" x="0px" y="0px" width="64px"
	 height="64px" viewBox="0 0 64 64" enable-background="new 0 0 64 64" xml:space="preserve">
<g id="Vrstva_3">
	<path id="bg" fill="#FFFFFF" d="M39,46v-0.323C45.283,44.3,50,38.69,50,32c0-4.615-2.32-8.899-6.012-11.48
		C43.996,20.346,44,20.173,44,20c0-6.617-5.383-12-12-12c-6.617,0-12,5.383-12,12c0,0.173,0.004,0.347,0.011,0.52
		C16.32,23.101,14,27.385,14,32c0,6.69,4.717,12.3,11,13.677V46h-5h-4v4v2v4h4h9h6h9h4v-4v-2v-4h-4H39z"/>
</g>
<g id="Vrstva_3_kopie">
	<g>
		<path fill="#3C7D00" d="M35,41.949C35.329,41.982,35.662,42,36,42c5.523,0,10-4.477,10-10c0-4.275-2.688-7.914-6.461-9.344
			C39.832,21.824,40,20.933,40,20c0-4.418-3.582-8-8-8s-8,3.582-8,8c0,0.933,0.168,1.824,0.461,2.656C20.688,24.086,18,27.725,18,32
			c0,5.523,4.477,10,10,10c0.337,0,0.671-0.018,1-0.051V50h-9v2h9h6h9v-2h-9V41.949z"/>
	</g>
</g>
</svg>
