<?xml version="1.0" encoding="utf-8"?>
<!-- Generator: Adobe Illustrator 15.0.2, SVG Export Plug-In . SVG Version: 6.00 Build 0)  -->
<!DOCTYPE svg PUBLIC "-//W3C//DTD SVG 1.1//EN" "http://www.w3.org/Graphics/SVG/1.1/DTD/svg11.dtd">
<svg version="1.1" xmlns="http://www.w3.org/2000/svg" xmlns:xlink="http://www.w3.org/1999/xlink" x="0px" y="0px" width="64px"
	 height="64px" viewBox="0 0 64 64" enable-background="new 0 0 64 64" xml:space="preserve">
<g id="Vrstva_3">
	<path id="bg" fill="#FFFFFF" d="M52,42c-0.001,0-0.001,0-0.002,0c-0.059-0.036-0.119-0.075-0.185-0.116l-0.028-0.017l-0.027-0.018
		c-0.365-0.219-0.849-0.509-1.466-0.794c0.296-0.67,0.555-1.356,0.774-2.056H54v-4v-4v-4h-2.934c-0.352-1.116-0.801-2.2-1.343-3.238
		l2.076-2.076l-2.829-2.828l-2.829-2.829l-2.828-2.828l-2.075,2.074C40.2,14.734,39.116,14.285,38,13.933V11h-4h-4h-4v2.934
		c-1.116,0.352-2.2,0.801-3.238,1.343l-2.075-2.075l-2.829,2.828l-2.829,2.829l-2.828,2.829l2.075,2.075
		C13.734,24.8,13.285,25.884,12.934,27H10v4v4v4h2.934c0.221,0.702,0.481,1.391,0.778,2.064c-0.599,0.275-1.074,0.554-1.435,0.766
		l-0.045,0.025l-0.044,0.028c-0.066,0.041-0.127,0.08-0.186,0.116c0,0-0.001,0-0.002,0H8v4v4v4h4c3.287,0,5.299-1.182,6.379-1.815
		l0.043-0.025l0.068-0.042c0.041-0.024,0.118-0.073,0.189-0.116c0.073,0.044,0.151,0.093,0.188,0.115l0.027,0.017l0.027,0.017
		C20,52.796,22.005,54,25.34,54c0.226,0,0.446-0.006,0.66-0.017V55h4h4h4v-1.018C38.22,53.994,38.446,54,38.68,54
		c3.27,0,5.265-1.173,6.337-1.803l0.049-0.028l0.044-0.025l0.044-0.027c0.063-0.04,0.123-0.078,0.18-0.113
		c0.074,0.043,0.164,0.096,0.243,0.144C46.659,52.796,48.664,54,52,54h4v-4v-4v-4H52z"/>
</g>
<g id="Vrstva_3_kopie">
	<g>
		<path fill="#755741" d="M52,50c-2.221,0-3.46-0.74-4.359-1.28C46.9,48.28,46.439,48,45.34,48c-1.119,0-1.561,0.26-2.3,0.72
			C42.12,49.26,40.9,50,38.68,50c-2.22,0-3.459-0.74-4.359-1.28c-0.74-0.439-1.2-0.72-2.3-0.72c-1.12,0-1.56,0.26-2.3,0.72
			C28.8,49.26,27.56,50,25.34,50c-2.22,0-3.46-0.74-4.36-1.28c-0.74-0.46-1.2-0.72-2.3-0.72c-1.1,0-1.56,0.26-2.3,0.72
			C15.46,49.26,14.22,50,12,50v-4c1.12,0,1.56-0.26,2.3-0.72c0.92-0.54,2.16-1.28,4.38-1.28c2.22,0,3.46,0.74,4.36,1.28
			c0.74,0.46,1.18,0.72,2.3,0.72c1.12,0,1.56-0.26,2.3-0.72C28.56,44.74,29.8,44,32.02,44s3.46,0.74,4.36,1.28
			c0.74,0.439,1.2,0.72,2.3,0.72s1.561-0.26,2.301-0.72C41.88,44.74,43.12,44,45.34,44c2.221,0,3.46,0.74,4.36,1.28
			C50.439,45.74,50.88,46,52,46V50z"/>
	</g>
	<g>
		<g>
			<path fill="#755741" d="M47.862,31c-0.365-2.919-1.515-5.588-3.233-7.8l1.514-1.514l-2.829-2.829L41.8,20.371
				c-2.211-1.719-4.881-2.868-7.8-3.233V15h-4v2.138c-2.918,0.365-5.588,1.515-7.8,3.233l-1.514-1.514l-2.829,2.829l1.514,1.514
				c-1.719,2.211-2.869,4.881-3.233,7.8H14v4h2.138c0.225,1.799,0.75,3.502,1.521,5.063C17.977,40.026,18.311,40,18.68,40
				c2.22,0,3.46,0.74,4.36,1.28c0.74,0.46,1.18,0.72,2.3,0.72c0.191,0,0.357-0.01,0.514-0.025L30,37.828v2.413
				C30.571,40.096,31.231,40,32.02,40c0.771,0,1.418,0.093,1.98,0.232v-2.404l4.141,4.142C38.305,41.987,38.479,42,38.68,42
				c1.1,0,1.561-0.26,2.301-0.72C41.88,40.74,43.12,40,45.34,40c0.362,0,0.689,0.025,1.003,0.061c0.77-1.56,1.295-3.263,1.52-5.061
				H50v-4H47.862z M34,21.181c1.818,0.307,3.497,1.02,4.941,2.049L34,28.171V21.181z M30,21.181v6.991l-4.94-4.94
				C26.504,22.201,28.182,21.488,30,21.181z M22.23,39.941c-1.029-1.444-1.742-3.123-2.049-4.941h6.991L22.23,39.941z M20.181,31
				c0.308-1.818,1.021-3.496,2.05-4.94l4.94,4.94H20.181z M32,36c-1.657,0-3-1.345-3-3c0-1.657,1.343-3,3-3c1.655,0,3,1.343,3,3
				C35,34.655,33.655,36,32,36z M41.771,39.941L36.828,35h6.991C43.513,36.818,42.8,38.498,41.771,39.941z M36.828,31l4.941-4.941
				c1.029,1.444,1.742,3.123,2.05,4.941H36.828z"/>
		</g>
	</g>
</g>
</svg>
