<?xml version="1.0" encoding="utf-8"?>
<!-- Generator: Adobe Illustrator 15.0.2, SVG Export Plug-In . SVG Version: 6.00 Build 0)  -->
<!DOCTYPE svg PUBLIC "-//W3C//DTD SVG 1.1//EN" "http://www.w3.org/Graphics/SVG/1.1/DTD/svg11.dtd">
<svg version="1.1" xmlns="http://www.w3.org/2000/svg" xmlns:xlink="http://www.w3.org/1999/xlink" x="0px" y="0px" width="64px"
	 height="64px" viewBox="0 0 64 64" enable-background="new 0 0 64 64" xml:space="preserve">
<g id="Vrstva_3">
	<path fill="#FFFFFF" d="M53.921,40.209l-3.08-15.26l-0.052-0.255l-0.084-0.247c-0.321-0.939-0.817-1.775-1.423-2.51
		C50.354,20.575,51,18.863,51,17c0-4.411-3.589-8-8-8c-2.39,0-6,0-6,0h-4h-2h-4c0,0-3.61,0-6,0c-4.411,0-8,3.589-8,8
		c0,1.163,0.255,2.265,0.703,3.263C11.48,21.686,10,24.171,10,27v11v4h3v9v4h4h8h2h2h2h2h3h1h3h6h4v-4v-6h4.888L53.921,40.209z"/>
</g>
<g id="Vrstva_3_kopie">
	<g>
		<path fill="#8763BA" d="M24,23h-6c-2.2,0-4,1.8-4,4v11h3v13h8V38h3V27C28,24.8,26.2,23,24,23z"/>
	</g>
	<g>
		<path fill="#8763BA" d="M21,21c2.22,0,4-1.78,4-4s-1.78-4-4-4s-4,1.78-4,4S18.78,21,21,21z"/>
	</g>
	<g>
		<path fill="#8763BA" d="M43,21c2.221,0,4-1.78,4-4s-1.779-4-4-4s-4,1.78-4,4S40.779,21,43,21z"/>
	</g>
	<g>
		<path fill="#8763BA" d="M46.92,25.74C46.359,24.1,44.84,23,43.12,23h-0.24c-1.72,0-3.26,1.1-3.8,2.74L36,41h4v10h6V41h4
			L46.92,25.74z"/>
	</g>
	<g>
		<rect x="31" y="13" fill="#8763BA" width="2" height="38"/>
	</g>
</g>
</svg>
