<?xml version="1.0" encoding="utf-8"?>
<!-- Generator: Adobe Illustrator 15.0.2, SVG Export Plug-In . SVG Version: 6.00 Build 0)  -->
<!DOCTYPE svg PUBLIC "-//W3C//DTD SVG 1.1//EN" "http://www.w3.org/Graphics/SVG/1.1/DTD/svg11.dtd">
<svg version="1.1" xmlns="http://www.w3.org/2000/svg" xmlns:xlink="http://www.w3.org/1999/xlink" x="0px" y="0px" width="64px"
	 height="64px" viewBox="0 0 64 64" enable-background="new 0 0 64 64" xml:space="preserve">
<g id="Vrstva_3">
	<path id="bg" fill="#FFFFFF" d="M52,44c-0.001,0-0.001,0-0.002,0c-0.059-0.036-0.119-0.075-0.185-0.116l-0.028-0.017l-0.027-0.018
		c-0.955-0.573-2.645-1.578-5.334-1.801C48.279,38.142,52,29.723,52,25c0-9.845-5.161-15.053-8.211-16.578L42.944,8H42h-5H12H8v4v4
		v4h4h3.158c5.861,3.908,7.736,6.695,7.897,7.658c0.941,5.648,0.147,11.734-0.44,14.987C21.58,42.282,20.288,42,18.68,42
		c-3.286,0-5.297,1.181-6.378,1.814l-0.044,0.026l-0.07,0.043c-0.066,0.041-0.127,0.08-0.186,0.116c0,0-0.001,0-0.002,0H8v4v4v4h4
		c3.287,0,5.299-1.182,6.379-1.815l0.043-0.025l0.068-0.042c0.041-0.024,0.118-0.073,0.189-0.116
		c0.073,0.044,0.151,0.093,0.188,0.115l0.027,0.017l0.027,0.017C20,54.796,22.005,56,25.34,56c3.286,0,5.297-1.181,6.378-1.814
		l0.044-0.026l0.07-0.043c0.064-0.039,0.124-0.078,0.181-0.113c0.073,0.042,0.163,0.096,0.241,0.142
		C33.341,54.797,35.348,56,38.68,56c3.27,0,5.265-1.173,6.337-1.803l0.049-0.028l0.044-0.025l0.044-0.027
		c0.063-0.04,0.123-0.078,0.18-0.113c0.074,0.043,0.164,0.096,0.243,0.144C46.659,54.796,48.664,56,52,56h4v-4v-4v-4H52z"/>
</g>
<g id="Vrstva_3_kopie">
	<g>
		<path fill="#488BC2" d="M52,52c-2.221,0-3.46-0.74-4.359-1.28C46.9,50.28,46.439,50,45.34,50c-1.119,0-1.561,0.26-2.3,0.72
			C42.12,51.26,40.9,52,38.68,52c-2.22,0-3.459-0.74-4.359-1.28C33.58,50.28,33.12,50,32.02,50c-1.12,0-1.56,0.26-2.299,0.72
			C28.8,51.26,27.56,52,25.34,52c-2.22,0-3.46-0.74-4.36-1.28c-0.74-0.46-1.2-0.72-2.3-0.72c-1.1,0-1.56,0.26-2.3,0.72
			C15.46,51.26,14.22,52,12,52v-4c1.12,0,1.56-0.26,2.3-0.72c0.92-0.54,2.16-1.28,4.38-1.28c2.22,0,3.46,0.74,4.36,1.28
			c0.74,0.46,1.18,0.72,2.3,0.72c1.12,0,1.56-0.26,2.3-0.72C28.56,46.74,29.8,46,32.02,46c2.221,0,3.461,0.74,4.36,1.28
			c0.74,0.439,1.2,0.72,2.3,0.72s1.561-0.26,2.301-0.72C41.88,46.74,43.12,46,45.34,46c2.221,0,3.46,0.74,4.36,1.28
			C50.439,47.74,50.88,48,52,48V52z"/>
	</g>
	<g>
		<path fill="#488BC2" d="M48,25c0-10-6-13-6-13h-5l0,0H12v4h4.348C20.272,18.511,26.33,22.979,27,27c1.516,9.094-1,19-1,19
			s6-14,6-19c0-3.03-0.555-5.408-1.322-7.264C32.866,21.723,34.653,23.921,35,26c1.516,9.094-1,18-1,18s6-13,6-18
			c0-3.03-0.555-5.408-1.322-7.264C40.865,20.723,42.653,22.921,43,25c1.516,9.094-1,17-1,17S48,30,48,25z"/>
	</g>
</g>
</svg>
