<?xml version="1.0" encoding="utf-8"?>
<!-- Generator: Adobe Illustrator 15.0.2, SVG Export Plug-In . SVG Version: 6.00 Build 0)  -->
<!DOCTYPE svg PUBLIC "-//W3C//DTD SVG 1.1//EN" "http://www.w3.org/Graphics/SVG/1.1/DTD/svg11.dtd">
<svg version="1.1" id="Vrstva_1" xmlns="http://www.w3.org/2000/svg" xmlns:xlink="http://www.w3.org/1999/xlink" x="0px" y="0px"
	 width="64px" height="64px" viewBox="0 0 64 64" enable-background="new 0 0 64 64" xml:space="preserve">
<g id="Vrstva_3">
	<polygon id="bg" fill="#FFFFFF" points="45.516,35.182 48.344,38.01 51.172,35.182 56.828,29.524 59.656,26.696 56.828,23.868 
		51.879,18.918 47.637,14.675 42.688,9.726 39.857,6.898 37.029,9.727 31.374,15.383 31.087,15.67 30.799,15.382 25.142,9.726 
		22.313,6.898 19.485,9.726 14.536,14.675 10.292,18.918 8.171,21.04 7,22.211 7,23.868 7,35.182 7,44.839 13.829,38.01 
		18.777,33.063 21.186,35.47 12.281,44.375 9.453,47.203 12.281,50.031 16.523,54.273 19.352,57.104 22.18,54.273 31.085,45.368 
		39.992,54.273 42.82,57.104 45.648,54.273 49.893,50.03 52.719,47.202 49.891,44.374 40.984,35.469 43.395,33.061 	"/>
</g>
<g id="Vrstva_3_kopie">
	<g>
		<polygon fill="#755741" points="54,26.696 49.051,21.747 44.809,17.504 39.857,12.555 34.202,18.211 39.15,23.161 15.109,47.203 
			19.352,51.445 43.395,27.403 48.344,32.353 		"/>
	</g>
	<g>
		<polygon fill="#755741" points="22.313,12.555 17.364,17.504 13.121,21.747 11,23.868 11,35.182 18.777,27.404 42.82,51.445 
			47.063,47.202 23.021,23.161 27.971,18.211 		"/>
	</g>
</g>
</svg>
