<?xml version="1.0" encoding="utf-8"?>
<!-- Generator: Adobe Illustrator 15.0.2, SVG Export Plug-In . SVG Version: 6.00 Build 0)  -->
<!DOCTYPE svg PUBLIC "-//W3C//DTD SVG 1.1//EN" "http://www.w3.org/Graphics/SVG/1.1/DTD/svg11.dtd">
<svg version="1.1" xmlns="http://www.w3.org/2000/svg" xmlns:xlink="http://www.w3.org/1999/xlink" x="0px" y="0px" width="64px"
	 height="64px" viewBox="0 0 64 64" enable-background="new 0 0 64 64" xml:space="preserve">
<g id="Vrstva_3">
	<polygon fill="#FFFFFF" points="52,32 52,28 48,28 48,24 44,24 44,20 40,20 36,20 36,12 36,8 32,8 28,8 24,8 20,8 16,8 12,8 8,8 
		8,12 8,52 8,56 12,56 52,56 56,56 56,52 56,36 56,32 	"/>
</g>
<g id="Vrstva_3_kopie">
	<g>
		<g>
			<path fill="#755741" d="M48,36v-4h-4v-4h-4v-4h-4v8h-4V12h-4v4h-4v-4h-4v4h-4v-4h-4v40h40V36H48z M24,28h-4v-8h4V28z"/>
		</g>
	</g>
</g>
</svg>
