<?xml version="1.0" encoding="utf-8"?>
<!-- Generator: Adobe Illustrator 15.0.2, SVG Export Plug-In . SVG Version: 6.00 Build 0)  -->
<!DOCTYPE svg PUBLIC "-//W3C//DTD SVG 1.1//EN" "http://www.w3.org/Graphics/SVG/1.1/DTD/svg11.dtd">
<svg version="1.1" id="Vrstva_1" xmlns="http://www.w3.org/2000/svg" xmlns:xlink="http://www.w3.org/1999/xlink" x="0px" y="0px"
	 width="64px" height="64px" viewBox="0 0 64 64" enable-background="new 0 0 64 64" xml:space="preserve">
<path id="bg" fill="#FFFFFF" d="M50.376,28.921c-2.202-1.525-4.731-3.049-5.375-3.371c-0.042-0.021-2.854-1.276-5.917-2.297
	c-0.242-3.557-1.059-7.554-2.434-11.906c-0.381-1.207-1.582-3.229-5.354-3.229c-3.512,0-10.043,1.57-10.726,1.786
	c-0.6,0.189-3.319,1.262-5.859,2.479c-2.934,1.406-7.845,3.758-6.511,7.982c4.445,14.076,10.683,19.087,15.701,20.631
	c-0.41,10.289,6.021,13.74,6.407,13.938c0.285,0.146,1.972,0.952,4.578,0.952c5.291,0,13.17-3.142,20.656-18.105
	C57.504,33.857,53.215,30.887,50.376,28.921z"/>
<g id="Vrstva_3_kopie">
	<g>
		<path fill="#755741" d="M32.122,51.365c-0.028-0.016-9.818-4.912,0.293-25.123c0.675-1.349,10.084,2.528,10.797,2.885
			c0.716,0.357,9.397,5.574,8.754,6.859C41.84,56.227,32.15,51.38,32.122,51.365z M35.529,34.648
			c-1.609-0.821-3.354-0.348-3.451-0.149c-0.108,0.217,0.76,1.957,2.189,2.673c1.398,0.699,3.375,0.471,3.52,0.184
			C37.918,37.093,37.059,35.43,35.529,34.648z M31.572,40.223c0,0-0.162,5.688,2.563,7.049c2.625,1.313,7.205-2.162,7.205-2.162
			s-3.318,0.787-5.877-0.492C32.871,43.318,31.572,40.223,31.572,40.223z M43.34,38.557c-1.609-0.822-3.354-0.348-3.451-0.149
			c-0.109,0.217,0.76,1.957,2.189,2.672c1.398,0.7,3.375,0.472,3.52,0.185C45.729,41,44.867,39.336,43.34,38.557z M31.174,24.655
			c-0.687,1.373-1.294,2.685-1.832,3.938c-0.93-0.31-1.936-0.438-2.88-0.141c-2.799,0.884-4.007,5.496-4.007,5.496
			s1.978-2.42,4.707-3.282c0.486-0.154,0.978-0.252,1.458-0.313c-1.037,2.642-1.744,5.01-2.193,7.13
			c-3.588-0.565-9.824-3.805-14.41-18.327c-0.454-1.438,9-5.202,9.76-5.442c0.762-0.241,10.627-2.539,11.061-1.166
			c1.594,5.044,2.248,9.087,2.318,12.323C33.124,24.315,31.464,24.075,31.174,24.655z M23.393,22.886
			c-0.135-0.26-1.988-0.539-3.515,0.241c-1.61,0.822-2.248,2.514-2.146,2.708c0.112,0.215,2.031,0.532,3.449-0.207
			C22.568,24.906,23.542,23.171,23.393,22.886z M32.054,21.313c-0.038-0.291-1.684-1.186-3.385-0.975
			c-1.794,0.222-2.972,1.593-2.943,1.811c0.032,0.24,1.726,1.194,3.312,0.985C30.588,22.93,32.097,21.632,32.054,21.313z"/>
	</g>
</g>
</svg>
