<?xml version="1.0" encoding="utf-8"?>
<!-- Generator: Adobe Illustrator 15.0.2, SVG Export Plug-In . SVG Version: 6.00 Build 0)  -->
<!DOCTYPE svg PUBLIC "-//W3C//DTD SVG 1.1//EN" "http://www.w3.org/Graphics/SVG/1.1/DTD/svg11.dtd">
<svg version="1.1" xmlns="http://www.w3.org/2000/svg" xmlns:xlink="http://www.w3.org/1999/xlink" x="0px" y="0px" width="64px"
	 height="64px" viewBox="0 0 64 64" enable-background="new 0 0 64 64" xml:space="preserve">
<g id="Vrstva_3">
	<path id="bg" fill="#FFFFFF" d="M57.455,51.984l-14-24L42.298,26H40h-0.045C39.979,25.673,40,25.344,40,25
		c0-3.999-1.756-6.34-2.699-7.599c-0.095-0.126-0.203-0.271-0.283-0.383c0.118-0.2,0.48-0.534,0.778-0.709l3.477-1.796l-1.801-3.542
		l-0.9-1.772l-0.888-1.777l-1.793-3.584L32.31,5.637C31.562,6.012,25,9.524,25,17c0,3.999,1.756,6.341,2.699,7.599
		c0.102,0.136,0.22,0.294,0.301,0.408c-0.002,0.473-0.208,0.802-0.361,0.981L26,26h-2h-2.297l-1.158,1.984l-14,24L3.036,58H10h44
		h6.964L57.455,51.984z"/>
</g>
<g id="Vrstva_3_kopie">
	<path fill="#DB0529" d="M32.109,32.664l-2.219-3.328C29.959,29.287,32,27.827,32,25c0-1.333-0.414-1.885-1.1-2.8
		C30.098,21.131,29,19.667,29,17c0-5.177,4.897-7.685,5.105-7.789l1.789,3.578L35,11l0.906,1.783C35.877,12.798,33,14.315,33,17
		c0,1.333,0.414,1.885,1.1,2.8c0.802,1.069,1.9,2.534,1.9,5.2C36,30.013,32.268,32.558,32.109,32.664z"/>
	<path fill="#DB0529" d="M10,54h44L40,30h-2c0,0-2,7-6,7c-5,0-6-7-6-7h-2L10,54z"/>
</g>
</svg>
