<?xml version="1.0" encoding="utf-8"?>
<!-- Generator: Adobe Illustrator 15.0.2, SVG Export Plug-In . SVG Version: 6.00 Build 0)  -->
<!DOCTYPE svg PUBLIC "-//W3C//DTD SVG 1.1//EN" "http://www.w3.org/Graphics/SVG/1.1/DTD/svg11.dtd">
<svg version="1.1" xmlns="http://www.w3.org/2000/svg" xmlns:xlink="http://www.w3.org/1999/xlink" x="0px" y="0px" width="64px"
	 height="64px" viewBox="0 0 64 64" enable-background="new 0 0 64 64" xml:space="preserve">
<g id="Vrstva_3">
</g>
<g id="Vrstva_3_kopie">
	<polygon id="bg" fill="#FFFFFF" points="54,8 50,8 14,8 10,8 10,12 10,44 8,44 8,48 8,52 8,56 12,56 28,56 32,56 32,52 32,56 
		36,56 52,56 56,56 56,52 56,48 56,44 54,44 54,12 54,8 	"/>
	<g>
		<g>
			<path fill="#8763BA" d="M50,48V12H14v36h-2v4h16l0-8h8v8h16v-4H50z M38,24h-8v2h6c1.1,0,2,0.9,2,2V34c0,1.1-0.9,2-2,2h-2.002v2
				H30v-2h-4v-4h7.998v-2H28c-1.1,0-2-0.9-2-2V22c0-1.1,0.9-2,2-2h2v-2h3.998v2H38V24z"/>
		</g>
	</g>
</g>
</svg>
