<?xml version="1.0" encoding="utf-8"?>
<!-- Generator: Adobe Illustrator 15.0.2, SVG Export Plug-In . SVG Version: 6.00 Build 0)  -->
<!DOCTYPE svg PUBLIC "-//W3C//DTD SVG 1.1//EN" "http://www.w3.org/Graphics/SVG/1.1/DTD/svg11.dtd">
<svg version="1.1" xmlns="http://www.w3.org/2000/svg" xmlns:xlink="http://www.w3.org/1999/xlink" x="0px" y="0px" width="64px"
	 height="64px" viewBox="0 0 64 64" enable-background="new 0 0 64 64" xml:space="preserve">
<g id="Vrstva_3">
	<path id="bg" fill="#FFFFFF" d="M42,29.585V29c0-0.21-0.007-0.419-0.02-0.628l9.489-7.591l3.489-2.792l-3.16-3.16l-5.657-5.657
		l-3.16-3.16l-2.791,3.49l-7.613,9.515C32.386,19.005,32.193,19,32,19s-0.386,0.005-0.578,0.017L23.81,9.501l-2.792-3.49l-3.16,3.16
		l-5.657,5.657l-3.16,3.16l3.49,2.792l9.489,7.591C22.006,28.581,22,28.79,22,29v0.585l-9.469,7.576l-3.49,2.791l3.16,3.16
		l5.657,5.657l3.161,3.16L22,50.703V52v4h4h12h4v-4v-1.297l0.981,1.227l3.16-3.16l5.657-5.657l3.16-3.16l-3.489-2.791L42,29.585z"/>
</g>
<g id="Vrstva_3_kopie">
	<g>
		<path fill="#755741" d="M38,29c0-0.786-0.155-1.535-0.43-2.223l11.4-9.12L43.313,12l-9.132,11.415C33.505,23.15,32.771,23,32,23
			s-1.505,0.15-2.182,0.415L20.687,12l-5.657,5.657l11.4,9.12C26.155,27.465,26,28.214,26,29v2.508l-10.971,8.776l5.657,5.657
			L26,39.299V52h12V39.299l5.313,6.643l5.657-5.657L38,31.508V29z"/>
	</g>
</g>
</svg>
