<?xml version="1.0" encoding="utf-8"?>
<!-- Generator: Adobe Illustrator 27.0.0, SVG Export Plug-In . SVG Version: 6.00 Build 0)  -->
<svg version="1.1" id="Vrstva_3" xmlns="http://www.w3.org/2000/svg" xmlns:xlink="http://www.w3.org/1999/xlink" x="0px" y="0px"
	 viewBox="0 0 48 48" enable-background="new 0 0 48 48" xml:space="preserve">
<path fill="#FFFFFF" d="M24,48C10.767,48,0,37.233,0,24S10.767,0,24,0s24,10.767,24,24S37.233,48,24,48z M12,24
	c0,0.036,0,0.073,0,0.109v-0.219C12,23.927,12,23.964,12,24z"/>
<path fill="#488BC2" d="M24,8c8.822,0,16,7.178,16,16s-7.178,16-16,16S8,32.822,8,24S15.178,8,24,8 M24,4C12.955,4,4,12.954,4,24
	c0,11.045,8.955,20,20,20c11.046,0,20-8.955,20-20C44,12.954,35.046,4,24,4L24,4z M16,12v24h6v-9h4v9h6V12h-6v9h-4v-9H16z"/>
<g>
</g>
<g>
</g>
<g>
</g>
<g>
</g>
<g>
</g>
<g>
</g>
</svg>
