<?xml version="1.0" encoding="utf-8"?>
<!-- Generator: Adobe Illustrator 15.0.2, SVG Export Plug-In . SVG Version: 6.00 Build 0)  -->
<!DOCTYPE svg PUBLIC "-//W3C//DTD SVG 1.1//EN" "http://www.w3.org/Graphics/SVG/1.1/DTD/svg11.dtd">
<svg version="1.1" id="Vrstva_3_kopie" xmlns="http://www.w3.org/2000/svg" xmlns:xlink="http://www.w3.org/1999/xlink" x="0px"
	 y="0px" width="64px" height="64px" viewBox="0 0 64 64" enable-background="new 0 0 64 64" xml:space="preserve">
<path id="bg" fill="#FFFFFF" d="M32,8c-3.86,0-7,3.14-7,7v8.783l-14.12,8.825L9,33.783V36v4v5.44l5.193-1.622L25,40.44V44l-2.4,1.8
	L21,47v2v3v5.303l5.099-1.457L32,54.16l5.901,1.686L43,57.303V52v-3v-2l-1.6-1.2L39,44v-3.56l10.807,3.378L55,45.44V40v-4v-2.217
	l-1.88-1.175L39,23.783V15C39,11.14,35.859,8,32,8L32,8z"/>
<g>
	<path fill="#488BC2" d="M51,40v-4L35,26V15c0-1.66-1.34-3-3-3s-3,1.34-3,3v11L13,36v4l16-5v11l-4,3v3l7-2l7,2v-3l-4-3V35L51,40z"/>
</g>
</svg>
