<?xml version="1.0" encoding="utf-8"?>
<!-- Generator: Adobe Illustrator 15.0.2, SVG Export Plug-In . SVG Version: 6.00 Build 0)  -->
<!DOCTYPE svg PUBLIC "-//W3C//DTD SVG 1.1//EN" "http://www.w3.org/Graphics/SVG/1.1/DTD/svg11.dtd">
<svg version="1.1" xmlns="http://www.w3.org/2000/svg" xmlns:xlink="http://www.w3.org/1999/xlink" x="0px" y="0px" width="64px"
	 height="64px" viewBox="0 0 64 64" enable-background="new 0 0 64 64" xml:space="preserve">
<g id="Vrstva_3">
	<path fill="#FFFFFF" d="M38,25.172V24h2h4v-4v-4v-4h-4h-2v-2V6h-4h-4h-4v4v2h-2h-4v4v4v4h4h2v1.172C20.046,27.56,16,33.345,16,40
		c0,8.822,7.178,16,16,16s16-7.178,16-16C48,33.346,43.954,27.56,38,25.172z"/>
</g>
<g id="Vrstva_3_kopie">
	<g>
		<path fill="#654B38" d="M34,28.18V20h6v-4h-6v-6h-4v6h-6v4h6v8.18C24.327,29.134,20,34.056,20,40c0,6.627,5.373,12,12,12
			c6.627,0,12-5.373,12-12C44,34.056,39.673,29.134,34,28.18z M32,46c-3.309,0-6-2.691-6-6s2.691-6,6-6s6,2.691,6,6S35.309,46,32,46
			z"/>
	</g>
</g>
</svg>
