<?xml version="1.0" encoding="utf-8"?>
<!-- Generator: Adobe Illustrator 15.0.2, SVG Export Plug-In . SVG Version: 6.00 Build 0)  -->
<!DOCTYPE svg PUBLIC "-//W3C//DTD SVG 1.1//EN" "http://www.w3.org/Graphics/SVG/1.1/DTD/svg11.dtd">
<svg version="1.1" xmlns="http://www.w3.org/2000/svg" xmlns:xlink="http://www.w3.org/1999/xlink" x="0px" y="0px" width="64px"
	 height="64px" viewBox="0 0 64 64" enable-background="new 0 0 64 64" xml:space="preserve">
<g id="Vrstva_3">
	<path fill="#FFFFFF" d="M32,8C18.766,8,8,18.766,8,32c0,13.233,10.766,24,24,24c13.233,0,24-10.767,24-24C56,18.766,45.233,8,32,8z
		"/>
</g>
<g id="Vrstva_3_kopie">
	<g>
		<path fill="#E0052A" d="M32,16c8.822,0,16,7.178,16,16s-7.178,16-16,16s-16-7.178-16-16S23.178,16,32,16 M32,12
			c-11.046,0-20,8.954-20,20s8.954,20,20,20s20-8.954,20-20S43.046,12,32,12L32,12z"/>
	</g>
	<g>
		<polygon fill="#E0052A" points="44,28 36,28 36,20 28,20 28,28 20,28 20,36 28,36 28,44 36,44 36,36 44,36 		"/>
	</g>
</g>
</svg>
