<?xml version="1.0" encoding="utf-8"?>
<!-- Generator: Adobe Illustrator 15.0.2, SVG Export Plug-In . SVG Version: 6.00 Build 0)  -->
<!DOCTYPE svg PUBLIC "-//W3C//DTD SVG 1.1//EN" "http://www.w3.org/Graphics/SVG/1.1/DTD/svg11.dtd">
<svg version="1.1" xmlns="http://www.w3.org/2000/svg" xmlns:xlink="http://www.w3.org/1999/xlink" x="0px" y="0px" width="64px"
	 height="64px" viewBox="0 0 64 64" enable-background="new 0 0 64 64" xml:space="preserve">
<g id="Vrstva_3">
	<polygon id="bg" fill="#FFFFFF" points="56.485,46 58,46 58,42 58,38 58,34 54,34 52,34 52,31 52,27 52,23 48,23 16,23 12,23 
		12,27 12,31 12,34 10,34 6,34 6,38 6,42 6,46 7.515,46 1.515,52 11.172,52 16.828,52 18.485,52 19.656,50.828 24.485,46 39.515,46 
		44.344,50.828 45.515,52 47.172,52 52.828,52 62.485,52 	"/>
</g>
<g id="Vrstva_3_kopie">
	<g>
		<path fill="#755741" d="M54,38H42.828l-7-7H48v-4H16v4h12.171l-7,7H10v4h7.172l-6,6h5.656l6-6h18.343l6,6h5.656l-6-6H54V38z
			 M26.829,38L32,32.829L37.171,38H26.829z"/>
	</g>
</g>
</svg>
