<?xml version="1.0" encoding="utf-8"?>
<!-- Generator: Adobe Illustrator 27.0.0, SVG Export Plug-In . SVG Version: 6.00 Build 0)  -->
<svg version="1.1" id="Layer_1" xmlns="http://www.w3.org/2000/svg" xmlns:xlink="http://www.w3.org/1999/xlink" x="0px" y="0px"
	 viewBox="0 0 64 64" style="enable-background:new 0 0 64 64;" xml:space="preserve">
<style type="text/css">
	.st0{fill:#488BC2;}
</style>
<path class="st0" d="M46,33H34v-7.4c1.5-0.7,2.6-2,2.9-3.7l16.8-6l-1.3-3.8L35.9,18c-0.9-1.2-2.3-2-3.9-2c-2.8,0-5,2.2-5,5
	c0,0.1,0,0.1,0,0.2l-16.7,6l1.3,3.8l17.1-6.1c0.4,0.3,0.8,0.6,1.2,0.8V33H18c-1.1,0-2,0.9-2,2v13c0,2,2,4,4,4h24c2,0,4-2,4-4V35
	C48,33.9,47.1,33,46,33z M26,46h-8V35h8V46z M36,46h-8V35h8V46z M46,46h-8V35h8V46z"/>
</svg>
