<?xml version="1.0" encoding="utf-8"?>
<!-- Generator: Adobe Illustrator 15.0.2, SVG Export Plug-In . SVG Version: 6.00 Build 0)  -->
<!DOCTYPE svg PUBLIC "-//W3C//DTD SVG 1.1//EN" "http://www.w3.org/Graphics/SVG/1.1/DTD/svg11.dtd">
<svg version="1.1" xmlns="http://www.w3.org/2000/svg" xmlns:xlink="http://www.w3.org/1999/xlink" x="0px" y="0px" width="64px"
	 height="64px" viewBox="0 0 64 64" enable-background="new 0 0 64 64" xml:space="preserve">
<g id="Vrstva_3">
	<path id="bg" fill="#FFFFFF" d="M50,8c-5.168,0-9.576,2.771-12,6.244V12V8h-4h-4h-4h-4h-4h-4h-4v4v14
		c0,4.979,3.089,9.298,7.5,11.082V52v4h4h5h4v-4V37.082c2.259-0.914,4.172-2.492,5.5-4.484V36v4h4h1v12v4h4h5h4v-4V12V8H50z"/>
</g>
<g id="Vrstva_3_kopie">
	<g>
		<path fill="#AF5724" d="M30,26h-4V12h-4v14h-4V12h-4v14c0,4.24,3.32,7.68,7.5,7.939V52h5V33.939C30.68,33.68,34,30.24,34,26V12h-4
			V26z M40,20v16h5v16h5V12C44.48,12,40,16.48,40,20z"/>
	</g>
</g>
</svg>
