<?xml version="1.0" encoding="utf-8"?>
<!-- Generator: Adobe Illustrator 15.0.2, SVG Export Plug-In . SVG Version: 6.00 Build 0)  -->
<!DOCTYPE svg PUBLIC "-//W3C//DTD SVG 1.1//EN" "http://www.w3.org/Graphics/SVG/1.1/DTD/svg11.dtd">
<svg version="1.1" id="Vrstva_1" xmlns="http://www.w3.org/2000/svg" xmlns:xlink="http://www.w3.org/1999/xlink" x="0px" y="0px"
	 width="64px" height="64px" viewBox="0 0 64 64" enable-background="new 0 0 64 64" xml:space="preserve">
<g id="Vrstva_3">
	<path id="bg" fill="#FFFFFF" d="M50,8c-3.396,0-6.396,1.705-8.206,4.301C37.173,9.003,29.891,9,26,9C20.015,9,6,9,6,21v20
		c0,2.154,0.713,4.247,2,5.964V49c0,3.309,2.691,6,6,6h2c2.607,0,4.832-1.672,5.657-4h8.686c0.825,2.328,3.05,4,5.657,4h2
		c3.309,0,6,0,6,0h4h4h4v-4V25.993c2.471-1.856,4-4.799,4-7.993C60,12.486,55.514,8,50,8z"/>
</g>
<g id="Vrstva_3_kopie">
	<g>
		<path fill="#488BC2" d="M10,41c0,1.76,0.78,3.34,2,4.439V49c0,1.1,0.9,2,2,2h2c1.1,0,2-0.9,2-2v-2h16v2c0,1.1,0.9,2,2,2h2
			c1.1,0,2-0.9,2-2v-3.561c1.221-1.101,2-2.681,2-4.439V21c0-7-7.16-8-16-8s-16,1-16,8V41z M17,43c-1.66,0-3-1.34-3-3s1.34-3,3-3
			s3,1.34,3,3S18.66,43,17,43z M35,43c-1.66,0-3-1.34-3-3s1.34-3,3-3s3,1.34,3,3S36.66,43,35,43z M38,31H14V21h24V31z"/>
	</g>
	<g>
		<path fill="#488BC2" d="M56,18c0-3.313-2.688-6-6-6s-6,2.687-6,6c0,2.611,1.671,4.827,4,5.651V51h4V23.651
			C54.329,22.827,56,20.611,56,18z"/>
	</g>
</g>
</svg>
