<?xml version="1.0" encoding="utf-8"?>
<!-- Generator: Adobe Illustrator 15.0.2, SVG Export Plug-In . SVG Version: 6.00 Build 0)  -->
<!DOCTYPE svg PUBLIC "-//W3C//DTD SVG 1.1//EN" "http://www.w3.org/Graphics/SVG/1.1/DTD/svg11.dtd">
<svg version="1.1" id="Vrstva_3" xmlns="http://www.w3.org/2000/svg" xmlns:xlink="http://www.w3.org/1999/xlink" x="0px" y="0px"
	 width="64px" height="64px" viewBox="0 0 64 64" enable-background="new 0 0 64 64" xml:space="preserve">
<polygon id="bg" fill="#FFFFFF" points="52,8 48,8 44,8 40,8 38,8 34,8 30,8 26,8 22,8 18,8 14,8 12,8 8,8 8,12 8,14 8,20 8,24 
	10,24 10,52 10,56 14,56 19,56 24,56 28,56 32,56 36,56 40,56 45,56 50,56 54,56 54,52 54,24 56,24 56,20 56,14 56,12 56,8 "/>
<g>
	<path fill="#755741" d="M50,12v2h-2v-2h-2v2h-2v-2h-2v2h-2v-2h-2v2v6h2v8H24v-8h2v-6v-2h-2v2h-2v-2h-2v2h-2v-2h-2v2h-2v-2h-2v2v6h2
		v32h5h5h4v-8c0-2.209,1.791-4,4-4s4,1.791,4,4v8h4h5h5V20h2v-6v-2H50z M18,27v-7h2v7H18z M46,27h-2v-7h2V27z"/>
</g>
</svg>
