<?xml version="1.0" encoding="utf-8"?>
<!-- Generator: Adobe Illustrator 15.0.2, SVG Export Plug-In . SVG Version: 6.00 Build 0)  -->
<!DOCTYPE svg PUBLIC "-//W3C//DTD SVG 1.1//EN" "http://www.w3.org/Graphics/SVG/1.1/DTD/svg11.dtd">
<svg version="1.1" xmlns="http://www.w3.org/2000/svg" xmlns:xlink="http://www.w3.org/1999/xlink" x="0px" y="0px" width="64px"
	 height="64px" viewBox="0 0 64 64" enable-background="new 0 0 64 64" xml:space="preserve">
<g id="Vrstva_3">
	<polygon id="bg" fill="#FFFFFF" points="46.515,7.732 9.772,22.429 6.058,23.915 7.543,27.628 9.029,31.342 10.514,35.057 12,35 
		12,52 12,56 16,56 48,56 52,56 52,52 52,48 52,44 52,40 52,36 48,36 48,32 48,28 48,20.062 49.485,19.468 52,18.462 52,15.754 
		52,11.446 52,5.538 	"/>
</g>
<g id="Vrstva_3_kopie">
	<g>
		<path fill="#755741" d="M38.43,36H44v-4H28v4h5.57l-2.5,4H24v4h4.57l-2.5,4H20V26.954l28-11.2v-4.309L11.257,26.143l1.485,3.714
			L16,28.554V52h32v-4h-2.071l-2.5-4H48v-4h-7.071L38.43,36z M35.93,36h0.141l2.501,4H33.43L35.93,36z M43.571,48H28.43l2.5-4
			h10.142L43.571,48z"/>
	</g>
</g>
</svg>
