<?xml version="1.0" encoding="utf-8"?>
<!-- Generator: Adobe Illustrator 15.0.2, SVG Export Plug-In . SVG Version: 6.00 Build 0)  -->
<!DOCTYPE svg PUBLIC "-//W3C//DTD SVG 1.1//EN" "http://www.w3.org/Graphics/SVG/1.1/DTD/svg11.dtd">
<svg version="1.1" id="Vrstva_3" xmlns="http://www.w3.org/2000/svg" xmlns:xlink="http://www.w3.org/1999/xlink" x="0px" y="0px"
	 width="64px" height="64px" viewBox="0 0 64 64" enable-background="new 0 0 64 64" xml:space="preserve">
<circle id="bg_1_" fill="#FFFFFF" cx="32" cy="32" r="24"/>
<g>
	<path fill="#755741" d="M30,18.16V12c-10,1-18,9.62-18,20s8,19,18,20v-6.16c-6-0.96-12-6.8-12-13.84S24,19.12,30,18.16z M45.939,30
		H52c-0.939-10-8-17.06-18-18v6.16C40,19.02,45.08,24,45.939,30z M34,45.84V52c10-0.939,17.061-8,18-18h-6.061
		C45.08,40,40,44.98,34,45.84z"/>
</g>
</svg>
