<?xml version="1.0" encoding="utf-8"?>
<!-- Generator: Adobe Illustrator 15.0.2, SVG Export Plug-In . SVG Version: 6.00 Build 0)  -->
<!DOCTYPE svg PUBLIC "-//W3C//DTD SVG 1.1//EN" "http://www.w3.org/Graphics/SVG/1.1/DTD/svg11.dtd">
<svg version="1.1" xmlns="http://www.w3.org/2000/svg" xmlns:xlink="http://www.w3.org/1999/xlink" x="0px" y="0px" width="64px"
	 height="64px" viewBox="0 0 64 64" enable-background="new 0 0 64 64" xml:space="preserve">
<g id="Vrstva_3">
	<path fill="#FFFFFF" d="M48,42v-2v-4h-4V22c0-6.617-5.383-12-12-12c-6.617,0-12,5.383-12,12v0.153l0,0.006V36h-4v4v2h-2v4v4v4h4h2
		h24h2h4v-4v-4v-4H48z"/>
</g>
<g id="Vrstva_3_kopie">
	<g>
		<path fill="#755741" d="M44,46v-6h-4V22c0-4.418-3.582-8-8-8c-4.418,0-8,3.582-8,8c0,0.003,0,0.006,0,0.01V40h-4v6h-2v4h2h24h2v-4
			H44z"/>
	</g>
</g>
</svg>
