<?xml version="1.0" encoding="utf-8"?>
<!-- Generator: Adobe Illustrator 27.0.0, SVG Export Plug-In . SVG Version: 6.00 Build 0)  -->
<svg version="1.1" id="Layer_1" xmlns="http://www.w3.org/2000/svg" xmlns:xlink="http://www.w3.org/1999/xlink" x="0px" y="0px"
	 viewBox="0 0 64 64" style="enable-background:new 0 0 64 64;" xml:space="preserve">
<style type="text/css">
	.st0{fill:#755741;}
</style>
<path class="st0" d="M52,48V32h-8v-4h-2c0-5.2-3.9-9.4-9-10v-4h6v-4h-6h-2v8c-5.1,0.5-9,4.8-9,10h-2v4h-8v16h-2v4h2h40h2v-4H52z
	 M22,48h-4V38h4V48z M30,48h-4V38h4V48z M38,48h-4V38h4V48z M46,48h-4V38h4V48z"/>
</svg>
