<?xml version="1.0" encoding="utf-8"?>
<!-- Generator: Adobe Illustrator 15.0.2, SVG Export Plug-In . SVG Version: 6.00 Build 0)  -->
<!DOCTYPE svg PUBLIC "-//W3C//DTD SVG 1.1//EN" "http://www.w3.org/Graphics/SVG/1.1/DTD/svg11.dtd">
<svg version="1.1" xmlns="http://www.w3.org/2000/svg" xmlns:xlink="http://www.w3.org/1999/xlink" x="0px" y="0px" width="64px"
	 height="64px" viewBox="0 0 64 64" enable-background="new 0 0 64 64" xml:space="preserve">
<g id="Vrstva_3">
	<path id="bg" fill="#FFFFFF" d="M50,25c0-3.829,0-7.135-2.972-9.246c-0.325-0.231-0.666-0.431-1.028-0.605V15v-3V8h-4H22h-4v4v3
		v0.148c-0.441,0.211-0.852,0.462-1.239,0.761C14,18.038,14,21.11,14,25v16.88c0,2.522,1.034,4.897,2.752,6.711L16,49.343V51v1v4h4
		h4.46h1.657l1.172-1.172L30.117,52h4.226l2.829,2.828L38.343,56H40h4h4v-4v-1v-1.657l-0.376-0.376
		C49.129,47.196,50,44.746,50,41.88V25z"/>
</g>
<g id="Vrstva_3_kopie">
	<g>
		<g>
			<path fill="#488BC2" d="M33.98,18.02L35.5,15H42v-3H22v3h9.5l-1.52,3.04C18,18,18,18,18,25v16.88c0,2.899,2.38,5.32,5.18,5.94
				L20,51v1h4.46l4-4H36l4,4h4v-1l-3-3h-0.16c3.381,0,5.16-2.74,5.16-6.12V25C46,18,46,18,33.98,18.02z M28,21h8
				c1.104,0,2,0.896,2,2s-0.896,2-2,2h-8c-1.104,0-2-0.896-2-2S26.896,21,28,21z M25,45c-1.657,0-3-1.343-3-3s1.343-3,3-3
				s3,1.343,3,3S26.657,45,25,45z M39,45c-1.657,0-3-1.343-3-3s1.343-3,3-3s3,1.343,3,3S40.657,45,39,45z M42,37H22V27h20V37z"/>
		</g>
	</g>
</g>
</svg>
