<?xml version="1.0" encoding="utf-8"?>
<!-- Generator: Adobe Illustrator 15.0.2, SVG Export Plug-In . SVG Version: 6.00 Build 0)  -->
<!DOCTYPE svg PUBLIC "-//W3C//DTD SVG 1.1//EN" "http://www.w3.org/Graphics/SVG/1.1/DTD/svg11.dtd">
<svg version="1.1" xmlns="http://www.w3.org/2000/svg" xmlns:xlink="http://www.w3.org/1999/xlink" x="0px" y="0px" width="64px"
	 height="64px" viewBox="0 0 64 64" enable-background="new 0 0 64 64" xml:space="preserve">
<g id="Vrstva_3">
	<path id="bg" fill="#FFFFFF" d="M52,44c-2.323,0-3.099-1.156-4.877-7.279L46.9,35.958c-1.232-4.21-3.382-11.551-10.9-13.482V16v-4
		h-4H16h-4v4v16v20v4h4h4h4h4h4h4v-4v-5.375C38.448,51.321,42.938,56,52,56h4v-4v-4v-4H52z"/>
</g>
<g id="Vrstva_3_kopie">
	<g>
		<path fill="#3C7D00" d="M43.062,37.082C41.692,32.405,39.816,26,32,26V16H16v16v20h4v-4h8v4h4V32c2.908,0,3.744,1.442,5.304,6.768
			C38.847,44.037,41.178,52,52,52v-4C45.967,48,44.729,42.777,43.062,37.082z M28,44h-8v-4h8V44z M28,36h-8v-4h8V36z M24,28
			c-2.209,0-4-1.791-4-4s1.791-4,4-4s4,1.791,4,4S26.209,28,24,28z"/>
	</g>
</g>
</svg>
