<?xml version="1.0" encoding="utf-8"?>
<!-- Generator: Adobe Illustrator 27.0.0, SVG Export Plug-In . SVG Version: 6.00 Build 0)  -->
<svg version="1.1" id="Vrstva_1" xmlns="http://www.w3.org/2000/svg" xmlns:xlink="http://www.w3.org/1999/xlink" x="0px" y="0px"
	 viewBox="0 0 64 64" style="enable-background:new 0 0 64 64;" xml:space="preserve">
<style type="text/css">
	.st0{fill:#488BC2;}
</style>
<path class="st0" d="M47.5,22.5L47.5,22.5L40.1,15L38,17.1l4.2,4.2C40.3,22.1,39,23.9,39,26c0,2.8,2.2,5,5,5c0.7,0,1.4-0.2,2-0.4V45
	c0,1.1-0.9,2-2,2s-2-0.9-2-2v-9c0-2.2-1.8-4-4-4h-2V18c0-2.2-1.8-4-4-4H20c-2.2,0-4,1.8-4,4v32h20V35h3v10c0,2.8,2.2,5,5,5
	s5-2.2,5-5V26C49,24.6,48.4,23.4,47.5,22.5z M24,44v-9h-4l8-15v10h4L24,44z M44,28c-1.1,0-2-0.9-2-2s0.9-2,2-2s2,0.9,2,2
	S45.1,28,44,28z"/>
</svg>
