<?xml version="1.0" encoding="utf-8"?>
<!-- Generator: Adobe Illustrator 15.0.2, SVG Export Plug-In . SVG Version: 6.00 Build 0)  -->
<!DOCTYPE svg PUBLIC "-//W3C//DTD SVG 1.1//EN" "http://www.w3.org/Graphics/SVG/1.1/DTD/svg11.dtd">
<svg version="1.1" xmlns="http://www.w3.org/2000/svg" xmlns:xlink="http://www.w3.org/1999/xlink" x="0px" y="0px" width="64px"
	 height="64px" viewBox="0 0 64 64" enable-background="new 0 0 64 64" xml:space="preserve">
<g id="Vrstva_3">
	<path id="bg" fill="#FFFFFF" d="M48.207,22.458l-0.709-0.626C45.873,18.061,40.278,14,32,14c-8.317,0-14.256,3.906-15.671,8.098
		l-0.486,0.428C8.114,29.327,2.953,40.85,5.422,45.789c1.029,2.057,2.916,3.236,5.178,3.236c1.991,0,3.902-0.899,6.322-2.037
		c2.395-1.126,5.376-2.528,9.043-3.331l0.233-0.051C27.607,44.452,29.474,45,32,45c2.58,0,4.476-0.568,5.895-1.444l0.242,0.049
		c4.048,0.817,7.062,2.294,9.483,3.481c2.21,1.083,3.956,1.938,5.86,1.938c2.211,0,4.068-1.179,5.097-3.234
		C61.011,40.923,55.777,29.148,48.207,22.458z"/>
</g>
<g id="Vrstva_3_kopie_1_">
	<g>
		<path fill="#AF5724" d="M44,24c0,0.896-3.921,4.402-5,8c-1.33,4.432-0.377,9-7,9c-6.621,0-5.669-4.57-7-9
			c-1.081-3.598-5-7.103-5-8c0-2,4-6,12-6S44,22.442,44,24z"/>
	</g>
	<g>
		<path fill="#AF5724" d="M23.674,35.199c-0.164-0.873-0.333-1.773-0.589-2.625c-0.551-1.835-2.127-3.814-3.277-5.259
			c-0.572-0.719-1.017-1.278-1.322-1.786C11.305,31.847,7.81,41.62,9,44c1.64,3.279,6.645-2.178,16.11-4.25
			C24.263,38.32,23.946,36.643,23.674,35.199z"/>
	</g>
	<g>
		<path fill="#AF5724" d="M45.559,25.456c-0.307,0.528-0.766,1.106-1.365,1.86c-1.15,1.445-2.728,3.424-3.276,5.259
			c-0.256,0.851-0.426,1.751-0.59,2.625c-0.269,1.422-0.58,3.069-1.399,4.483C48.93,41.702,53.342,47.314,55,44
			C56.188,41.625,52.709,31.775,45.559,25.456z"/>
	</g>
</g>
</svg>
