<?xml version="1.0" encoding="utf-8"?>
<!-- Generator: Adobe Illustrator 15.0.2, SVG Export Plug-In . SVG Version: 6.00 Build 0)  -->
<!DOCTYPE svg PUBLIC "-//W3C//DTD SVG 1.1//EN" "http://www.w3.org/Graphics/SVG/1.1/DTD/svg11.dtd">
<svg version="1.1" xmlns="http://www.w3.org/2000/svg" xmlns:xlink="http://www.w3.org/1999/xlink" x="0px" y="0px" width="64px"
	 height="64px" viewBox="0 0 64 64" enable-background="new 0 0 64 64" xml:space="preserve">
<g id="Vrstva_3">
	<polygon fill="#FFFFFF" points="50,10 14,10 10,10 10,14 10,50 10,54 14,54 50,54 54,54 54,50 54,14 54,10 	"/>
</g>
<g id="Vrstva_3_kopie">
	<g>
		<path fill="#8763BA" d="M14,14v36h36V14H14z M29.782,18.915C30.384,18.304,31.115,18,31.977,18c0.877,0,1.621,0.304,2.232,0.915
			c0.609,0.611,0.914,1.345,0.914,2.207c0,0.861-0.309,1.595-0.928,2.196c-0.615,0.602-1.357,0.902-2.219,0.902
			s-1.593-0.301-2.194-0.902c-0.603-0.602-0.902-1.335-0.902-2.196C28.88,20.26,29.18,19.527,29.782,18.915z M37.098,46H26.902
			v-0.732c0.832-0.014,1.449-0.258,1.855-0.732c0.26-0.309,0.389-1.129,0.389-2.465V31.073c0-1.332-0.152-2.188-0.463-2.56
			c-0.307-0.373-0.902-0.586-1.779-0.633v-0.758h7.904V42.07c0,1.334,0.15,2.188,0.465,2.563c0.308,0.376,0.914,0.583,1.824,0.633
			V46z"/>
	</g>
</g>
</svg>
