<?xml version="1.0" encoding="utf-8"?>
<!-- Generator: Adobe Illustrator 15.0.2, SVG Export Plug-In . SVG Version: 6.00 Build 0)  -->
<!DOCTYPE svg PUBLIC "-//W3C//DTD SVG 1.1//EN" "http://www.w3.org/Graphics/SVG/1.1/DTD/svg11.dtd">
<svg version="1.1" xmlns="http://www.w3.org/2000/svg" xmlns:xlink="http://www.w3.org/1999/xlink" x="0px" y="0px" width="64px"
	 height="64px" viewBox="0 0 64 64" enable-background="new 0 0 64 64" xml:space="preserve">
<g id="Vrstva_3">
	<path id="bg" fill="#FFFFFF" d="M52,22.98h-7.441l-7.571-11.341C35.864,9.988,34.008,9.02,32,9.02
		c-2.038,0-3.908,0.996-5.004,2.665L19.443,22.98H12c-3.309,0-6,2.691-6,6c0,0.58,0.082,1.141,0.242,1.668l5.061,18.469
		c0.945,3.452,4.111,5.863,7.698,5.863h26c3.559,0,6.728-2.395,7.706-5.822l5.091-18.581l0.083-0.301l0.034-0.31l0.061-0.54
		L58,29.204V28.98C58,25.671,55.309,22.98,52,22.98z"/>
</g>
<g id="Vrstva_3_kopie">
	<g>
		<path fill="#AF5724" d="M42.42,26.98l-8.76-13.12c-0.381-0.56-1.02-0.84-1.66-0.84s-1.279,0.28-1.66,0.86l-8.76,13.1H12
			c-1.1,0-2,0.9-2,2c0,0.18,0.02,0.359,0.08,0.54l5.08,18.541c0.46,1.68,2,2.92,3.84,2.92h26c1.84,0,3.38-1.24,3.859-2.92
			l5.08-18.541L54,28.98c0-1.1-0.9-2-2-2H42.42z M26,26.98l6-8.8l6,8.8H26z M32,42.98c-2.2,0-4-1.801-4-4c0-2.201,1.8-4,4-4
			s4,1.799,4,4C36,41.18,34.2,42.98,32,42.98z"/>
	</g>
</g>
</svg>
