<?xml version="1.0" encoding="utf-8"?>
<!-- Generator: Adobe Illustrator 15.0.2, SVG Export Plug-In . SVG Version: 6.00 Build 0)  -->
<!DOCTYPE svg PUBLIC "-//W3C//DTD SVG 1.1//EN" "http://www.w3.org/Graphics/SVG/1.1/DTD/svg11.dtd">
<svg version="1.1" id="Vrstva_1" xmlns="http://www.w3.org/2000/svg" xmlns:xlink="http://www.w3.org/1999/xlink" x="0px" y="0px"
	 width="64px" height="64px" viewBox="0 0 64 64" enable-background="new 0 0 64 64" xml:space="preserve">
<path fill="#FFFFFF" d="M53.162,22.427l-2.774-2.815l-7.438-7.44l-2.828-2.829l-2.742,2.741C35.958,10.79,34.069,10,32,10H20
	c-4.411,0-8,3.589-8,8v32v4h4h20h4v-0.938C41.206,53.662,42.564,54,44,54c4.963,0,9-4.037,9-9V26c0-1.009-0.164-1.992-0.479-2.917
	L53.162,22.427z"/>
<g>
	<path fill="#488BC2" d="M47.539,22.46l0.02-0.02L40.121,15L38,17.12l4.219,4.22C40.34,22.06,39,23.86,39,26c0,2.762,2.238,5,5,5
		c0.719,0,1.379-0.16,2-0.42V45c0,1.105-0.895,2-2,2s-2-0.895-2-2v-9c0-2.209-1.791-4-4-4h-2V18c0-2.209-1.791-4-4-4H20
		c-2.209,0-4,1.791-4,4v32h20V35h3v10c0,2.762,2.238,5,5,5s5-2.238,5-5V26C49,24.62,48.441,23.36,47.539,22.46z M24,44v-9h-4l8-15
		v10h4L24,44z M44,28c-1.105,0-2-0.896-2-2s0.895-2,2-2s2,0.896,2,2S45.105,28,44,28z"/>
</g>
</svg>
