<?xml version="1.0" encoding="utf-8"?>
<!-- Generator: Adobe Illustrator 15.0.2, SVG Export Plug-In . SVG Version: 6.00 Build 0)  -->
<!DOCTYPE svg PUBLIC "-//W3C//DTD SVG 1.1//EN" "http://www.w3.org/Graphics/SVG/1.1/DTD/svg11.dtd">
<svg version="1.1" xmlns="http://www.w3.org/2000/svg" xmlns:xlink="http://www.w3.org/1999/xlink" x="0px" y="0px" width="64px"
	 height="64px" viewBox="0 0 64 64" enable-background="new 0 0 64 64" xml:space="preserve">
<g id="Vrstva_3">
	<path id="bg" fill="#FFFFFF" d="M44,32c0-6.651,2.32-13.066,5.772-15.961l2.954-2.478l-2.367-3.043l-1.978-2.542l-2.155-2.771
		L43.2,6.981c-5.114,3.001-9.009,7.9-11.2,13.768c-2.191-5.868-6.086-10.767-11.199-13.768l-3.027-1.777l-2.155,2.771l-1.978,2.542
		l-2.367,3.042l2.954,2.478C17.68,18.934,20,25.349,20,32s-2.32,13.065-5.772,15.962l-2.953,2.478l2.366,3.042l1.978,2.543
		l2.155,2.771l3.027-1.777c5.113-3.002,9.008-7.9,11.199-13.768c2.191,5.867,6.086,10.767,11.2,13.768l3.027,1.778l2.155-2.772
		l1.977-2.543l2.365-3.043l-2.953-2.477C46.319,45.065,44,38.651,44,32z"/>
</g>
<g id="Vrstva_3_kopie">
	<g>
		<path fill="#4F4F4F" d="M18.776,10.431l-1.978,2.542C21.418,16.849,24,24.528,24,32c0,7.473-2.582,15.151-7.202,19.026
			l1.978,2.543C25.422,49.668,30,41.478,30,32C30,22.523,25.422,14.333,18.776,10.431z"/>
	</g>
	<g>
		<path fill="#4F4F4F" d="M45.225,53.569l1.977-2.543C42.582,47.151,40,39.473,40,32c0-7.472,2.582-15.151,7.202-19.026
			l-1.978-2.542C38.578,14.333,34,22.523,34,32C34,41.478,38.578,49.668,45.225,53.569z"/>
	</g>
</g>
</svg>
