<?xml version="1.0" encoding="utf-8"?>
<!-- Generator: Adobe Illustrator 15.0.2, SVG Export Plug-In . SVG Version: 6.00 Build 0)  -->
<!DOCTYPE svg PUBLIC "-//W3C//DTD SVG 1.1//EN" "http://www.w3.org/Graphics/SVG/1.1/DTD/svg11.dtd">
<svg version="1.1" xmlns="http://www.w3.org/2000/svg" xmlns:xlink="http://www.w3.org/1999/xlink" x="0px" y="0px" width="48px"
	 height="48px" viewBox="0 0 48 48" enable-background="new 0 0 48 48" xml:space="preserve">
<g id="Vrstva_3">
	<path id="bg" fill="#FFFFFF" d="M24.771,6.153H14h-4v4v27.693v4h4h6.154h4v-4v-5.23h0.616C32.065,32.616,38,26.681,38,19.385
		S32.065,6.153,24.771,6.153z"/>
</g>
<g id="Vrstva_3_kopie">
	<g>
		<path fill="#488BC2" d="M24.771,10.153H14v27.693h6.154v-9.23h4.616c5.092,0,9.229-4.14,9.229-9.231
			C34,14.292,29.862,10.153,24.771,10.153z M25.077,22.461h-4.923v-6.153h4.923c1.692,0,3.077,1.384,3.077,3.077
			C28.154,21.077,26.77,22.461,25.077,22.461z"/>
	</g>
</g>
</svg>
