<?xml version="1.0" encoding="utf-8"?>
<!-- Generator: Adobe Illustrator 27.0.0, SVG Export Plug-In . SVG Version: 6.00 Build 0)  -->
<svg version="1.1" id="Layer_1" xmlns="http://www.w3.org/2000/svg" xmlns:xlink="http://www.w3.org/1999/xlink" x="0px" y="0px"
	 viewBox="0 0 48 48" style="enable-background:new 0 0 48 48;" xml:space="preserve">
<style type="text/css">
	.st0{fill:#3C7D00;}
</style>
<path class="st0" d="M42.5,41.5c-0.3-0.3-0.6-0.4-1.1-0.4h-3v-1.7h1.5c0.8,0,1.5-0.7,1.5-1.5s-0.7-1.5-1.5-1.5h-1.5v-1.7h0.3
	c0.8,0,1.5-0.7,1.5-1.5s-0.7-1.5-1.5-1.5H28.5c-0.8,0-1.5,0.7-1.5,1.5s0.7,1.5,1.5,1.5h0.3v1.7h-1.5c-0.8,0-1.5,0.7-1.5,1.5
	s0.7,1.5,1.5,1.5h1.5v1.7h-9.9v-6.7c5.4-0.6,9.6-5.2,9.6-10.7c0-6-4.8-19.6-10.8-19.6S6.8,17.7,6.8,23.6c0,5.4,3.9,9.8,9.1,10.6V41
	H6.6c-0.4,0-0.8,0.1-1.1,0.4c-0.3,0.3-0.4,0.6-0.4,1.1c0,0.4,0.1,0.8,0.4,1.1S6.2,44,6.6,44h34.8c0.4,0,0.8-0.1,1.1-0.4
	s0.4-0.6,0.4-1.1C42.9,42.1,42.7,41.8,42.5,41.5z M31.7,34.7h3.7v1.7h-3.7V34.7z M31.7,39.3h3.7V41h-3.7V39.3z"/>
</svg>
