<?xml version="1.0" encoding="utf-8"?>
<!-- Generator: Adobe Illustrator 15.0.2, SVG Export Plug-In . SVG Version: 6.00 Build 0)  -->
<!DOCTYPE svg PUBLIC "-//W3C//DTD SVG 1.1//EN" "http://www.w3.org/Graphics/SVG/1.1/DTD/svg11.dtd">
<svg version="1.1" xmlns="http://www.w3.org/2000/svg" xmlns:xlink="http://www.w3.org/1999/xlink" x="0px" y="0px" width="64px"
	 height="64px" viewBox="0 0 64 64" enable-background="new 0 0 64 64" xml:space="preserve">
<g id="Vrstva_3">
	<path id="bg" fill="#FFFFFF" d="M47,40c-2.411,0-4.542,1.227-5.802,3.088c-1.702-1.217-4.136-2.112-7.198-2.617V28.41l9.817-5.007
		l7.127-3.635l-7.185-3.52l-16-7.84L22,5.585V12v28.464l-0.768,0.15C13.602,42.106,12,45.454,12,48c0,5.898,8.265,8,16,8
		c5.563,0,11.381-1.097,14.221-3.899C43.474,53.274,45.152,54,47,54c3.859,0,7-3.141,7-7S50.859,40,47,40z"/>
</g>
<g id="Vrstva_3_kopie">
	<g>
		<circle fill="#3C7D00" cx="47" cy="47" r="3"/>
	</g>
	<g>
		<path fill="#3C7D00" d="M42,19.84L26,12v36h-4v-3.46c-3.58,0.7-6,1.979-6,3.46c0,2.2,5.38,4,12,4s12-1.8,12-4
			c0-1.98-4.32-3.62-10-3.939V25.96L42,19.84z"/>
	</g>
</g>
</svg>
