<?xml version="1.0" encoding="utf-8"?>
<!-- Generator: Adobe Illustrator 15.0.2, SVG Export Plug-In . SVG Version: 6.00 Build 0)  -->
<!DOCTYPE svg PUBLIC "-//W3C//DTD SVG 1.1//EN" "http://www.w3.org/Graphics/SVG/1.1/DTD/svg11.dtd">
<svg version="1.1" xmlns="http://www.w3.org/2000/svg" xmlns:xlink="http://www.w3.org/1999/xlink" x="0px" y="0px" width="64px"
	 height="64px" viewBox="0 0 64 64" enable-background="new 0 0 64 64" xml:space="preserve">
<g id="Vrstva_3">
	<polygon id="bg" fill="#FFFFFF" points="44,24 56,24 32,5.084 8,24 20,24 20,44 16,44 16,48 16,52 16,56 20,56 44,56 48,56 48,52 
		48,48 48,44 44,44 	"/>
</g>
<g id="Vrstva_3_kopie">
	<g>
		<path fill="#755741" d="M40,20h6L32,10L18,20h6v28h-4v4h24v-4h-4V20z M32,48h-4v-8h4V48z M36,24h-8v-4h8V24z"/>
	</g>
</g>
</svg>
