<?xml version="1.0" encoding="utf-8"?>
<!-- Generator: Adobe Illustrator 15.0.2, SVG Export Plug-In . SVG Version: 6.00 Build 0)  -->
<!DOCTYPE svg PUBLIC "-//W3C//DTD SVG 1.1//EN" "http://www.w3.org/Graphics/SVG/1.1/DTD/svg11.dtd">
<svg version="1.1" xmlns="http://www.w3.org/2000/svg" xmlns:xlink="http://www.w3.org/1999/xlink" x="0px" y="0px" width="64px"
	 height="64px" viewBox="0 0 64 64" enable-background="new 0 0 64 64" xml:space="preserve">
<g id="Vrstva_3">
	<path id="bg" fill="#FFFFFF" d="M51.216,8.078c-0.219,0.044-5.421,1.096-10.701,3.208c-2.659,1.063-6.26,2.938-8.475,4.13
		c-2.01-1.112-5.259-2.812-8.555-4.13c-5.28-2.112-10.482-3.165-10.701-3.208L8,7.121V12v27v4v3v4v4h4h4h4v2h4h16h4v-2h4h4h4v-4v-4
		v-3v-1V12V7.121L51.216,8.078z"/>
</g>
<g id="Vrstva_3_kopie">
	<g>
		<path fill="#755741" d="M42,15c-3.828,1.531-10,5-10,5s-5-3-10-5s-10-3-10-3v27v4v3v4h4h8v2h16v-2h8h4v-4v-3v-1V12
			C52,12,47,13,42,15z M34,23.464c0.414-0.231,6.058-3.379,9.485-4.75c1.555-0.622,3.122-1.143,4.515-1.559V39.38l-14,1.4V23.464z
			 M16,17.155c1.393,0.417,2.959,0.937,4.515,1.559c4.628,1.852,9.381,4.688,9.427,4.716L30,23.465V40.78l-14-1.4V39V17.155z M48,46
			H36v2h-8v-2H16v-2.6L32,45l16-1.6V46z"/>
	</g>
</g>
</svg>
