<?xml version="1.0" encoding="utf-8"?>
<!-- Generator: Adobe Illustrator 15.0.2, SVG Export Plug-In . SVG Version: 6.00 Build 0)  -->
<!DOCTYPE svg PUBLIC "-//W3C//DTD SVG 1.1//EN" "http://www.w3.org/Graphics/SVG/1.1/DTD/svg11.dtd">
<svg version="1.1" xmlns="http://www.w3.org/2000/svg" xmlns:xlink="http://www.w3.org/1999/xlink" x="0px" y="0px" width="64px"
	 height="64px" viewBox="0 0 64 64" enable-background="new 0 0 64 64" xml:space="preserve">
<g id="Vrstva_3">
	<path id="bg" fill="#FFFFFF" d="M32,9c-5.985,0-20,0-20,12v20c0,2.154,0.713,4.247,2,5.964V49c0,3.309,2.691,6,6,6h2
		c2.607,0,4.832-1.672,5.657-4h8.686c0.825,2.328,3.05,4,5.657,4h2c3.309,0,6-2.691,6-6v-2.036c1.286-1.717,2-3.809,2-5.964V21
		C52,9,37.984,9,32,9z"/>
</g>
<g id="Vrstva_3_kopie">
	<g>
		<path fill="#488BC2" d="M16,41c0,1.76,0.78,3.34,2,4.439V49c0,1.1,0.9,2,2,2h2c1.1,0,2-0.9,2-2v-2h16v2c0,1.1,0.9,2,2,2h2
			c1.1,0,2-0.9,2-2v-3.561c1.221-1.1,2-2.68,2-4.439V21c0-7-7.16-8-16-8s-16,1-16,8V41z M23,43c-1.66,0-3-1.34-3-3s1.34-3,3-3
			s3,1.34,3,3S24.66,43,23,43z M41,43c-1.66,0-3-1.34-3-3s1.34-3,3-3s3,1.34,3,3S42.66,43,41,43z M44,31H20V21h24V31z"/>
	</g>
</g>
</svg>
