<?xml version="1.0" encoding="utf-8"?>
<!-- Generator: Adobe Illustrator 15.0.2, SVG Export Plug-In . SVG Version: 6.00 Build 0)  -->
<!DOCTYPE svg PUBLIC "-//W3C//DTD SVG 1.1//EN" "http://www.w3.org/Graphics/SVG/1.1/DTD/svg11.dtd">
<svg version="1.1" xmlns="http://www.w3.org/2000/svg" xmlns:xlink="http://www.w3.org/1999/xlink" x="0px" y="0px" width="64px"
	 height="64px" viewBox="0 0 64 64" enable-background="new 0 0 64 64" xml:space="preserve">
<g id="Vrstva_3">
	<polygon fill="#FFFFFF" points="52,39.055 49.211,39.055 39.211,24.055 40.992,21.383 43.211,18.055 39.883,15.836 36.555,13.617 
		33.227,11.398 32,13.238 30.773,11.398 27.445,13.617 24.117,15.836 20.789,18.055 23.008,21.383 24.789,24.055 14.789,39.055 
		12,39.055 8,39.055 8,43.055 8,47.055 8,51.055 12,51.055 14.263,51.055 49.737,51.055 52,51.055 56,51.055 56,47.055 56,43.055 
		56,39.055 	"/>
</g>
<g id="Vrstva_3_kopie">
	<g>
		<g>
			<path fill="#AF5724" d="M47.07,43.055l-12.667-19l3.261-4.891l-3.328-2.219L32,20.449l-2.336-3.504l-3.328,2.219l3.26,4.891
				l-12.667,19H12v4h2.263h35.474H52v-4H47.07z M32,34l5,9H27L32,34z"/>
		</g>
	</g>
</g>
</svg>
