<?xml version="1.0" encoding="utf-8"?>
<!-- Generator: Adobe Illustrator 15.0.2, SVG Export Plug-In . SVG Version: 6.00 Build 0)  -->
<!DOCTYPE svg PUBLIC "-//W3C//DTD SVG 1.1//EN" "http://www.w3.org/Graphics/SVG/1.1/DTD/svg11.dtd">
<svg version="1.1" xmlns="http://www.w3.org/2000/svg" xmlns:xlink="http://www.w3.org/1999/xlink" x="0px" y="0px" width="64px"
	 height="64px" viewBox="0 0 64 64" enable-background="new 0 0 64 64" xml:space="preserve">
<g id="Vrstva_3">
	<path id="bg" fill="#FFFFFF" d="M56,31c0-8.019-6.517-13-17.006-13c-1.049,0-3.203-2.516-4.629-4.181C31.381,10.335,27.668,6,22,6
		c-7.296,0-10.759,5.309-10.993,10.44c-0.079,0.126-0.176,0.277-0.257,0.401c-0.999,1.538-3.651,5.622,0.042,10.556
		c1.215,1.624,2.99,2.559,5.027,2.66C14.614,36.819,13,46.526,13,50c0,4.056,2.944,7,7,7c1.325,0,2.694,0,4.039-0.672
		C25.145,55.774,27,54.348,27,51c0-1.56-0.513-2.731-1.127-3.586c0.526-0.904,1.009-2.057,1.449-3.452
		c0.834-0.522,1.663-1.276,2.362-2.332c1.479,0.827,3.246,1.37,5.31,1.37c0.079,0,0.159-0.001,0.237-0.002
		c0.271,2.165,0.963,3.808,1.744,5.028c-1.304,1.347-1.981,3.189-1.981,4.974v4h4H48h3.996L52,53.004c0,0,0.006-6.008,0-9.012
		c-0.004-1.711,0.322-2.183,1.109-3.322C54.633,38.464,56,36.063,56,31z"/>
</g>
<g id="Vrstva_3_kopie">
	<g>
		<path fill="#755741" d="M13.994,25c-2.994-4,1-6,1-8S16,10,22,10c7.313,0,10.932,12,16.994,12C44.995,22,52,24,52,31
			c0,8-4.013,6.705-4,13c0.006,3,0,9,0,9h-9.006c0,0,0-3,3-3l-0.057-2.496c0,0-2.586-1.316-2.813-5.875
			C38.994,39,39.994,38,39.994,38s-2,1-5,1c-5,0-7-5-7-5S27.871,35.527,27,38.066C25.994,41,24,41,24,41s-1,4-2,5s-1.012,1-1.006,2
			S23,49,23,51s-1,2-3,2c-1.629,0-3-1-3-3c0-5,4-26,4-26S16.155,27.886,13.994,25z"/>
	</g>
</g>
</svg>
