<?xml version="1.0" encoding="utf-8"?>
<!-- Generator: Adobe Illustrator 15.0.2, SVG Export Plug-In . SVG Version: 6.00 Build 0)  -->
<!DOCTYPE svg PUBLIC "-//W3C//DTD SVG 1.1//EN" "http://www.w3.org/Graphics/SVG/1.1/DTD/svg11.dtd">
<svg version="1.1" xmlns="http://www.w3.org/2000/svg" xmlns:xlink="http://www.w3.org/1999/xlink" x="0px" y="0px" width="64px"
	 height="64px" viewBox="0 0 64 64" enable-background="new 0 0 64 64" xml:space="preserve">
<g id="Vrstva_3">
	<polygon fill="#FFFFFF" points="58,44.083 58,44 58,40.083 58,36.083 58,28.083 58,24.083 56,24.083 56,20 58,20 58,16 58,12 58,8 
		54,8 44,8 40,8 40,12 40,16 40,20 34,20 34,16 34,11.917 34,7.917 30,7.917 8,7.917 4,7.917 4,11.917 4,16 4,20 8,20 10,20 10,32 
		8,32 4,32 4,36 4,39.917 4,42 4,44 4,48 4,48.083 4,52.083 4,56.083 8,56.083 56,56.083 60,56.083 60,52.083 60,48.083 60,44.083 	
		"/>
</g>
<g id="Vrstva_3_kopie">
	<g>
		<path fill="#488BC2" d="M47.973,48.083c1.224-0.911,2.027-2.356,2.027-4c0-0.028-0.008-0.055-0.009-0.083H54v-4h-2v-3.917h2v-8h-2
			V28V16h2v-4H44v4h2v12h-6v-4h-6v4h-6V16h2v-4.083H8V16h6v24h-2v-4H8v3.917V42v2h8.008c0,0.028-0.008,0.055-0.008,0.083
			c0,1.644,0.804,3.089,2.027,4H8v4h48v-4H47.973z M18,28V16h6v12H18z M23.973,48.083c1.224-0.911,2.027-2.356,2.027-4
			c0-0.028-0.008-0.055-0.008-0.083h2.017c0,0.028-0.008,0.055-0.008,0.083c0,1.644,0.803,3.089,2.027,4H23.973z M35.973,48.083
			c1.224-0.911,2.027-2.356,2.027-4c0-0.028-0.008-0.055-0.009-0.083h2.018C40.008,44.028,40,44.055,40,44.083
			c0,1.644,0.804,3.089,2.027,4H35.973z"/>
	</g>
</g>
</svg>
