<?xml version="1.0" encoding="utf-8"?>
<!-- Generator: Adobe Illustrator 15.0.2, SVG Export Plug-In . SVG Version: 6.00 Build 0)  -->
<!DOCTYPE svg PUBLIC "-//W3C//DTD SVG 1.1//EN" "http://www.w3.org/Graphics/SVG/1.1/DTD/svg11.dtd">
<svg version="1.1" xmlns="http://www.w3.org/2000/svg" xmlns:xlink="http://www.w3.org/1999/xlink" x="0px" y="0px" width="64px"
	 height="64px" viewBox="0 0 64 64" enable-background="new 0 0 64 64" xml:space="preserve">
<g id="Vrstva_3">
	<path fill="#FFFFFF" d="M50,8H14H9.535l0.489,4.438l4.02,36.46C14.531,52.963,17.95,56,22,56h20c4.05,0,7.469-3.036,7.952-7.063
		l4.023-36.498L54.465,8H50z"/>
</g>
<g id="Vrstva_3_kopie">
	<g>
		<path fill="#488BC2" d="M14,12l4.02,36.46c0.24,2,1.92,3.54,3.98,3.54h20c2.061,0,3.74-1.54,3.98-3.54L50,12H14z M32,46
			c-3.32,0-6-2.68-6-6c0-4,6-10.8,6-10.8S38,36,38,40C38,43.32,35.32,46,32,46z M44.66,24H19.34l-0.88-8h27.06L44.66,24z"/>
	</g>
</g>
</svg>
