<?xml version="1.0" encoding="utf-8"?>
<!-- Generator: Adobe Illustrator 27.0.0, SVG Export Plug-In . SVG Version: 6.00 Build 0)  -->
<svg version="1.1" id="Vrstva_1" xmlns="http://www.w3.org/2000/svg" xmlns:xlink="http://www.w3.org/1999/xlink" x="0px" y="0px"
	 viewBox="0 0 64 64" style="enable-background:new 0 0 64 64;" xml:space="preserve">
<style type="text/css">
	.st0{fill:#00AD10;}
</style>
<path class="st0" d="M23.6,20.5h-4.2l-0.7,2.4h-3.3L20,10.1h2.9l4.7,12.8h-3.3L23.6,20.5z M20.1,18.1h2.8l-1.4-4.4L20.1,18.1z
	 M36.5,17.5h-4.9v3.1h5.7v2.4h-8.8V10.1h8.8v2.4h-5.7v2.7h4.9V17.5z M38.6,22.9V10.1h4.1c1.1,0,2.1,0.3,3.1,0.8
	c0.9,0.5,1.6,1.2,2.1,2.2c0.5,0.9,0.8,2,0.8,3.1v0.6c0,1.2-0.2,2.2-0.7,3.2c-0.5,0.9-1.2,1.7-2.1,2.2c-0.9,0.5-1.9,0.8-3,0.8H38.6z
	 M41.7,12.5v8h1.1c0.9,0,1.6-0.3,2-0.9c0.5-0.6,0.7-1.6,0.7-2.8v-0.6c0-1.2-0.2-2.2-0.7-2.8c-0.5-0.6-1.2-0.9-2.1-0.9H41.7z
	 M32,53.9l-2.2-2C22.1,44.9,17,40.3,17,34.6c0-4.6,3.6-8.2,8.2-8.2c2.6,0,5.1,1.2,6.8,3.1c1.6-1.9,4.1-3.1,6.8-3.1
	c4.6,0,8.2,3.6,8.2,8.2c0,5.7-5.1,10.3-12.8,17.3L32,53.9z M33,38.9v-8l-6,12h4v8l6-12H33z"/>
</svg>
