<?xml version="1.0" encoding="utf-8"?>
<!-- Generator: Adobe Illustrator 27.0.0, SVG Export Plug-In . SVG Version: 6.00 Build 0)  -->
<svg version="1.1" id="Layer_1" xmlns="http://www.w3.org/2000/svg" xmlns:xlink="http://www.w3.org/1999/xlink" x="0px" y="0px"
	 viewBox="0 0 64 64" style="enable-background:new 0 0 64 64;" xml:space="preserve">
<style type="text/css">
	.st0{fill:#488BC2;}
</style>
<path class="st0" d="M50.2,44.5L36.9,31.2L47.1,21l1.3,0.3l3.2-3.2l-4.8-4.8l-3.2,3.2l0.3,1.3L33.7,28l-2.8-2.8
	c1.3-3.4,0.6-7.3-2.2-10.1c-2.9-2.9-7.3-3.5-10.8-1.9l6.3,6.3l-4.4,4.4l-6.4-6.3c-1.8,3.5-1,7.9,1.9,10.8c2.6,2.6,6.1,3.4,9.3,2.4
	c-0.1,0.1-0.2,0.2-0.4,0.3L15.3,40c-2.5,2.5-2.3,6.6,0.3,9.3c2.7,2.7,6.8,2.8,9.3,0.3l8.9-8.9c0.3-0.3,0.5-0.6,0.7-0.9l10.1,10.1
	c0.6,0.6,1.5,0.6,2.1,0l3.4-3.4C50.8,45.9,50.8,44.9,50.2,44.5z"/>
</svg>
