<?xml version="1.0" encoding="utf-8"?>
<!-- Generator: Adobe Illustrator 15.0.2, SVG Export Plug-In . SVG Version: 6.00 Build 0)  -->
<!DOCTYPE svg PUBLIC "-//W3C//DTD SVG 1.1//EN" "http://www.w3.org/Graphics/SVG/1.1/DTD/svg11.dtd">
<svg version="1.1" id="Vrstva_3" xmlns="http://www.w3.org/2000/svg" xmlns:xlink="http://www.w3.org/1999/xlink" x="0px" y="0px"
	 width="64px" height="64px" viewBox="0 0 64 64" enable-background="new 0 0 64 64" xml:space="preserve">
<path id="bg" fill="#FFFFFF" d="M48,14H20h-4v4v16c0,3.075,1.172,5.874,3.081,8H16h-4v4v4v4h4h32h4v-4v-4v-4h-4h-3.078
	c1.485-1.654,2.526-3.715,2.911-6H48c4.411,0,8-3.589,8-8v-6C56,17.589,52.411,14,48,14z"/>
<g>
	<path fill="#AF5724" d="M48,18H20v16c0,4.42,3.58,8,8,8h8c4.42,0,8-3.58,8-8v-2h4c2.221,0,4-1.78,4-4v-6C52,19.78,50.221,18,48,18z
		 M48,28h-4v-6h4V28z M16,50h32v-4H16V50z"/>
</g>
</svg>
