<?xml version="1.0" encoding="utf-8"?>
<!-- Generator: Adobe Illustrator 15.0.2, SVG Export Plug-In . SVG Version: 6.00 Build 0)  -->
<!DOCTYPE svg PUBLIC "-//W3C//DTD SVG 1.1//EN" "http://www.w3.org/Graphics/SVG/1.1/DTD/svg11.dtd">
<svg version="1.1" xmlns="http://www.w3.org/2000/svg" xmlns:xlink="http://www.w3.org/1999/xlink" x="0px" y="0px" width="64px"
	 height="64px" viewBox="0 0 64 64" enable-background="new 0 0 64 64" xml:space="preserve">
<g id="Vrstva_3">
	<polygon id="bg" fill="#FFFFFF" points="52.863,17.46 33.863,7.46 32,6.48 30.137,7.46 11.137,17.46 9,18.585 9,21 9,25 9,29 
		13,29 13,43 9,43 9,47 9,53 9,57 13,57 51,57 55,57 55,53 55,47 55,43 51,43 51,29 55,29 55,25 55,21 55,18.585 	"/>
</g>
<g id="Vrstva_3_kopie">
	<g>
		<path fill="#755741" d="M17,29v14h6V29H17z M29,29v14h6V29H29z M13,53h38v-6H13V53z M41,29v14h6V29H41z M32,11L13,21v4h38v-4
			L32,11z"/>
	</g>
</g>
</svg>
