<?xml version="1.0" encoding="utf-8"?>
<!-- Generator: Adobe Illustrator 15.0.2, SVG Export Plug-In . SVG Version: 6.00 Build 0)  -->
<!DOCTYPE svg PUBLIC "-//W3C//DTD SVG 1.1//EN" "http://www.w3.org/Graphics/SVG/1.1/DTD/svg11.dtd">
<svg version="1.1" xmlns="http://www.w3.org/2000/svg" xmlns:xlink="http://www.w3.org/1999/xlink" x="0px" y="0px" width="64px"
	 height="64px" viewBox="0 0 64 64" enable-background="new 0 0 64 64" xml:space="preserve">
<g id="Vrstva_3">
	<path fill="#FFFFFF" d="M55.968,16l-0.299-0.689L49,0l-6.669,15.311L42.032,16H41v4v4v2.362C38.177,24.994,34.558,24,30,24
		c-10.215,0-15.717,4.992-18.104,8H8v4v16v4h4h40h4v-4V39v-3v-2h1v-4v-2v-4v-4v-4H55.968z"/>
</g>
<g id="Vrstva_3_kopie">
	<g>
		<polygon fill="#654B38" points="53,24 53,20 52,20 52,16.905 49,10 46,16.905 46,20 45,20 45,24 46,24 46,26 45,26 45,30 46,30 
			46,33 46,39 52,39 52,30 53,30 53,26 52,26 52,24 		"/>
	</g>
	<g>
		<g>
			<path fill="#654B38" d="M46,36c0,0-4-8-16-8s-16,8-16,8h-2v16h24v-7c0-1.657,1.343-3,3-3s3,1.343,3,3v7h10V36H46z M20,48h-4v-6h4
				V48z M26,48h-4v-6h4V48z M32,48h-4v-6h4V48z"/>
		</g>
	</g>
</g>
</svg>
