<?xml version="1.0" encoding="utf-8"?>
<!-- Generator: Adobe Illustrator 15.0.2, SVG Export Plug-In . SVG Version: 6.00 Build 0)  -->
<!DOCTYPE svg PUBLIC "-//W3C//DTD SVG 1.1//EN" "http://www.w3.org/Graphics/SVG/1.1/DTD/svg11.dtd">
<svg version="1.1" xmlns="http://www.w3.org/2000/svg" xmlns:xlink="http://www.w3.org/1999/xlink" x="0px" y="0px" width="64px"
	 height="64px" viewBox="0 0 64 64" enable-background="new 0 0 64 64" xml:space="preserve">
<g id="Vrstva_3">
	<path id="bg" fill="#FFFFFF" d="M49.31,45.115l1.654-0.611l3.752-1.387l-1.387-3.752l-1.387-3.752l-1.387-3.752l-3.752,1.387
		l-0.964,0.356c1.713-3.723,2.478-8.885-4.488-15.128l-2.069-1.854c-1.539-2.918-4.371-5.601-8.576-8.138L24,6l1.09,7.752
		c0.532,1.024-0.298,2.315-2.902,5.439c-2.653,3.183-5.955,7.145-5.034,12.321c0.116,0.651,0.302,1.29,0.543,1.921l-0.501-0.186
		l-3.752-1.387l-1.387,3.752l-1.387,3.752l-1.387,3.752l3.752,1.387l1.654,0.611l-1.654,0.611l-3.752,1.387l1.387,3.752l1.387,3.752
		l1.387,3.752l3.752-1.387L32,51.512l14.804,5.471l3.752,1.387l1.387-3.752l1.387-3.752l1.387-3.752l-3.752-1.387L49.31,45.115z"/>
</g>
<g id="Vrstva_3_kopie">
	<g id="path4157-6_1_">
		<path fill="#755741" d="M28.64,11.909c4.839,9.316-20.561,15.422,1.528,28.183l0.955-0.326
			C25.624,32.307,47.943,23.56,28.64,11.909z M38.682,21.456c3.114,8.581-7.515,11.038-4.179,17.154l5.006-1.703
			C41.518,32.312,46.663,28.608,38.682,21.456z"/>
	</g>
	<g>
		<polygon fill="#755741" points="49.577,40.752 48.19,37 32,42.983 15.81,37 14.423,40.752 26.23,45.115 14.423,49.479 
			15.81,53.23 32,47.247 48.19,53.23 49.577,49.479 37.77,45.115 		"/>
	</g>
</g>
</svg>
