<?xml version="1.0" encoding="utf-8"?>
<!-- Generator: Adobe Illustrator 15.0.2, SVG Export Plug-In . SVG Version: 6.00 Build 0)  -->
<!DOCTYPE svg PUBLIC "-//W3C//DTD SVG 1.1//EN" "http://www.w3.org/Graphics/SVG/1.1/DTD/svg11.dtd">
<svg version="1.1" id="Vrstva_3_kopie" xmlns="http://www.w3.org/2000/svg" xmlns:xlink="http://www.w3.org/1999/xlink" x="0px"
	 y="0px" width="64px" height="64px" viewBox="0 0 64 64" enable-background="new 0 0 64 64" xml:space="preserve">
<path fill="#FFFFFF" d="M48,12H16c-4.4,0-7.98,3.589-7.98,8L8,43.997C8,48.411,11.589,52,16,52h32c4.411,0,8-3.589,8-8V20
	C56,15.589,52.411,12,48,12L48,12z"/>
<g>
	<path fill="#8763BA" d="M30,42h4v-2h2c1.1,0,2-0.9,2-2v-6c0-1.1-0.9-2-2-2h-6v-2h8v-4h-4v-2h-4v2h-2c-1.1,0-2,0.9-2,2v6
		c0,1.1,0.9,2,2,2h6v2h-8v4h4V42z M48,16H16c-2.22,0-3.98,1.78-3.98,4L12,44c0,2.22,1.78,4,4,4h32c2.221,0,4-1.78,4-4V20
		C52,17.78,50.221,16,48,16z M48,44H16V20h32V44z"/>
</g>
</svg>
