<?xml version="1.0" encoding="utf-8"?>
<!-- Generator: Adobe Illustrator 15.0.2, SVG Export Plug-In . SVG Version: 6.00 Build 0)  -->
<!DOCTYPE svg PUBLIC "-//W3C//DTD SVG 1.1//EN" "http://www.w3.org/Graphics/SVG/1.1/DTD/svg11.dtd">
<svg version="1.1" xmlns="http://www.w3.org/2000/svg" xmlns:xlink="http://www.w3.org/1999/xlink" x="0px" y="0px" width="64px"
	 height="64px" viewBox="0 0 64 64" enable-background="new 0 0 64 64" xml:space="preserve">
<g id="Vrstva_3">
	<path id="bg" fill="#FFFFFF" d="M44,19.074V16v-4V8h-4H24h-4v4v4v3.074c-2.39,1.385-4,3.971-4,6.926v24c0,4.411,3.589,8,8,8h16
		c4.411,0,8-3.589,8-8V26C48,23.045,46.39,20.459,44,19.074z"/>
</g>
<g id="Vrstva_3_kopie">
	<g>
		<g>
			<path fill="#00AD10" d="M40,22h-3v-6h3v-4H24v4h3v6h-3c-2.209,0-4,1.791-4,4v24c0,2.209,1.791,4,4,4h16c2.209,0,4-1.791,4-4V26
				C44,23.791,42.209,22,40,22z M39,40h-5v5h-4v-5h-5v-4h5v-5h4v5h5V40z"/>
		</g>
	</g>
</g>
</svg>
