<?xml version="1.0" encoding="utf-8"?>
<!-- Generator: Adobe Illustrator 27.0.0, SVG Export Plug-In . SVG Version: 6.00 Build 0)  -->
<svg version="1.1" id="Layer_1" xmlns="http://www.w3.org/2000/svg" xmlns:xlink="http://www.w3.org/1999/xlink" x="0px" y="0px"
	 viewBox="0 0 64 64" style="enable-background:new 0 0 64 64;" xml:space="preserve">
<style type="text/css">
	.st0{fill:#AF5724;}
</style>
<path id="Vrstva_3_kopie" class="st0" d="M25.6,43.1c2.1,0,3.8-1.7,3.8-3.8s-1.7-3.8-3.8-3.8s-3.8,1.7-3.8,3.8
	C21.8,41.4,23.5,43.1,25.6,43.1z M40.9,35.5H30.7v8.9H20.5V32.9H18V52h2.5v-3.8h22.9V52H46V40.5C46,37.7,43.7,35.5,40.9,35.5z
	 M38.9,13c-0.2-0.6-0.8-1-1.4-1h-11c-0.7,0-1.2,0.4-1.4,1L23,19v8c0,0.6,0.4,1,1,1h1c0.6,0,1-0.4,1-1v-1h12v1c0,0.6,0.4,1,1,1h1
	c0.6,0,1-0.4,1-1v-8L38.9,13z M26.5,23c-0.8,0-1.5-0.7-1.5-1.5s0.7-1.5,1.5-1.5s1.5,0.7,1.5,1.5S27.3,23,26.5,23z M37.5,23
	c-0.8,0-1.5-0.7-1.5-1.5s0.7-1.5,1.5-1.5s1.5,0.7,1.5,1.5S38.3,23,37.5,23z M25,18l1.5-4.5h11L39,18H25z"/>
</svg>
