<?xml version="1.0" encoding="utf-8"?>
<!-- Generator: Adobe Illustrator 15.0.2, SVG Export Plug-In . SVG Version: 6.00 Build 0)  -->
<!DOCTYPE svg PUBLIC "-//W3C//DTD SVG 1.1//EN" "http://www.w3.org/Graphics/SVG/1.1/DTD/svg11.dtd">
<svg version="1.1" xmlns="http://www.w3.org/2000/svg" xmlns:xlink="http://www.w3.org/1999/xlink" x="0px" y="0px" width="64px"
	 height="64px" viewBox="0 0 64 64" enable-background="new 0 0 64 64" xml:space="preserve">
<g id="Vrstva_3">
	<path fill="#FFFFFF" d="M35.291,11.727L32,6.962l-3.291,4.765C26.586,14.799,16,30.505,16,38c0,8.822,7.178,16,16,16
		s16-7.178,16-16C48,30.505,37.413,14.799,35.291,11.727z"/>
</g>
<g id="Vrstva_3_kopie">
	<g>
		<path fill="#488BC2" d="M32,14c0,0-12,17.373-12,24s5.373,12,12,12s12-5.373,12-12S32,14,32,14z M35,46c1-2,2-3,2-8s-1-6-2-8
			c2.256,1.415,6,4,6,8C41,43,37.256,44.585,35,46z"/>
	</g>
</g>
</svg>
