<?xml version="1.0" encoding="utf-8"?>
<!-- Generator: Adobe Illustrator 15.0.2, SVG Export Plug-In . SVG Version: 6.00 Build 0)  -->
<!DOCTYPE svg PUBLIC "-//W3C//DTD SVG 1.1//EN" "http://www.w3.org/Graphics/SVG/1.1/DTD/svg11.dtd">
<svg version="1.1" xmlns="http://www.w3.org/2000/svg" xmlns:xlink="http://www.w3.org/1999/xlink" x="0px" y="0px" width="64px"
	 height="64px" viewBox="0 0 64 64" enable-background="new 0 0 64 64" xml:space="preserve">
<g id="Vrstva_3">
	<path id="bg" fill="#FFFFFF" d="M48,12H16c-4.4,0-7.98,3.589-7.98,8L8,43.997C8,48.411,11.589,52,16,52h32c4.411,0,8-3.589,8-8V20
		C56,15.589,52.411,12,48,12z"/>
</g>
<g id="Vrstva_3_kopie">
	<g>
		<path fill="#8763BA" d="M48,16H16c-2.2,0-3.98,1.8-3.98,4L12,44c0,2.2,1.8,4,4,4h32c2.2,0,4-1.8,4-4V20C52,17.8,50.2,16,48,16z
			 M48,24L32,34L16,24v-4l16,10l16-10V24z"/>
	</g>
</g>
</svg>
