<?xml version="1.0" encoding="utf-8"?>
<!-- Generator: Adobe Illustrator 27.0.0, SVG Export Plug-In . SVG Version: 6.00 Build 0)  -->
<svg version="1.1" id="Layer_1" xmlns="http://www.w3.org/2000/svg" xmlns:xlink="http://www.w3.org/1999/xlink" x="0px" y="0px"
	 viewBox="0 0 64 64" style="enable-background:new 0 0 64 64;" xml:space="preserve">
<style type="text/css">
	.st0{fill:#AF5724;}
</style>
<path id="Vrstva_3_kopie" class="st0" d="M24,44c-2.2,0-4,1.8-4,4s1.8,4,4,4s4-1.8,4-4S26.2,44,24,44z M12,12v4h4l7.2,15.2l-2.7,4.9
	C20.2,36.6,20,37.3,20,38c0,2.2,1.8,4,4,4h24v-4H24.8c-0.3,0-0.5-0.2-0.5-0.5l0.1-0.2l1.8-3.3h14.9c1.5,0,2.8-0.8,3.5-2.1l7.2-13
	c0.2-0.3,0.2-0.6,0.2-1c0-1.1-0.9-2-2-2H20.4l-1.9-4H12V12z M44,44c-2.2,0-4,1.8-4,4s1.8,4,4,4s4-1.8,4-4S46.2,44,44,44z"/>
</svg>
