<?xml version="1.0" encoding="utf-8"?>
<!-- Generator: Adobe Illustrator 15.0.2, SVG Export Plug-In . SVG Version: 6.00 Build 0)  -->
<!DOCTYPE svg PUBLIC "-//W3C//DTD SVG 1.1//EN" "http://www.w3.org/Graphics/SVG/1.1/DTD/svg11.dtd">
<svg version="1.1" id="Vrstva_1" xmlns="http://www.w3.org/2000/svg" xmlns:xlink="http://www.w3.org/1999/xlink" x="0px" y="0px"
	 width="64px" height="64px" viewBox="0 0 64 64" enable-background="new 0 0 64 64" xml:space="preserve">
<polygon id="bg" fill="#FFFFFF" points="50.473,32 56.245,22 59.709,16 52.781,16 41.236,16 35.464,6 32,0 28.536,6 22.762,16 
	11.215,16 4.287,16 7.751,22 13.524,32 7.751,42 4.287,48 11.215,48 22.762,48 28.536,58 32,64.001 35.464,58 41.236,48 52.781,48 
	59.709,48 56.245,42 "/>
<path fill="#654B38" d="M45.854,24L32,48L18.143,24H45.854 M52.781,20H11.215L32,56L52.781,20L52.781,20z"/>
<path fill="#654B38" d="M32,16l13.854,24H18.144L32,16 M32,8L11.215,44h41.566L32,8L32,8z"/>
</svg>
