<?xml version="1.0" encoding="utf-8"?>
<!-- Generator: Adobe Illustrator 15.0.2, SVG Export Plug-In . SVG Version: 6.00 Build 0)  -->
<!DOCTYPE svg PUBLIC "-//W3C//DTD SVG 1.1//EN" "http://www.w3.org/Graphics/SVG/1.1/DTD/svg11.dtd">
<svg version="1.1" xmlns="http://www.w3.org/2000/svg" xmlns:xlink="http://www.w3.org/1999/xlink" x="0px" y="0px" width="64px"
	 height="64px" viewBox="0 0 64 64" enable-background="new 0 0 64 64" xml:space="preserve">
<g id="Vrstva_3">
	<polygon id="bg" fill="#FFFFFF" points="50.293,49.152 49.254,42.393 49.016,40.844 49.03,40.836 48.613,38.131 47.574,31.391 
		47.545,31.199 49.035,30.48 49.035,27.969 49.035,23.969 49.035,19.969 49.035,15.969 49.035,13.969 49.035,11.497 46.824,10.391 
		38.824,6.391 37.035,5.497 35.246,6.391 27.246,10.391 25.477,11.276 16.265,8.205 11,6.45 11,12 11,28 11,33.55 16.265,31.795 
		25.035,28.872 25.035,31.969 26.353,31.969 25.928,34.656 24.734,42.204 24.77,42.187 23.905,47.836 23.102,53.084 23.068,53.263 
		22.18,58 27,58 39,58 40.072,58 41.001,57.464 48.341,53.224 50.709,51.855 	"/>
</g>
<g id="Vrstva_3_kopie">
	<g>
		<polygon fill="#755741" points="15,12 15,28 33,22 33,18 		"/>
	</g>
	<g>
		<polygon fill="#755741" points="29.035,13.969 29.035,15.969 39.035,15.969 39.035,23.969 29.035,23.969 29.035,27.969 
			31.035,27.969 29.879,35.281 45.035,27.969 45.035,23.969 43.035,23.969 43.035,15.969 45.035,15.969 45.035,13.969 37.035,9.969 
					"/>
	</g>
	<g>
		<polygon fill="#755741" points="43.621,32 29.1,40.34 27.859,48.441 44.66,38.74 		"/>
	</g>
	<g>
		<polygon fill="#755741" points="45.301,43 27.094,53.5 27,54 39,54 46.34,49.76 		"/>
	</g>
</g>
</svg>
