<?xml version="1.0" encoding="utf-8"?>
<!-- Generator: Adobe Illustrator 15.0.2, SVG Export Plug-In . SVG Version: 6.00 Build 0)  -->
<!DOCTYPE svg PUBLIC "-//W3C//DTD SVG 1.1//EN" "http://www.w3.org/Graphics/SVG/1.1/DTD/svg11.dtd">
<svg version="1.1" xmlns="http://www.w3.org/2000/svg" xmlns:xlink="http://www.w3.org/1999/xlink" x="0px" y="0px" width="64px"
	 height="64px" viewBox="0 0 64 64" enable-background="new 0 0 64 64" xml:space="preserve">
<g id="Vrstva_2">
	<path fill="#FFFFFF" d="M50,22c-2.79,0-5.313,1.151-7.129,3H40H25.727c-2.181-3.022-5.723-5-9.727-5C9.383,20,4,25.383,4,32
		c0,6.617,5.383,12,12,12c4.003,0,7.546-1.978,9.727-5H40h2.871c1.815,1.849,4.339,3,7.129,3c5.514,0,10-4.486,10-10
		C60,26.486,55.514,22,50,22z"/>
</g>
<g id="Vrstva_2_kopie">
	<g>
		<circle fill="#4F4F4F" cx="50" cy="32" r="6"/>
	</g>
	<g>
		<rect x="16" y="29" fill="#4F4F4F" width="24" height="6"/>
	</g>
	<g>
		<g>
			<path fill="#4F4F4F" d="M14,37V27h8.24c-1.466-1.827-3.715-3-6.24-3c-4.419,0-8,3.581-8,8c0,4.418,3.581,8,8,8
				c2.525,0,4.773-1.173,6.24-3H14z"/>
		</g>
	</g>
</g>
</svg>
