<?xml version="1.0" encoding="utf-8"?>
<!-- Generator: Adobe Illustrator 15.0.2, SVG Export Plug-In . SVG Version: 6.00 Build 0)  -->
<!DOCTYPE svg PUBLIC "-//W3C//DTD SVG 1.1//EN" "http://www.w3.org/Graphics/SVG/1.1/DTD/svg11.dtd">
<svg version="1.1" xmlns="http://www.w3.org/2000/svg" xmlns:xlink="http://www.w3.org/1999/xlink" x="0px" y="0px" width="64px"
	 height="64px" viewBox="0 0 64 64" enable-background="new 0 0 64 64" xml:space="preserve">
<g id="Vrstva_3">
	<path id="bg" fill="#FFFFFF" d="M50,36h-9v-4h4h4v-4v-4c0-4.848-3.505-10-10-10c-1.999,0-3.713,0.491-5.131,1.309
		C32.358,12.32,29.355,10,25,10c-6.495,0-10,5.152-10,10l0,4l0,4h4h4l0,8h-9h-4v4c0,5.14,2.878,9.428,8,12.075V55h4h20h4v-2.926
		c5.121-2.647,8-6.936,8-12.074v-4H50z"/>
</g>
<g id="Vrstva_3_kopie">
	<g>
		<path fill="#488BC2" d="M50,40H14c0,4.296,2.936,7.635,8,9.459V51h20v-1.541C47.064,47.634,50,44.296,50,40z"/>
	</g>
	<g>
		<path fill="#488BC2" d="M37,38h-4V24c0-2.412,1.598-6,6-6s6,3.588,6,6v4h-4v-4c-0.023-0.899-0.39-2-2-2s-1.977,1.101-2,2.023V38z"
			/>
	</g>
	<g>
		<path fill="#488BC2" d="M27,38l0-18c-0.023-0.899-0.389-2-2-2s-1.977,1.101-2,2.023L23,24h-4l0-4c0-2.412,1.598-6,6-6s6,3.588,6,6
			l0,18H27z"/>
	</g>
</g>
</svg>
