<?xml version="1.0" encoding="utf-8"?>
<!-- Generator: Adobe Illustrator 26.5.0, SVG Export Plug-In . SVG Version: 6.00 Build 0)  -->
<svg version="1.1" id="Layer_1" xmlns="http://www.w3.org/2000/svg" xmlns:xlink="http://www.w3.org/1999/xlink" x="0px" y="0px"
	 viewBox="0 0 48 48" style="enable-background:new 0 0 48 48;" xml:space="preserve">
<style type="text/css">
	.st0{fill:#8763BA;}
	.st1{fill:#FFFFFF;}
</style>
<path class="st0" d="M11.5,44.5h25c1.4,0,2.5-1.1,2.5-2.5v0c0-1.4-1.1-2.5-2.5-2.5h-9.3v-8l8.1,0c0.7,0,1.4-0.3,1.9-0.8
	s0.8-1.1,0.8-1.9l0-22.6c0-0.6-0.2-1.2-0.6-1.7c-0.5-0.6-1.2-1-2.1-1H12.7c-0.8,0-1.4,0.3-1.9,0.8S10,5.4,10,6.2L10,29
	c0,0.6,0.2,1.2,0.6,1.7c0.5,0.6,1.2,1,2.1,1l8.3-0.1v7.9h-9.5C10.1,39.5,9,40.6,9,42v0C9,43.3,10.1,44.5,11.5,44.5z"/>
<path class="st1" d="M24,6.4c-0.5,0-1,0.1-1.5,0.6c-0.7,0.6-1.2,1.6-1,2.5c0.1,0.5,0.3,0.8,0.8,1.2c0.5,0.5,1.1,0.8,1.8,0.8
	s1.2-0.2,1.8-0.8c0.5-0.5,0.8-1.1,0.8-1.7s-0.2-1.2-0.8-1.8S24.6,6.4,24,6.4z M25.7,14.3h-3.3c-0.3,0-0.5,0.2-0.5,0.5v12.9
	c0,0.3,0.2,0.5,0.5,0.5h3.3c0.3,0,0.5-0.2,0.5-0.5V14.8C26.2,14.5,26,14.3,25.7,14.3z"/>
</svg>
