<?xml version="1.0" encoding="utf-8"?>
<!-- Generator: Adobe Illustrator 27.0.0, SVG Export Plug-In . SVG Version: 6.00 Build 0)  -->
<svg version="1.1" id="Layer_1" xmlns="http://www.w3.org/2000/svg" xmlns:xlink="http://www.w3.org/1999/xlink" x="0px" y="0px"
	 viewBox="0 0 64 64" style="enable-background:new 0 0 64 64;" xml:space="preserve">
<style type="text/css">
	.st0{fill:#488BC2;}
</style>
<path id="Vrstva_3_kopie" class="st0" d="M47.8,37.6c-3.5,0-6.2,2.7-6.2,6.2s2.7,6.2,6.2,6.2s6.2-2.7,6.2-6.2S51.3,37.6,47.8,37.6z
	 M47.8,48.1c-2.4,0-4.4-2-4.4-4.4s2-4.4,4.4-4.4s4.4,2,4.4,4.4C52.1,46.1,50.1,48.1,47.8,48.1z M43.4,29.5c1.4,0,2.5-1.1,2.5-2.5
	s-1.1-2.5-2.5-2.5s-2.5,1.1-2.5,2.5S42.1,29.5,43.4,29.5z M36.6,43.8c0-2.9-1.9-5.3-4.6-6v2c1.6,0.7,2.7,2.2,2.7,4s-1.1,3.4-2.7,4v2
	C34.7,49.1,36.6,46.7,36.6,43.8z M37.3,29.6l-3.5,3.5c-0.5,0.5-0.7,1.1-0.7,1.7c0,0.7,0.2,1.4,0.7,1.7l4,3.5v6.2h2.5v-7.7l-2.7-2.9
	l3-3l1,1c1.6,1.6,3.7,2.6,6.3,2.6v-2.5c-1.9,0-3.4-0.7-4.5-1.9L41,29.4c-0.6-0.5-1.2-0.7-2-0.7S37.7,29.1,37.3,29.6z M30,18
	c0-2.2-1.8-4-4-4H14c-2.2,0-4,1.8-4,4v32h20 M18,44v-9h-4l8-15v10h4L18,44z"/>
</svg>
