<?xml version="1.0" encoding="utf-8"?>
<!-- Generator: Adobe Illustrator 15.0.2, SVG Export Plug-In . SVG Version: 6.00 Build 0)  -->
<!DOCTYPE svg PUBLIC "-//W3C//DTD SVG 1.1//EN" "http://www.w3.org/Graphics/SVG/1.1/DTD/svg11.dtd">
<svg version="1.1" id="Vrstva_1" xmlns="http://www.w3.org/2000/svg" xmlns:xlink="http://www.w3.org/1999/xlink" x="0px" y="0px"
	 width="64px" height="64px" viewBox="0 0 64 64" enable-background="new 0 0 64 64" xml:space="preserve">
<path id="bg" fill="#FFFFFF" d="M55.96,42v-1v-4v-4h-3.987c-0.074-0.042-0.164-0.098-0.244-0.145
	c-0.769-0.46-1.992-1.194-3.817-1.587l-3.284-3.279l-0.545-0.544C47.527,26.183,50,22.879,50,19c0-4.962-4.037-9-9-9
	c-3.885,0-7.191,2.478-8.45,5.932l-0.764-0.763C27.496,10.879,23.235,10,18.158,10h-0.174L14,10.016V14v5v4.022L18.022,23h0.109
	c2.101,0,3.196,0.33,4.161,1.051l-3.621,3.621l-3.98,3.98c-1.097,0.387-1.896,0.866-2.449,1.198l-0.027,0.017l-0.027,0.017
	c-0.066,0.041-0.127,0.081-0.186,0.117c0,0-0.001,0-0.002,0H8v4v4v4v1v4v4h4c3.287,0,5.299-1.182,6.379-1.814l0.043-0.025
	l0.069-0.042c0.04-0.024,0.117-0.073,0.189-0.116c0.073,0.044,0.151,0.093,0.188,0.115l0.027,0.017l0.027,0.017
	C20,52.796,22.005,54,25.34,54c3.286,0,5.297-1.182,6.378-1.814l0.044-0.025l0.07-0.043c0.064-0.04,0.124-0.078,0.181-0.113
	c0.073,0.042,0.163,0.096,0.241,0.143C33.341,52.797,35.348,54,38.68,54c3.271,0,5.266-1.173,6.338-1.803l0.049-0.028l0.043-0.024
	l0.045-0.027c0.063-0.04,0.123-0.078,0.18-0.113c0.074,0.043,0.164,0.096,0.243,0.145C46.659,52.796,48.664,54,52,54h4v-4v-4v-4
	H55.96z"/>
<g id="Vrstva_3_kopie">
	<g>
		<path fill="#488BC2" d="M52,50c-2.221,0-3.46-0.74-4.359-1.28C46.9,48.28,46.439,48,45.34,48c-1.119,0-1.561,0.26-2.3,0.72
			C42.12,49.26,40.9,50,38.68,50c-2.22,0-3.459-0.74-4.359-1.28C33.581,48.281,33.121,48,32.021,48c-1.12,0-1.56,0.26-2.3,0.72
			C28.8,49.26,27.56,50,25.34,50c-2.22,0-3.46-0.74-4.36-1.28c-0.74-0.46-1.2-0.72-2.3-0.72c-1.1,0-1.56,0.26-2.3,0.72
			C15.46,49.26,14.22,50,12,50v-4c1.12,0,1.56-0.26,2.3-0.72c0.92-0.54,2.16-1.28,4.38-1.28c2.22,0,3.46,0.74,4.36,1.28
			c0.74,0.46,1.18,0.72,2.3,0.72c1.12,0,1.56-0.26,2.3-0.72C28.56,44.74,29.8,44,32.02,44s3.46,0.74,4.36,1.28
			c0.74,0.438,1.2,0.72,2.3,0.72s1.562-0.26,2.301-0.72C41.88,44.74,43.12,44,45.34,44c2.221,0,3.46,0.74,4.36,1.28
			C50.439,45.74,50.88,46,52,46V50z M52,41c-2.221,0-3.46-0.74-4.359-1.28C46.9,39.28,46.439,39,45.34,39
			c-1.119,0-1.561,0.26-2.3,0.72C42.141,40.26,40.9,41,38.68,41c-2.22,0-3.459-0.74-4.359-1.28C33.581,39.281,33.121,39,32.021,39
			c-1.12,0-1.56,0.26-2.3,0.72c-0.9,0.54-2.14,1.28-4.36,1.28c-2.22,0-3.46-0.74-4.36-1.28C20.26,39.28,19.8,39,18.7,39
			c-1.1,0-1.56,0.26-2.3,0.72C15.46,40.26,14.22,41,12,41v-4c1.12,0,1.56-0.26,2.3-0.72c0.9-0.54,2.14-1.28,4.36-1.28
			c2.22,0,3.46,0.74,4.36,1.28c0.74,0.438,1.2,0.72,2.3,0.72c1.12,0,1.56-0.26,2.3-0.72c0.9-0.54,2.14-1.28,4.36-1.28
			s3.459,0.74,4.36,1.28c0.74,0.438,1.2,0.72,2.301,0.72s1.561-0.26,2.299-0.72C41.84,35.74,43.08,35,45.3,35s3.46,0.74,4.36,1.28
			C50.4,36.72,50.859,37,51.96,37v4H52z M25.34,32c1.12,0,1.56-0.26,2.3-0.72C28.56,30.74,29.8,30,32.02,30s3.46,0.74,4.36,1.28
			c0.74,0.438,1.2,0.72,2.3,0.72s1.562-0.26,2.301-0.72c0.24-0.14,0.521-0.3,0.819-0.46L28.96,18C25.86,14.9,23,13.98,18,14v5
			c3.64-0.02,5.78,0.78,8,3l2,2l-6.5,6.5c0.62,0.24,1.12,0.54,1.54,0.78C23.78,31.74,24.22,32,25.34,32z"/>
	</g>
	<g>
		<circle fill="#488BC2" cx="41" cy="19" r="5"/>
	</g>
</g>
</svg>
