<?xml version="1.0" encoding="utf-8"?>
<!-- Generator: Adobe Illustrator 27.0.0, SVG Export Plug-In . SVG Version: 6.00 Build 0)  -->
<svg version="1.1" id="Layer_1" xmlns="http://www.w3.org/2000/svg" xmlns:xlink="http://www.w3.org/1999/xlink" x="0px" y="0px"
	 viewBox="0 0 64 64" style="enable-background:new 0 0 64 64;" xml:space="preserve">
<style type="text/css">
	.st0{fill:#8763BA;}
</style>
<path class="st0" d="M32,22v-8H12v36h40V22H32z M20,46h-4v-4h4V46z M20,38h-4v-4h4V38z M20,30h-4v-4h4V30z M20,22h-4v-4h4V22z
	 M28,46h-4v-4h4V46z M28,38h-4v-4h4V38z M28,30h-4v-4h4V30z M28,22h-4v-4h4V22z M48,46H32v-4h4v-4h-4v-4h4v-4h-4v-4h16V46z M44,30
	h-4v4h4V30z M44,38h-4v4h4V38z"/>
</svg>
