<?xml version="1.0" encoding="utf-8"?>
<!-- Generator: Adobe Illustrator 15.0.2, SVG Export Plug-In . SVG Version: 6.00 Build 0)  -->
<!DOCTYPE svg PUBLIC "-//W3C//DTD SVG 1.1//EN" "http://www.w3.org/Graphics/SVG/1.1/DTD/svg11.dtd">
<svg version="1.1" xmlns="http://www.w3.org/2000/svg" xmlns:xlink="http://www.w3.org/1999/xlink" x="0px" y="0px" width="64px"
	 height="64px" viewBox="0 0 64 64" enable-background="new 0 0 64 64" xml:space="preserve">
<g id="Vrstva_3">
	<circle fill="#FFFFFF" cx="32" cy="32" r="24"/>
</g>
<g id="Vrstva_3_kopie">
	<g>
		<g>
			<path fill="#755741" d="M28.715,51.708L32,32L20.385,48.261C22.814,49.999,25.645,51.199,28.715,51.708z M48.261,43.615
				c1.738-2.43,2.938-5.26,3.447-8.331L32,32L48.261,43.615z M43.615,48.261L32,32l3.284,19.708
				C38.355,51.199,41.186,49.999,43.615,48.261z M15.739,43.615L32,32l-19.708,3.284C12.801,38.355,14.001,41.186,15.739,43.615z
				 M12.292,28.715L32,32L15.739,20.385C14.001,22.814,12.801,25.645,12.292,28.715z M35.284,12.292L32,32l11.615-16.261
				C41.186,14.001,38.355,12.801,35.284,12.292z M48.261,20.385L32,32l19.708-3.285C51.199,25.645,49.999,22.814,48.261,20.385z
				 M20.385,15.739L32,32l-3.285-19.708C25.645,12.801,22.814,14.001,20.385,15.739z"/>
		</g>
	</g>
	<g>
		<circle fill="#755741" cx="32" cy="32" r="2"/>
	</g>
</g>
</svg>
