<?xml version="1.0" encoding="utf-8"?>
<svg enable-background="new 0 0 24 24" fill="#b399ff" height="24" stroke="#b399ff" viewBox="0 0 24 24" width="24" xmlns="http://www.w3.org/2000/svg">
 <g fill="#b399ff" stroke="#b399ff">
  <path d="m12 23.25c-6.203 0-11.25-5.047-11.25-11.25s5.047-11.25 11.25-11.25 11.25 5.047 11.25 11.25-5.047 11.25-11.25 11.25z" fill="#b399ff" stroke="#b399ff"/>
  <path d="m12 1.5c5.79 0 10.5 4.71 10.5 10.5s-4.71 10.5-10.5 10.5-10.5-4.71-10.5-10.5 4.71-10.5 10.5-10.5m0-1.5c-6.627 0-12 5.373-12 12s5.373 12 12 12 12-5.373 12-12-5.373-12-12-12z" fill="#b399ff" stroke="#b399ff"/>
 </g>
</svg>