<svg enable-background="new 0 0 24 24" height="24px" version="1.1" viewBox="0 0 24 24" width="24px" xml:space="preserve" xmlns="http://www.w3.org/2000/svg"> <g>  <g>   <path clip-rule="evenodd" d="m16.275 5.917-1.301-0.082c-0.51 0-0.516 0.858-0.516 1.366l0.104 1.925c-0.299-1.211-0.881-2.279-1.612-2.28 0.54-0.32 1.125-1.333 1.125-2.006 0-0.174-0.027-0.356-0.066-0.537l0.123-3e-3 -0.385-2.164s-1.565 6e-3 -2.101 6e-3c-0.509 0-0.595 0.922-1.274 0.922-1.479 0-2.11 0.109-2.11 0.109l0.07 1.265 1.691-0.041c-0.025 0.158-0.041 0.326-0.041 0.509 0 0.919 0.557 1.62 1.097 1.939-0.907 0.263-1.042 2.185-1.146 3.478l-3.026 0.419 0.167 1.701 3.203-0.305c1e-3 0.014 2e-3 0.023 3e-3 0.038l2.848-2.013 0.318 0.242-3.06 2.527c0.053 0.189 0.13 0.308 0.28 0.652l-3.656 8.229h2.24l3.035-6.174 0.946 6.227 2.467-0.053-1.424-7.77c0.248-0.539 0.379-1.182 0.445-1.93l0.064 1.215c0 0.508 0.412 0.92 0.92 0.92h0.488c0.51 0 1.34-0.494 1.34-1.004v-6.167c2e-3 -0.507-0.746-1.16-1.256-1.16z" fill="#267f00" fill-rule="evenodd" stroke="#267f00" stroke-width="0"/>  </g> </g></svg>