<?xml version="1.0" encoding="utf-8"?>
<!-- Generator: Adobe Illustrator 27.0.0, SVG Export Plug-In . SVG Version: 6.00 Build 0)  -->
<svg version="1.1" id="Layer_1" xmlns="http://www.w3.org/2000/svg" xmlns:xlink="http://www.w3.org/1999/xlink" x="0px" y="0px"
	 viewBox="0 0 48 48" style="enable-background:new 0 0 48 48;" xml:space="preserve">
<style type="text/css">
	.st0{fill:#755741;}
</style>
<path class="st0" d="M43,31.9c0-1,1-2.9,1-4c0-1-1-2.9-1-4s1-2.9,1-4c0-1-1-2.9-1-4c0-1,0.9-2.9,1-4c0.1-0.5,0-2.2,0-2.2
	c0-1-0.8-1.8-1.8-1.8c0,0-2.4-0.1-3.2,0c-1.3,0.1-3.7,1-5,1s-3.7-1-5-1s-3.7,1-5,1s-3.7-1-5-1s-3.7,1-5,1s-3.7-0.9-5-1
	c-0.8-0.1-3.2,0-3.2,0C4.8,8.2,4,9,4,10c0,0-0.1,1.6,0,2.2c0.1,1,1,2.9,1,4c0,1-1,2.9-1,4c0,1,1,2.9,1,4s-1,2.9-1,4c0,1,1,2.9,1,4
	c0,1-1,4-1,4V38c0,1,0.8,1.8,1.8,1.8c0,0,2.4,0.1,3.2,0c1.3-0.1,3.7-1,5-1s3.7,1,5,1s3.7-1,5-1s3.7,1,5,1s3.7-1,5-1s3.7,0.9,5,1
	c0.8,0.1,3.2,0,3.2,0c1,0,1.8-0.8,1.8-1.8c0,0,0.1-1.6,0-2.2C43.8,34.9,43,32.9,43,31.9z M40.5,36.4H20.2c0.2-0.1,0.3-0.2,0.4-0.3
	c0.3-0.3,0.4-0.7,0.4-1.2c0-0.6-0.1-1.2-0.3-1.7s-0.3-1.1-0.3-1.7s0.2-1,0.4-1.3s0.5-0.4,0.8-0.4s0.5,0,0.8,0.1
	c0.2,0.1,0.6,0.2,1.1,0.5c0.7,0.4,1.3,0.7,1.7,0.8c0.4,0.1,0.8,0.2,1.1,0.2c0.7,0,1.3-0.3,1.7-0.8s0.6-1,0.6-1.6
	c0-0.5-0.2-0.8-0.5-1.1c-0.3-0.3-0.8-0.5-1.5-0.8c-0.5-0.2-1-0.4-1.2-0.6c-0.3-0.2-0.4-0.4-0.4-0.7s0.2-0.5,0.6-0.6
	c0.5-0.1,1.2-0.2,2.4-0.3c1-0.1,1.8-0.2,2.3-0.4s0.8-0.6,0.8-1.2c0-0.5-0.2-1.1-0.5-1.5c-0.3-0.5-0.7-0.7-1.2-0.7
	c-0.2,0-0.5,0-0.8,0.1s-0.6,0.2-1,0.4c-0.3,0.1-0.6,0.3-0.8,0.3C26.6,22,26.5,22,26.3,22s-0.4-0.1-0.6-0.3c-0.1-0.2-0.2-0.4-0.2-0.7
	c0-0.5,0.2-0.9,0.6-1.3s1.2-0.8,2.5-1.4s2.3-1.1,2.7-1.6c0.5-0.5,0.7-0.9,0.7-1.4c0-0.7-0.3-1.3-0.9-2s-1.1-1-1.6-1
	c-0.4,0-0.9,0.2-1.3,0.6c-0.5,0.4-1.1,1.3-2.1,2.7c-0.6,1-1.2,1.7-1.7,2s-1,0.5-1.5,0.5c-0.4,0-0.9-0.1-1.3-0.5
	c-0.4-0.3-0.8-1-1.3-2c-0.4-0.9-0.8-1.5-1.1-1.9c-0.3-0.4-0.7-0.6-1.2-0.6c-0.6,0-1.1,0.2-1.5,0.4s-0.6,0.5-0.6,0.8s0.1,0.7,0.3,1
	s0.4,0.7,0.7,1.1c0.3,0.4,0.5,0.8,0.6,1s0.2,0.4,0.2,0.7c0,0.3-0.2,0.5-0.5,0.7s-0.6,0.3-0.9,0.3s-0.7-0.1-1-0.3s-0.7-0.5-1.3-1.1
	c-0.6-0.5-1-0.9-1.3-1.1s-0.6-0.3-1-0.3c-0.5,0-1,0.1-1.3,0.5s-0.5,0.7-0.5,1.1c0,0.2,0,0.4,0.1,0.6s0.2,0.4,0.4,0.7
	c0.4,0.7,0.6,1.2,0.6,1.4c0,0.3-0.1,0.5-0.4,0.7c-0.3,0.2-0.6,0.3-1.1,0.5c-0.6,0.2-1,0.4-1.2,0.6C8.1,22.6,8,22.9,8,23.3
	c0,0.3,0.1,0.6,0.1,1c0.1,0.3,0.3,0.5,0.5,0.7c0.3,0.2,0.7,0.4,1.2,0.4s0.9,0,1.3,0c0.8,0,1.3,0.1,1.5,0.4s0.3,0.7,0.3,1.3
	c0,0.4,0,0.8-0.2,1.2c-0.1,0.4-0.4,0.8-0.8,1.3c-0.7,1-1,1.5-1,1.6c0,0.4,0.2,0.8,0.6,1.1c0.4,0.3,0.8,0.4,1.2,0.4s0.8-0.1,1.1-0.3
	c0.4-0.2,0.8-0.7,1.4-1.4c0.5-0.6,0.9-0.9,1.1-1.1c0.2-0.1,0.4-0.2,0.7-0.2s0.5,0.1,0.9,0.7c0.2,0.3,0.3,0.7,0.3,1.3
	s-0.1,1.1-0.2,1.6s-0.2,1-0.2,1.6c0,0.5,0.1,0.9,0.4,1.2c0.1,0.1,0.3,0.2,0.4,0.3H7.5V11.5h33V36.4z M32.1,33.3
	c-0.5,0-0.9-0.2-1.2-0.5s-0.5-0.7-0.5-1.2s0.2-0.9,0.5-1.2c0.3-0.3,0.7-0.5,1.2-0.5s0.9,0.2,1.2,0.5s0.5,0.7,0.5,1.2
	s-0.2,0.9-0.5,1.2C32.9,33.2,32.5,33.3,32.1,33.3z M37.3,18.2c-1.5,0-2.6,1.2-2.6,2.6c0,1.5,1.2,2.6,2.6,2.6s2.6-1.2,2.6-2.6
	C40,19.4,38.8,18.2,37.3,18.2z"/>
</svg>
