<?xml version="1.0" encoding="utf-8"?>
<!-- Generator: Adobe Illustrator 27.0.0, SVG Export Plug-In . SVG Version: 6.00 Build 0)  -->
<svg version="1.1" id="Layer_1" xmlns="http://www.w3.org/2000/svg" xmlns:xlink="http://www.w3.org/1999/xlink" x="0px" y="0px"
	 viewBox="0 0 64 64" style="enable-background:new 0 0 64 64;" xml:space="preserve">
<style type="text/css">
	.st0{fill:#488BC2;}
</style>
<path id="Vrstva_3_kopie" class="st0" d="M20,43V28h-2v-5h1v-2l0,0h-5h-1v2h1v5h-2v19h7h2h31v-4H20z M44,37c-1.4,0-2.8-0.5-4-1.3
	c-2.4,1.7-5.6,1.7-8,0c-1.2,0.8-2.6,1.3-4,1.3h-2v2h2c1.4,0,2.7-0.3,4-1c2.5,1.3,5.5,1.3,8,0c1.3,0.7,2.6,1,4,1h2v-2H44z M28,35
	L28,35c1.6,0,3.1-0.9,4-2c1,1.1,2.4,2,4,2s3-0.9,4-2c1,1.1,2.4,2,4,2h0.1l1.9-6.7c0.1-0.3,0.1-0.5-0.1-0.8c-0.1-0.2-0.3-0.4-0.6-0.5
	L44,26.6V22c0-1.1-0.9-2-2-2h-3v-3h-6v3h-3c-1.1,0-2,0.9-2,2v4.6L26.7,27c-0.3,0.1-0.5,0.3-0.6,0.5S26,28,26,28.3L28,35z M30,22h12
	v4l-6-2l-6,2V22z"/>
</svg>
