<?xml version="1.0" encoding="UTF-8" standalone="no"?>
<svg
   width="12"
   height="12"
   version="1.1"
   viewBox="0 0 12 12"
   id="svg4"
   xmlns="http://www.w3.org/2000/svg"
   xmlns:svg="http://www.w3.org/2000/svg">
  <defs
     id="defs8" />
  <path
     d="m 6,9.27281 a 3.2727,-3.2727 0 0 0 3.2727,-3.2727 c 0,-1.2109 -0.66,-2.2691 -1.6364,-2.8364 V 2.18189 A 0.54545,-0.54545 0 0 0 7.09085,1.63644 H 4.90905 A 0.54545,-0.54545 0 0 0 4.3636,2.18189 V 3.16371 C 3.38724,3.73098 2.7272,4.78921 2.7272,6.00011 a 3.2727,-3.2727 0 0 0 3.2727,3.2727 M 7.0908,1.09101 V 0.54556 A 0.54545,-0.54545 0 0 0 6.54535,1e-4 H 5.45445 A 0.54545,-0.54545 0 0 0 4.909,0.54556 v 0.54545 h 2.1818 m 3.2727,5.4545 h 1.6364 v -1.0909 h -1.6364 v 1.0909 m -10.364,0 H 1.6359 V 5.45461 H -5e-4 v 1.0909 m 6.5455,5.4545 v -1.6364 H 5.4541 v 1.6364 H 6.545 m -4.4073,-1.3636 1.1618,-1.1673 -0.77455,-0.76909 -1.1618,1.1564 0.77455,0.78 m 6.5618,-1.1618 1.1564,1.1618 0.78,-0.78 -1.1618,-1.1564 z"
     fill="#f9f27d"
     stroke="#eba700"
     stroke-linecap="round"
     stroke-linejoin="round"
     stroke-opacity="0.99383"
     stroke-width="0.745"
     style="mix-blend-mode:normal;paint-order:fill markers stroke"
     id="path2" />
</svg>
