<?xml version="1.0" encoding="utf-8"?>
<!-- Generator: Adobe Illustrator 27.0.0, SVG Export Plug-In . SVG Version: 6.00 Build 0)  -->
<svg version="1.1" id="Layer_1" xmlns="http://www.w3.org/2000/svg" xmlns:xlink="http://www.w3.org/1999/xlink" x="0px" y="0px"
	 viewBox="0 0 50 50" style="enable-background:new 0 0 50 50;" xml:space="preserve">
<style type="text/css">
	.st0{fill:#488BC2;}
</style>
<path class="st0" d="M9.1,43.3l32.3-11c0.7-0.3,1.6-0.9,1.9-1.8c0-0.2,0.3-0.3,0.5-0.3c0.4,0,0.7,0.3,0.7,0.6c0.1,0.6-0.2,2.2-2.6,3
	L9.6,44.6L9.1,43.3z M8.9,11.1c1.8,0,3.3-1.5,3.3-3.3s-1.5-3.2-3.3-3.2S5.6,6,5.6,7.8C5.6,9.7,7.1,11.1,8.9,11.1z M18.4,37.4
	c0.2,0.7,1,1.4,2,1.4l0,0c1.1,0,2.1-0.9,2.1-2.1v-0.3L20,25.8c-0.2-0.7-0.9-1.3-1.5-1.6L14.7,22L13,14.8h10.3c0.8,0,1.5-0.6,1.5-1.4
	c0-0.8-0.7-1.4-1.5-1.4H8.5c-1.5,0-2.2,1-2,1.9l2.1,9.4c0.2,0.9,0.8,1.6,1.5,2l0,0l6.1,3.6C16.3,28.9,18.4,37.4,18.4,37.4z
	 M17.3,22.6L32.5,5.8l0.6,0.5L17.9,23.2L17.3,22.6z"/>
</svg>
