<?xml version="1.0" encoding="utf-8"?>
<!-- Generator: Adobe Illustrator 27.0.0, SVG Export Plug-In . SVG Version: 6.00 Build 0)  -->
<svg version="1.1" id="Layer_1" xmlns="http://www.w3.org/2000/svg" xmlns:xlink="http://www.w3.org/1999/xlink" x="0px" y="0px"
	 viewBox="0 0 64 64" style="enable-background:new 0 0 64 64;" xml:space="preserve">
<style type="text/css">
	.st0{fill:#AF5724;}
</style>
<g id="Vrstva_3_kopie">
	<g>
		<path class="st0" d="M42,18.7c0-2.7-2.3-4.9-5.1-4.9c-0.7,0-1.4,0.1-2,0.4C33.7,12.9,32,12,30,12c-1.9,0-3.6,0.8-4.8,2
			c-0.2,0-0.5,0-0.7,0c0,0,0,0,0,0c-0.4-0.1-0.9-0.2-1.4-0.2c-2.8,0-5.1,2.2-5.1,4.9c0,0,0,0.1,0,0.1c0,0.1,0,0.1,0,0.2
			c0,2.8,2.9,5,6.5,5c3.1,0,5.8-1.7,6.4-4h10.9C41.9,19.6,42,19.2,42,18.7z"/>
	</g>
	<g>
		<path class="st0" d="M48,26h-6v-4h-9.4c-1.6,2.4-4.7,4-8.3,4c-1.6,0-3.1-0.3-4.4-0.9V48c0,2.2,1.8,4,4,4h14c2.2,0,4-1.8,4-4v-2h6
			c1.1,0,2-0.9,2-2V28C50,26.9,49.1,26,48,26z M46,42h-4V30h4V42z"/>
	</g>
</g>
</svg>
