<?xml version="1.0" encoding="utf-8"?>
<!-- Generator: Adobe Illustrator 27.0.0, SVG Export Plug-In . SVG Version: 6.00 Build 0)  -->
<svg version="1.1" id="Layer_1" xmlns="http://www.w3.org/2000/svg" xmlns:xlink="http://www.w3.org/1999/xlink" x="0px" y="0px"
	 viewBox="0 0 64 64" style="enable-background:new 0 0 64 64;" xml:space="preserve">
<style type="text/css">
	.st0{fill:#8763BA;}
</style>
<g id="Vrstva_3_kopie">
	<g>
		<g>
			<path class="st0" d="M32,12c-11,0-20,9-20,20s9,20,20,20s20-9,20-20S43,12,32,12z M32.3,27.7v2.9h-9.3c-0.1,0.5-0.1,1-0.1,1.4
				s0,1,0.1,1.4h9.3v2.9H24c1.6,3,4.7,5.1,8.3,5.1c2.3,0,4.5-0.8,6.1-2.3l2.6,2.6c-2.3,2.1-5.3,3.3-8.7,3.3
				c-5.7,0-10.5-3.6-12.2-8.7H15v-2.9h4.4c-0.1-0.5-0.1-1-0.1-1.4c0-0.5,0-1,0.1-1.4H15v-2.9h5.1c1.8-5,6.6-8.7,12.2-8.7
				c3.3,0,6.4,1.3,8.7,3.3l-2.6,2.6c-1.6-1.4-3.8-2.3-6.1-2.3c-3.6,0-6.8,2-8.3,5.1C24,27.7,32.3,27.7,32.3,27.7z"/>
		</g>
	</g>
</g>
</svg>
