<?xml version="1.0" encoding="utf-8"?>
<!-- Generator: Adobe Illustrator 27.0.0, SVG Export Plug-In . SVG Version: 6.00 Build 0)  -->
<svg version="1.1" id="Layer_1" xmlns="http://www.w3.org/2000/svg" xmlns:xlink="http://www.w3.org/1999/xlink" x="0px" y="0px"
	 viewBox="0 0 48 48" style="enable-background:new 0 0 48 48;" xml:space="preserve">
<style type="text/css">
	.st0{fill:#755741;}
</style>
<path class="st0" d="M41.1,43H36c-0.9,0-1.7-0.6-1.7-1.5l1.5-35.2c0.1-0.4,0.2-0.7,0.5-0.9C36.6,5.1,37,5,37.3,5h2.4
	c0.4,0,0.7,0.1,1,0.4s0.4,0.6,0.5,0.9l1.5,35.2C42.8,42.4,42.1,43,41.1,43z M33,22.6c-0.2-0.5-0.6-0.9-1-1.1l-11-8
	c-0.6-0.4-1.2-0.6-1.8-0.6c-0.7,0-1.3,0.2-1.8,0.6L6.2,21.4c-0.4,0.3-0.7,0.7-1,1.1C5,23,4.9,23.5,4.9,24v17.3
	c0,0.5,0.1,0.8,0.4,1.1s0.7,0.4,1.1,0.4h25.3c0.5,0,0.8-0.1,1.1-0.4c0.3-0.3,0.4-0.7,0.4-1.1V24C33.4,23.5,33.3,23,33,22.6z
	 M19.6,17.4l1.9,1.9c-1.9,1.3-2.1,3.2-2.1,4.6l-0.6,0.7C17.7,21.6,18.5,18.6,19.6,17.4z M19.2,25.6c1.1,0,2,1,2,2.3s-0.9,2.3-2,2.3
	s-2-1-2-2.3S18.1,25.6,19.2,25.6z M12.7,27.9c0-1.3,0.9-2.3,2-2.3s2,1,2,2.3s-0.9,2.3-2,2.3C13.5,30.3,12.7,29.2,12.7,27.9z
	 M14.7,32.8c0-1.3,0.9-2.3,2-2.3s2,1,2,2.3s-0.9,2.3-2,2.3S14.7,34,14.7,32.8z M19.2,39.9c-1.1,0-2-1-2-2.3s0.9-2.3,2-2.3s2,1,2,2.3
	S20.3,39.9,19.2,39.9z M21.6,35.1c-1.1,0-2-1-2-2.3s0.9-2.3,2-2.3s2,1,2,2.3C23.6,34,22.7,35.1,21.6,35.1z M23.7,30.3
	c-1.1,0-2-1-2-2.3s0.9-2.3,2-2.3s2,1,2,2.3C25.7,29.2,24.8,30.3,23.7,30.3z"/>
</svg>
