<?xml version="1.0" encoding="utf-8"?>
<!-- Generator: Adobe Illustrator 27.0.0, SVG Export Plug-In . SVG Version: 6.00 Build 0)  -->
<svg version="1.1" id="Vrstva_3" xmlns="http://www.w3.org/2000/svg" xmlns:xlink="http://www.w3.org/1999/xlink" x="0px" y="0px"
	 viewBox="0 0 48 48" enable-background="new 0 0 48 48" xml:space="preserve">
<path fill="#488BC2" d="M44,35c-2.221,0-3.46-0.74-4.359-1.279C38.9,33.279,38.439,33,37.34,33c-1.119,0-1.561,0.26-2.3,0.721
	C34.12,34.26,32.9,35,30.68,35c-2.22,0-3.459-0.74-4.359-1.279C25.58,33.279,25.12,33,24.02,33c-1.119,0-1.56,0.26-2.299,0.721
	C20.8,34.26,19.56,35,17.34,35c-2.22,0-3.46-0.74-4.359-1.279C12.24,33.26,11.779,33,10.68,33c-1.1,0-1.56,0.26-2.3,0.721
	C7.46,34.26,6.22,35,4,35v-4c1.12,0,1.56-0.26,2.3-0.721C7.22,29.74,8.46,29,10.68,29c2.221,0,3.461,0.74,4.36,1.279
	C15.779,30.74,16.221,31,17.34,31c1.12,0,1.561-0.26,2.301-0.721C20.56,29.74,21.8,29,24.02,29c2.221,0,3.461,0.74,4.36,1.279
	c0.74,0.441,1.2,0.721,2.3,0.721c1.1,0,1.56-0.26,2.301-0.721C33.88,29.74,35.12,29,37.34,29c2.221,0,3.46,0.74,4.36,1.279
	C42.439,30.74,42.88,31,44,31V35z M44,26c-2.221,0-3.46-0.74-4.359-1.279C38.9,24.279,38.439,24,37.34,24
	c-1.119,0-1.561,0.26-2.3,0.721C34.141,25.26,32.9,26,30.68,26c-2.22,0-3.459-0.74-4.359-1.279C25.58,24.279,25.12,24,24.02,24
	c-1.119,0-1.56,0.26-2.299,0.721C20.82,25.26,19.58,26,17.359,26C15.141,26,13.9,25.26,13,24.721C12.26,24.279,11.8,24,10.7,24
	c-1.101,0-1.56,0.26-2.3,0.721C7.46,25.26,6.22,26,4,26v-4c1.12,0,1.56-0.26,2.3-0.721C7.2,20.74,8.439,20,10.66,20
	c2.22,0,3.46,0.74,4.359,1.279C15.76,21.721,16.221,22,17.32,22c1.119,0,1.56-0.26,2.3-0.721C20.52,20.74,21.76,20,23.98,20
	c2.22,0,3.459,0.74,4.359,1.279C29.08,21.721,29.54,22,30.641,22c1.1,0,1.56-0.26,2.299-0.721C33.84,20.74,35.08,20,37.3,20
	s3.46,0.74,4.36,1.279C42.4,21.721,42.859,22,43.96,22v4H44z M44,17c-2.221,0-3.46-0.74-4.359-1.279C38.9,15.279,38.439,15,37.34,15
	c-1.119,0-1.561,0.26-2.3,0.721C34.141,16.26,32.9,17,30.68,17c-2.22,0-3.459-0.74-4.359-1.279C25.58,15.279,25.12,15,24.02,15
	c-1.119,0-1.56,0.26-2.299,0.721C20.82,16.26,19.58,17,17.359,17C15.141,17,13.9,16.26,13,15.721C12.26,15.279,11.8,15,10.7,15
	c-1.101,0-1.56,0.26-2.3,0.721C7.46,16.26,6.22,17,4,17v-4c1.12,0,1.56-0.26,2.3-0.721C7.2,11.74,8.439,11,10.66,11
	c2.22,0,3.46,0.74,4.359,1.279C15.76,12.721,16.221,13,17.32,13c1.119,0,1.56-0.26,2.3-0.721C20.52,11.74,21.76,11,23.98,11
	c2.22,0,3.459,0.74,4.359,1.279C29.08,12.721,29.54,13,30.641,13c1.1,0,1.56-0.26,2.299-0.721C33.84,11.74,35.08,11,37.3,11
	s3.46,0.74,4.36,1.279C42.4,12.721,42.859,13,43.96,13v4H44z"/>
<g>
</g>
<g>
</g>
<g>
</g>
<g>
</g>
<g>
</g>
<g>
</g>
</svg>
