<?xml version="1.0" encoding="utf-8"?>
<!-- Generator: Adobe Illustrator 27.0.0, SVG Export Plug-In . SVG Version: 6.00 Build 0)  -->
<svg version="1.1" id="Layer_1" xmlns="http://www.w3.org/2000/svg" xmlns:xlink="http://www.w3.org/1999/xlink" x="0px" y="0px"
	 viewBox="0 0 64 64" style="enable-background:new 0 0 64 64;" xml:space="preserve">
<style type="text/css">
	.st0{fill:#755741;}
</style>
<path id="Vrstva_3_kopie" class="st0" d="M52,50c-2.2,0-3.5-0.7-4.4-1.3c-0.7-0.4-1.2-0.7-2.3-0.7s-1.6,0.3-2.3,0.7
	c-0.9,0.5-2.1,1.3-4.4,1.3s-3.5-0.7-4.4-1.3C33.6,48.3,33.1,48,32,48c-1.1,0-1.6,0.3-2.3,0.7c-0.9,0.5-2.2,1.3-4.4,1.3
	s-3.5-0.7-4.4-1.3c-0.7-0.5-1.2-0.7-2.3-0.7c-1.1,0-1.6,0.3-2.3,0.7C15.5,49.3,14.2,50,12,50v-4c1.1,0,1.6-0.3,2.3-0.7
	c0.9-0.5,2.2-1.3,4.4-1.3s3.5,0.7,4.4,1.3c0.7,0.5,1.2,0.7,2.3,0.7c1.1,0,1.6-0.3,2.3-0.7c0.9-0.5,2.2-1.3,4.4-1.3s3.5,0.7,4.4,1.3
	c0.7,0.4,1.2,0.7,2.3,0.7s1.6-0.3,2.3-0.7c0.9-0.5,2.1-1.3,4.4-1.3c2.2,0,3.5,0.7,4.4,1.3c0.7,0.5,1.2,0.7,2.3,0.7v4H52z M47.9,31
	c-0.4-2.9-1.5-5.6-3.2-7.8l1.5-1.5l-2.8-2.8l-1.5,1.5c-2.2-1.7-4.9-2.9-7.8-3.2V15h-4v2.1c-2.9,0.4-5.6,1.5-7.8,3.2l-1.5-1.5
	L18,21.6l1.5,1.5c-1.7,2.2-2.9,4.9-3.2,7.8H14v4h2.1c0.2,1.8,0.8,3.5,1.5,5.1c0.3,0,0.7-0.1,1-0.1c2.2,0,3.5,0.7,4.4,1.3
	c0.7,0.5,1.2,0.7,2.3,0.7c0.2,0,0.4,0,0.5,0l4.1-4.1v2.4c0.6-0.1,1.2-0.2,2-0.2c0.8,0,1.4,0.1,2,0.2v-2.4l4.1,4.1c0.2,0,0.3,0,0.5,0
	c1.1,0,1.6-0.3,2.3-0.7c0.9-0.5,2.1-1.3,4.4-1.3c0.4,0,0.7,0,1,0.1c0.8-1.6,1.3-3.3,1.5-5.1H50v-4L47.9,31L47.9,31z M34,21.2
	c1.8,0.3,3.5,1,4.9,2l-4.9,5V21.2z M30,21.2v7l-4.9-4.9C26.5,22.2,28.2,21.5,30,21.2z M22.2,39.9c-1-1.4-1.7-3.1-2-4.9h7L22.2,39.9z
	 M20.2,31c0.3-1.8,1-3.5,2-4.9l4.9,4.9H20.2z M32,36c-1.7,0-3-1.3-3-3s1.3-3,3-3s3,1.3,3,3S33.7,36,32,36z M41.8,39.9l-5-4.9h7
	C43.5,36.8,42.8,38.5,41.8,39.9z M36.8,31l4.9-4.9c1,1.4,1.7,3.1,2,4.9H36.8z"/>
</svg>
