<?xml version="1.0" encoding="utf-8"?>
<!-- Generator: Adobe Illustrator 27.0.0, SVG Export Plug-In . SVG Version: 6.00 Build 0)  -->
<svg version="1.1" id="Layer_1" xmlns="http://www.w3.org/2000/svg" xmlns:xlink="http://www.w3.org/1999/xlink" x="0px" y="0px"
	 viewBox="0 0 64 64" style="enable-background:new 0 0 64 64;" xml:space="preserve">
<style type="text/css">
	.st0{fill:#E00052;}
</style>
<path class="st0" d="M19.6,9.3c-0.9-0.9-0.9-2.4,0-3.4C20.5,5,22,5,23,5.9c0.9,0.9,0.9,2.4,0,3.4C22,10.2,20.5,10.2,19.6,9.3z
	 M21.6,11.2c-1.5,0-2.7,1.2-2.7,2.7v6.9c0,2,1.6,3.6,3.6,3.6h3.6v8.3h2.4l0,0v-12h-4.1v-8.3C24.4,12.3,23.2,11.2,21.6,11.2
	 M55.6,36.2l-5.2,5.2c0.4,0.9,0.7,2,0.7,3.1s-0.3,2.1-0.7,3.1l5.2,5.2c1.7-2.3,2.6-5.2,2.6-8.3C58.2,41.4,57.2,38.6,55.6,36.2z
	 M40.8,38.1c0.9-0.5,2-0.7,3.1-0.7s2.1,0.3,3.1,0.7l5.2-5.2c-2.3-1.7-5.2-2.7-8.3-2.7s-5.9,1-8.3,2.7L40.8,38.1z M37.5,47.6
	c-0.4-0.9-0.7-2-0.7-3.1s0.3-2.1,0.7-3.1l-5.2-5.2c-1.7,2.3-2.7,5.2-2.7,8.3s1,5.9,2.7,8.3L37.5,47.6z M47,50.9
	c-0.9,0.4-2,0.7-3.1,0.7s-2.1-0.3-3.1-0.7l-5.2,5.2c2.3,1.7,5.2,2.7,8.3,2.7s5.9-1,8.3-2.7L47,50.9z M28.4,33.8H17.6l0.7-2.4h5.3
	v-4.8h-7.1V13.5h-4.8v17.9h1.6l-0.7,2.4h-2.2v4.8h0.8L10.5,41H8.2v4.8h1.2l-0.7,2.4h-3V53h1.6l-1.6,6h4.8l5.7-20.3h12.1L28.4,33.8
	L28.4,33.8z"/>
</svg>
