<svg xmlns="http://www.w3.org/2000/svg" xml:space="preserve" style="enable-background:new 0 0 64 64" viewBox="0 0 64 64"><path d="M12 38s4 14 20 14 20-14 20-14H12zm28 8.5c-2.6 0-4.2-1.1-5.5-1.9-1-.7-1.7-1.1-2.5-1.1s-1.2.3-2 1c-1 .9-2.3 2-5 2-4.9 0-7-3.4-7.5-5.1l2.9-.7c.1.3.9 2.9 4.5 2.9 1.6 0 2.2-.6 3.1-1.3.9-.8 2-1.7 3.9-1.7 1.8 0 3.1.8 4.2 1.6s2.1 1.4 3.8 1.4c3 0 4.6-3.1 4.7-3.2l2.7 1.3c-.1.2-2.4 4.8-7.3 4.8zM26.1 33.7l-2.2-3.3c.1 0 2.1-1.5 2.1-4.3 0-1.3-.4-1.9-1.1-2.8-.8-1.2-1.9-2.6-1.9-5.3 0-5.2 4.9-7.7 5.1-7.8l1.8 3.6L29 12l.9 1.8S27 15.3 27 18c0 1.3.4 1.9 1.1 2.8.8 1.1 1.9 2.5 1.9 5.2 0 5-3.7 7.6-3.9 7.7zm9 0-2.2-3.3c.1 0 2.1-1.5 2.1-4.3 0-3.2-1.5-4.7-2.4-5.6l2.8-2.8c1.1 1.1 3.6 3.6 3.6 8.4 0 4.9-3.7 7.5-3.9 7.6z" style="fill:#e00052"/></svg>