<?xml version="1.0" encoding="utf-8"?>
<!-- Generator: Adobe Illustrator 27.0.0, SVG Export Plug-In . SVG Version: 6.00 Build 0)  -->
<svg version="1.1" id="Layer_1" xmlns="http://www.w3.org/2000/svg" xmlns:xlink="http://www.w3.org/1999/xlink" x="0px" y="0px"
	 viewBox="0 0 64 64" style="enable-background:new 0 0 64 64;" xml:space="preserve">
<style type="text/css">
	.st0{fill:#AF5724;}
</style>
<path id="Vrstva_3_kopie" class="st0" d="M18,35c0-1.1,0.9-2,2-2h12v4H20C18.9,37,18,36.1,18,35z M32,45H20c-1.1,0-2,0.9-2,2
	s0.9,2,2,2h6h6V45z M20,43h12v-4H20c-1.1,0-2,0.9-2,2S18.9,43,20,43z M32,31H19.3l-3.9,3.5c-0.8,0.7-2.1,0.7-2.8-0.2
	c-0.7-0.8-0.7-2.1,0.2-2.8l18-16C31,15.2,31.5,15,32,15V31z M52,40v9H34V11h6v21L52,40z M48,43c0,0,0-4-5-4s-5,4-5,4v2h10V43z"/>
</svg>
