<?xml version="1.0" encoding="utf-8"?>
<!-- Generator: Adobe Illustrator 15.0.2, SVG Export Plug-In . SVG Version: 6.00 Build 0)  -->
<!DOCTYPE svg PUBLIC "-//W3C//DTD SVG 1.1//EN" "http://www.w3.org/Graphics/SVG/1.1/DTD/svg11.dtd">
<svg version="1.1" xmlns="http://www.w3.org/2000/svg" xmlns:xlink="http://www.w3.org/1999/xlink" x="0px" y="0px" width="64px"
	 height="64px" viewBox="0 0 64 64" enable-background="new 0 0 64 64" xml:space="preserve">
<g id="Vrstva_3">
	<g>
		<path fill="#755741" d="M50,12v2h-2v-2h-2v2h-2v-2h-2v2h-2v-2h-2v2v6h2v8.923L32,24l-8,4.923V20h2v-6v-2h-2v2h-2v-2h-2v2h-2v-2h-2
			v2h-2v-2h-2v2v6h2v32h5h5h4v-8c0-2.209,1.791-4,4-4s4,1.791,4,4v8h4h5h5V20h2v-6v-2H50z M18,27v-7h2v7H18z M46,27h-2v-7h2V27z"/>
	</g>
</g>
<g id="Vrstva_2">
</g>
</svg>
