<?xml version="1.0" encoding="UTF-8"?>
<svg id="Layer_2_00000115477331798411180550000000471861229391451025_" width="32" height="32" version="1.1" viewBox="0 0 32 32" xml:space="preserve" xmlns="http://www.w3.org/2000/svg">
<style type="text/css">
	.st0{fill:#4F4F4F;}
</style>
<path class="st0" d="m27.156 12.088c1.3039 0 2.3776 1.0592 2.3776 2.3455 0 1.2862-1.0738 2.3455-2.3776 2.3455s-2.3776-0.98358-2.3776-2.3455c0-1.2862 1.0738-2.3455 2.3776-2.3455zm-18.484 14.754 6.0592-0.90792c0.1534 0 0.99708-0.30264 1.2272-0.52962l0.2301-0.15132c0.69028-0.45396 0.99708-1.2106 0.69028-1.6645l-1.9942-2.8751h2.4543 4.065l7.5931 5.5988c0.84368 0.68094 1.9175 0.7566 2.3009 0.15132l0.1534-0.15132c0.38349-0.52962 0.0767-1.5132-0.84368-2.1941l-6.8261-5.0692v-3.556l-2.4543-4.9936 4.065-3.2534c0.46019-0.3783 0.46019-1.0592 0-1.5889l-0.1534-0.15132c-0.46019-0.52962-1.1505-0.68094-1.6107-0.30264 0 0-4.832 3.8587-4.9087 4.01-0.46019 0.45396-0.69028 0.90792-0.46019 1.4375l1.8408 3.8587h-2.8378-1.2272l-2.3009-0.22698-5.3689-1.4375-5.0621-3.8587c-0.53689-0.3783-1.3806-0.22698-1.8408 0.45396l-0.1534 0.22698c-0.53689 0.68094-0.46019 1.5132 0 1.8915l5.2922 4.01c0.0767 0.07565 0.2301 0.15132 0.38349 0.15132 0.0767 0.07568 0.1534 0.15132 0.30679 0.15132l3.0679 0.83226c-0.0767 0.30264-0.0767 0.68094-0.0767 1.0592v0.3783c0 1.2106 0.46019 2.4211 0.53689 2.4968l1.6107 2.3455-4.2951 0.68094c-0.61359 0.07565-0.99708 0.83226-0.84368 1.6645l0.0767 0.22698c0.0767 0.83226 0.69028 1.4375 1.3039 1.2862z" stroke-width=".76177"/>
</svg>
