<?xml version="1.0" encoding="utf-8"?>
<!-- Generator: Adobe Illustrator 27.0.0, SVG Export Plug-In . SVG Version: 6.00 Build 0)  -->
<svg version="1.1" id="Layer_1" xmlns="http://www.w3.org/2000/svg" xmlns:xlink="http://www.w3.org/1999/xlink" x="0px" y="0px"
	 viewBox="0 0 64 64" style="enable-background:new 0 0 64 64;" xml:space="preserve">
<style type="text/css">
	.st0{fill:#488BC2;}
</style>
<path id="Vrstva_3_kopie" class="st0" d="M46,10.2L18,23.3c-1.1,0.5-2,1.8-2,2.9v15c0,1.1,0.9,1.6,2,1.1l28-13.1
	c1.1-0.5,2-1.8,2-2.9v-15C48,10.2,47.1,9.7,46,10.2z M26,36.1l-8,3.7v-13l8-3.7V36.1z M36,31.4l-8,3.7v-13l8-3.7V31.4z M46,26.7
	l-8,3.7v-13l8-3.7V26.7z M52.1,29.2L51,29.8V29h-3v2.2l-3,1.5V32h-3v2.1l-3,1.5V35h-3v2.1l-3,1.5V38h-3v2l-3,1.5V41h-3v1.9l-3,1.5
	V44h-3v1.8l-2,1V46h-3v2.3l-1.9,0.9l1.8,3.6l41-20L52.1,29.2z"/>
</svg>
