<?xml version="1.0" encoding="utf-8"?>
<!-- Generator: Adobe Illustrator 27.0.0, SVG Export Plug-In . SVG Version: 6.00 Build 0)  -->
<svg version="1.1" id="Vrstva_3" xmlns="http://www.w3.org/2000/svg" xmlns:xlink="http://www.w3.org/1999/xlink" x="0px" y="0px"
	 viewBox="0 0 48 48" style="enable-background:new 0 0 48 48;" xml:space="preserve">
<style type="text/css">
	.st0{fill:#755741;}
</style>
<path class="st0" d="M17.2,4l-2.7,0.1c-11.1,6.4,9,7.4-3.4,15l2.4,0C25.1,10.9,4.9,10.4,17.2,4z M27.1,4l-2.7,0.1
	c-11.1,6.4,9,7.4-3.4,15l2.4,0C35.1,10.9,14.8,10.4,27.1,4z M37,4l-2.7,0.1c-11.1,6.4,9,7.4-3.4,15l2.4,0C45,10.9,24.8,10.4,37,4z
	 M8.6,22.8c0,7.1,0,14.2,0,21.2h4.2v-5h22.5v5h4.2c0-7.2,0-14.9,0-21.2H8.6z M12.7,26.3h22.5v8.8H12.8v-4.3h0L12.7,26.3z M17.1,28.1
	c-1.4,0-2.6,1.1-2.6,2.6c0,1.4,1.1,2.6,2.6,2.6s2.6-1.1,2.6-2.6C19.7,29.3,18.6,28.1,17.1,28.1z M24,28.1c-1.4,0-2.6,1.1-2.6,2.6
	c0,1.4,1.1,2.6,2.6,2.6s2.6-1.1,2.6-2.6S25.4,28.1,24,28.1z M30.9,28.2c-1.4,0-2.6,1.1-2.6,2.6s1.1,2.6,2.6,2.6
	c1.4,0,2.6-1.1,2.6-2.6C33.4,29.3,32.3,28.2,30.9,28.2z"/>
</svg>
