<?xml version="1.0" encoding="utf-8"?>
<!-- Generator: Adobe Illustrator 27.0.0, SVG Export Plug-In . SVG Version: 6.00 Build 0)  -->
<svg version="1.1" id="Vrstva_1" xmlns="http://www.w3.org/2000/svg" xmlns:xlink="http://www.w3.org/1999/xlink" x="0px" y="0px"
	 viewBox="0 0 64 64" style="enable-background:new 0 0 64 64;" xml:space="preserve">
<style type="text/css">
	.st0{fill:#488BC2;}
</style>
<path id="Vrstva_3_kopie" class="st0" d="M10,41c0,1.8,0.8,3.3,2,4.4V49c0,1.1,0.9,2,2,2h2c1.1,0,2-0.9,2-2v-2h16v2c0,1.1,0.9,2,2,2
	h2c1.1,0,2-0.9,2-2v-3.6c1.2-1.1,2-2.7,2-4.4V21c0-7-7.2-8-16-8s-16,1-16,8V41z M17,43c-1.7,0-3-1.3-3-3s1.3-3,3-3s3,1.3,3,3
	S18.7,43,17,43z M35,43c-1.7,0-3-1.3-3-3s1.3-3,3-3s3,1.3,3,3S36.7,43,35,43z M38,31H14V21h24V31z M56,18c0-3.3-2.7-6-6-6
	s-6,2.7-6,6c0,2.6,1.7,4.8,4,5.7V51h4V23.7C54.3,22.8,56,20.6,56,18z"/>
</svg>
