<?xml version="1.0" encoding="UTF-8" standalone="no"?>
<svg
   width="26"
   height="26"
   enable-background="new 0 0 48 48"
   version="1.1"
   viewBox="0 0 26 26"
   xml:space="preserve"
   id="svg12"
   sodipodi:docname="poi_one_way_cycle_opposite.svg"
   inkscape:version="1.1 (c68e22c387, 2021-05-23)"
   xmlns:inkscape="http://www.inkscape.org/namespaces/inkscape"
   xmlns:sodipodi="http://sodipodi.sourceforge.net/DTD/sodipodi-0.dtd"
   xmlns="http://www.w3.org/2000/svg"
   xmlns:svg="http://www.w3.org/2000/svg"
   xmlns:rdf="http://www.w3.org/1999/02/22-rdf-syntax-ns#"
   xmlns:cc="http://creativecommons.org/ns#"
   xmlns:dc="http://purl.org/dc/elements/1.1/"><defs
     id="defs16" /><sodipodi:namedview
     id="namedview14"
     pagecolor="#ffffff"
     bordercolor="#111111"
     borderopacity="1"
     inkscape:pageshadow="0"
     inkscape:pageopacity="0"
     inkscape:pagecheckerboard="1"
     showgrid="false"
     inkscape:zoom="14.057692"
     inkscape:cx="-0.035567715"
     inkscape:cy="21.589603"
     inkscape:window-width="1920"
     inkscape:window-height="1009"
     inkscape:window-x="1912"
     inkscape:window-y="-8"
     inkscape:window-maximized="1"
     inkscape:current-layer="svg12" /><metadata
     id="metadata2"><rdf:RDF><cc:Work
         rdf:about=""><dc:format>image/svg+xml</dc:format><dc:type
           rdf:resource="http://purl.org/dc/dcmitype/StillImage" /></cc:Work></rdf:RDF></metadata><g
     id="g10"
     transform="matrix(1.0000133,0,0,-0.99996879,-1.9488253e-6,19.010793)">
<polygon
   transform="matrix(-0.28414,0,0,-0.12771,12.649,5.2752)"
   points="28,40 28,30 4,30 4,18 28,18 28,8 44,24 "
   fill="#999999"
   id="polygon4" />
<path
   d="m 8.0402,5.0349 c 0.63216,0 1.1469,0.55012 1.1469,1.2295 0,0.67768 -0.51472,1.2295 -1.1469,1.2295 -0.63272,0 -1.148,-0.55181 -1.148,-1.2295 0,-0.6788 0.51472,-1.2295 1.148,-1.2295 m 0,2.986 c 0.90357,0 1.6386,-0.78613 1.6386,-1.7566 0,-0.97156 -0.73555,-1.756 -1.6386,-1.756 -0.90413,0 -1.6391,0.78613 -1.6391,1.756 0,0.96931 0.73499,1.7566 1.6391,1.7566 M 4.8271,8.7233 H 3.451 v 0.63104 h 1.0485 l 0.63609,1.1503 c 0.094403,0.17588 0.28152,0.2922 0.47876,0.2922 0.1534,0 0.29445,-0.06687 0.39334,-0.17588 l 1.2126,-1.2969 C 7.32312,9.21617 7.38437,9.07457 7.38437,8.89869 7.38437,8.67786 7.27592,8.49298 7.10678,8.38285 L 6.00768,7.66921 v -1.756 H 5.41766 v 2.2831 l 0.7378,0.57934 -0.7614,0.82546 m -1.9431,-4.5662 c 0.63216,0 1.1469,0.55012 1.1469,1.2295 0,0.67768 -0.51472,1.2295 -1.1469,1.2295 -0.63272,0 -1.1474,-0.55181 -1.1474,-1.2295 0,-0.6788 0.51472,-1.2295 1.1474,-1.2295 m 0,2.986 c 0.90357,0 1.6391,-0.78725 1.6391,-1.7566 0,-0.96987 -0.73499,-1.756 -1.6391,-1.756 -0.90413,0 -1.6391,0.78613 -1.6391,1.756 0,0.96931 0.73499,1.7566 1.6391,1.7566 m 0.98336,2.5286 c -0.32816,0 -0.59058,0.28152 -0.59058,0.63272 0,0.3512 0.26242,0.63104 0.59058,0.63104 0.3276,0 0.59002,-0.27984 0.59002,-0.63104 0,-0.3512 -0.26242,-0.63272 -0.59002,-0.63272 z"
   fill="#999999"
   stroke="#999999"
   stroke-width="0.19579"
   id="path6" /><polygon
   transform="matrix(0.29039,0,0,0.20574,12.976,0.93712)"
   points="28,30 4,30 4,18 28,18 28,8 44,24 28,40 "
   fill="#747474"
   stroke="#747474"
   id="polygon8" /></g></svg>
