<?xml version="1.0" encoding="UTF-8"?>
<svg width="24" height="24" version="1.1" xmlns="http://www.w3.org/2000/svg">
 <path d="m5.5827 3.4735c-1.7679 0-3.2073 1.5385-3.2073 3.4384 0 1.8952 1.4394 3.4384 3.2073 3.4384 1.7694 0 3.2104-1.5432 3.2104-3.4384 0-1.8983-1.4394-3.4384-3.2104-3.4384m0 8.3507c-2.5269 0-4.5823-2.1985-4.5823-4.9124 0-2.7171 2.057-4.9108 4.5823-4.9108 2.5284 0 4.5839 2.1985 4.5839 4.9108 0 2.7108-2.0554 4.9124-4.5839 4.9124m8.9854 1.9643h3.8484v1.7648h-2.9323l-1.7789 3.2168c-0.264 0.49187-0.78729 0.81716-1.3389 0.81716-0.429 0-0.82343-0.187-1.1-0.49187l-3.3911-3.6269c-0.28757-0.30172-0.45886-0.69773-0.45886-1.1896 0-0.61758 0.30329-1.1346 0.77629-1.4426l3.0737-1.9958v-4.9108h1.65v6.3848l-2.0633 1.6202 2.1293 2.3085m5.434-12.77c-1.7679 0-3.2073 1.5385-3.2073 3.4384 0 1.8952 1.4394 3.4384 3.2073 3.4384 1.7694 0 3.2089-1.5432 3.2089-3.4384 0-1.8983-1.4394-3.4384-3.2089-3.4384m0 8.3507c-2.5269 0-4.5839-2.2016-4.5839-4.9124 0-2.7123 2.0554-4.9108 4.5839-4.9108 2.5284 0 4.5839 2.1985 4.5839 4.9108 0 2.7108-2.0554 4.9124-4.5839 4.9124m-2.75 7.0716c0.91771 0 1.6516 0.7873 1.6516 1.7695 0 0.98216-0.73386 1.7648-1.6516 1.7648-0.91614 0-1.65-0.78259-1.65-1.7648 0-0.98216 0.73386-1.7695 1.65-1.7695z" fill="#be1dc6" stroke-width="1.5714"/>
 <rect width="200" height="25" fill="none"/>
</svg>
