<?xml version="1.0" encoding="utf-8"?>
<!-- Generator: Adobe Illustrator 27.0.0, SVG Export Plug-In . SVG Version: 6.00 Build 0)  -->
<svg version="1.1" id="Layer_1" xmlns="http://www.w3.org/2000/svg" xmlns:xlink="http://www.w3.org/1999/xlink" x="0px" y="0px"
	 viewBox="0 0 64 64" style="enable-background:new 0 0 64 64;" xml:space="preserve">
<style type="text/css">
	.st0{fill:#488BC2;}
</style>
<path class="st0" d="M35.9,33.7c1.2,0,2.2-1,2.2-2.2c0-1.2-1-2.2-2.2-2.2s-2.2,1-2.2,2.2C33.7,32.7,34.7,33.7,35.9,33.7z M24.2,40.9
	c-3.1,0-5.6,2.4-5.6,5.6c0,3.1,2.4,5.6,5.6,5.6s5.6-2.4,5.6-5.6C29.8,43.3,27.3,40.9,24.2,40.9z M24.2,50.3c-2.1,0-3.9-1.8-3.9-3.9
	c0-2.1,1.8-3.9,3.9-3.9s3.9,1.8,3.9,3.9C28.1,48.6,26.3,50.3,24.2,50.3z M30.7,39.2l2.7-2.7l0.9,0.9c1.4,1.4,3.3,2.3,5.7,2.3v-2.2
	c-1.7,0-3-0.7-4-1.7l-2.1-2.1c-0.6-0.4-1.1-0.7-1.8-0.7c-0.7,0-1.2,0.2-1.6,0.7l-3.1,3.1c-0.4,0.4-0.7,1-0.7,1.6
	c0,0.7,0.2,1.2,0.7,1.6l3.6,3.1v5.6h2.2v-6.9L30.7,39.2z M39.8,40.9c-3.1,0-5.6,2.4-5.6,5.6c0,3.1,2.4,5.6,5.6,5.6s5.6-2.4,5.6-5.6
	C45.3,43.3,42.9,40.9,39.8,40.9z M39.8,50.3c-2.1,0-3.9-1.8-3.9-3.9c0-2.1,1.8-3.9,3.9-3.9c2.1,0,3.9,1.8,3.9,3.9
	C43.7,48.6,41.9,50.3,39.8,50.3z M32,12h-7.8v20h4.4v-6.7H32c3.7,0,6.7-3,6.7-6.7S35.7,12,32,12z M32.2,20.9h-3.6v-4.4h3.6
	c1.2,0,2.2,1,2.2,2.2C34.4,19.9,33.4,20.9,32.2,20.9z"/>
</svg>
