<?xml version="1.0" encoding="utf-8"?>
<!-- Generator: Adobe Illustrator 27.0.0, SVG Export Plug-In . SVG Version: 6.00 Build 0)  -->
<svg version="1.1" id="Layer_1" xmlns="http://www.w3.org/2000/svg" xmlns:xlink="http://www.w3.org/1999/xlink" x="0px" y="0px"
	 viewBox="0 0 64 64" style="enable-background:new 0 0 64 64;" xml:space="preserve">
<style type="text/css">
	.st0{fill:#488BC2;}
</style>
<g id="Vrstva_3_kopie">
	<g>
		<path class="st0" d="M42.4,31.5c-0.3-0.9-1.1-1.5-2.1-1.5H23.8c-1,0-1.8,0.6-2.1,1.5l-3.1,9v12c0,0.8,0.7,1.5,1.5,1.5h1.5
			c0.8,0,1.5-0.7,1.5-1.5V51h18v1.5c0,0.8,0.7,1.5,1.5,1.5H44c0.8,0,1.5-0.7,1.5-1.5v-12L42.4,31.5z M23.8,46.5
			c-1.2,0-2.3-1-2.3-2.2c0-1.2,1-2.3,2.3-2.3c1.2,0,2.2,1,2.2,2.3C26,45.5,25,46.5,23.8,46.5z M40.2,46.5c-1.2,0-2.2-1-2.2-2.2
			c0-1.2,1-2.3,2.2-2.3s2.3,1,2.3,2.3C42.5,45.5,41.5,46.5,40.2,46.5z M21.5,39l2.3-6.8h16.5l2.3,6.8H21.5z"/>
	</g>
	<g>
		<path class="st0" d="M48.7,15.3H30.9c-1.4-3.1-4.5-5.3-8.2-5.3c-3.9,0-7.3,2.6-8.5,6h8.4v5.9L14,22c1.2,3.5,4.6,6,8.5,6
			c3.7,0,6.9-2.2,8.2-5.3h17.8c0.8,0,1.4-0.6,1.4-1.4v-4.5C50.1,15.9,49.4,15.2,48.7,15.3z"/>
	</g>
</g>
</svg>
