<?xml version="1.0" encoding="utf-8"?>
<!-- Generator: Adobe Illustrator 27.0.0, SVG Export Plug-In . SVG Version: 6.00 Build 0)  -->
<svg version="1.1" id="Layer_1" xmlns="http://www.w3.org/2000/svg" xmlns:xlink="http://www.w3.org/1999/xlink" x="0px" y="0px"
	 viewBox="0 0 64 64" style="enable-background:new 0 0 64 64;" xml:space="preserve">
<style type="text/css">
	.st0{fill:#E00052;}
</style>
<path id="Vrstva_2_kopie" class="st0" d="M22,30.5l5.1-11.4l7,18l2.9-6.6h13.6c0.9-1.9,1.4-3.8,1.4-5.9c0-6.2-4.8-11-11-11
	c-3.5,0-6.8,1.6-9,4.2c-2.2-2.6-5.5-4.2-9-4.2c-6.2,0-11,4.8-11,11c0,2,0.5,3.9,1.4,5.9C13.4,30.5,22,30.5,22,30.5z M39,33.5
	l-5.1,11.4l-7-18L24,33.5h-8.8c3,4.3,7.8,8.7,13.9,14.2l2.9,2.6l2.9-2.6c6.1-5.5,11-10,13.9-14.2H39L39,33.5z"/>
</svg>
