<?xml version="1.0" encoding="utf-8"?>
<!-- Generator: Adobe Illustrator 27.0.0, SVG Export Plug-In . SVG Version: 6.00 Build 0)  -->
<svg version="1.1" id="Layer_1" xmlns="http://www.w3.org/2000/svg" xmlns:xlink="http://www.w3.org/1999/xlink" x="0px" y="0px"
	 viewBox="0 0 64 64" style="enable-background:new 0 0 64 64;" xml:space="preserve">
<style type="text/css">
	.st0{fill:#654B38;}
</style>
<path id="Vrstva_3_kopie" class="st0" d="M39.3,20l-3.6,6.5L32,22l0,0c0,0-2-1-4-1c-3,0-4,1-4,1v15l6,11H20v4h17v-4l-5-11v-8.6
	l2.5,2.9c0.4,0.4,0.9,0.7,1.5,0.7c0.1,0,0.1,0,0.2,0c0.7-0.1,1.2-0.4,1.5-1l5-9L39.3,20z M28.1,19.8c-2.1,0-3.9-1.8-3.9-3.9
	S26,12,28.1,12c2.2,0,3.9,1.8,3.9,3.9C32,18.1,30.2,19.8,28.1,19.8z"/>
</svg>
