<?xml version="1.0" encoding="utf-8"?>
<!-- Generator: Adobe Illustrator 27.0.0, SVG Export Plug-In . SVG Version: 6.00 Build 0)  -->
<svg version="1.1" id="Layer_1" xmlns="http://www.w3.org/2000/svg" xmlns:xlink="http://www.w3.org/1999/xlink" x="0px" y="0px"
	 viewBox="0 0 64 64" style="enable-background:new 0 0 64 64;" xml:space="preserve">
<style type="text/css">
	.st0{fill:#AF5724;}
</style>
<path class="st0" d="M51.5,44c1.4,0,2.5-0.9,2.5-2s-1.1-2-2.5-2h-22l0.2-2H52c0-3.3-5.8-6-13-6c-3.3,0-6.4,0.6-8.7,1.5L32,20h-2.7
	l0.7-6.8l-4-0.4L25.2,20H12l4,32h12l0.3-2.6C30.7,51,34.6,52,39,52c7.2,0,13-2.7,13-6H28.8l0.2-2H51.5z"/>
</svg>
