<?xml version="1.0" encoding="utf-8"?>
<!-- Generator: Adobe Illustrator 27.0.0, SVG Export Plug-In . SVG Version: 6.00 Build 0)  -->
<svg version="1.1" id="Layer_1" xmlns="http://www.w3.org/2000/svg" xmlns:xlink="http://www.w3.org/1999/xlink" x="0px" y="0px"
	 viewBox="0 0 64 64" style="enable-background:new 0 0 64 64;" xml:space="preserve">
<style type="text/css">
	.st0{fill:#3C7D00;}
</style>
<path class="st0" d="M16,10v44h32V10H16z M28,14v4h8v-4h8v17h-4.1c-0.5-3.9-3.9-7-7.9-7c-4.1,0-7.4,3.1-7.9,7H20V14H28z M26.1,31
	c0.5-2.8,2.9-5,5.9-5s5.4,2.2,5.9,5H26.1z M37.9,33c-0.5,2.8-2.9,5-5.9,5s-5.4-2.2-5.9-5H37.9z M36,50v-4h-8v4h-8V33h4.1
	c0.5,3.9,3.9,7,7.9,7c4.1,0,7.4-3.1,7.9-7H44v17H36z"/>
</svg>
