<?xml version="1.0" encoding="utf-8"?>
<!-- Generator: Adobe Illustrator 27.0.0, SVG Export Plug-In . SVG Version: 6.00 Build 0)  -->
<svg version="1.1" id="Vrstva_1" xmlns="http://www.w3.org/2000/svg" xmlns:xlink="http://www.w3.org/1999/xlink" x="0px" y="0px"
	 viewBox="0 0 64 64" style="enable-background:new 0 0 64 64;" xml:space="preserve">
<style type="text/css">
	.st0{fill:#755741;}
</style>
<path id="Vrstva_3_kopie" class="st0" d="M18,24h-4c-1.1,0-2,0.9-2,2v8h8v-8C20,24.9,19.1,24,18,24z M16,16c1.7,0,3,1.3,3,3
	s-1.3,3-3,3s-3-1.3-3-3S14.4,16,16,16z M52,26c0-1.1-0.9-2-2-2h-4c-1.1,0-2,0.9-2,2v8h8V26z M48,16c1.7,0,3,1.3,3,3s-1.3,3-3,3
	s-3-1.3-3-3S46.4,16,48,16z M40,34v2H24v-2h-4v2h-8v4h8v4h4v-4h6.8L26,48h12l-4.8-8H40v4h4v-4h8v-4h-8v-2H40z"/>
</svg>
