<?xml version="1.0" encoding="utf-8"?>
<!-- Generator: Adobe Illustrator 27.0.0, SVG Export Plug-In . SVG Version: 6.00 Build 0)  -->
<svg version="1.1" id="Vrstva_3" xmlns="http://www.w3.org/2000/svg" xmlns:xlink="http://www.w3.org/1999/xlink" x="0px" y="0px"
	 viewBox="0 0 48 48" enable-background="new 0 0 48 48" xml:space="preserve">
<path fill="#488BC2" d="M29.463,23.036h-3.642v-5.847c1.373-0.601,2.384-1.859,2.652-3.377l15.26-5.45l-1.225-3.429l-14.912,5.326
	C26.764,9.177,25.47,8.469,24,8.469c-2.514,0-4.552,2.038-4.552,4.552c0,0.049,0.013,0.094,0.014,0.142L4.267,18.59l1.225,3.429
	l15.559-5.557c0.34,0.291,0.712,0.544,1.128,0.726v5.847h-3.642c0,0-5.463,2.731-5.463,10.015s5.463,10.015,5.463,10.015h11.836
	c0,0,4.552-2.731,4.552-10.015S29.463,23.036,29.463,23.036z M23.146,33.905h-7.284c0,0-0.346-2.887,1.536-5.577
	c1.195-1.707,2.049-2.561,2.049-2.561l3.699-0.057V33.905z M32.194,33.962H24.91v-8.194h3.642c0,0,0.91,0.91,2.105,2.618
	C32.54,31.075,32.194,33.962,32.194,33.962z"/>
<g>
</g>
<g>
</g>
<g>
</g>
<g>
</g>
<g>
</g>
<g>
</g>
</svg>
