<?xml version="1.0" encoding="utf-8"?>
<!-- Generator: Adobe Illustrator 27.0.0, SVG Export Plug-In . SVG Version: 6.00 Build 0)  -->
<svg version="1.1" id="Layer_1" xmlns="http://www.w3.org/2000/svg" xmlns:xlink="http://www.w3.org/1999/xlink" x="0px" y="0px"
	 viewBox="0 0 64 64" style="enable-background:new 0 0 64 64;" xml:space="preserve">
<style type="text/css">
	.st0{fill:#3C7D00;}
</style>
<path class="st0" d="M48,18.4H16V16h32V18.4z M28.7,48H33v-6.6l-2.4-2.2L28.7,48z M50,32v4h-2v12h-4h-8h-0.7v-8.3l-2.4-2.2l0.7-3.4
	c1.5,1.7,3.7,2.8,6.2,2.8v-2.2c-2.1,0-3.9-1.1-4.8-2.7l-1.1-1.8c-0.4-0.7-0.8-1.4-1.9-1.4c0,0-1.2-0.1-1.7,0.4
	c-0.3,1.2-3.6,17.1-4,18.8H16V36h-2v-4l2-11.6h32L50,32z M29.6,28.9c0.2-0.8-0.4-1.6-1.3-1.8c-0.9-0.1-1.8,0.4-2,1.2l-1.2,5.9
	c-0.2,0.8,0.4,1.6,1.3,1.8s1.8-0.4,2-1.2L29.6,28.9z M35.8,26.3c0-1.2-1-2.2-2.2-2.2s-2.2,1-2.2,2.2s1,2.2,2.2,2.2
	S35.8,27.5,35.8,26.3z"/>
</svg>
