<?xml version="1.0" encoding="utf-8"?>
<!-- Generator: Adobe Illustrator 27.0.0, SVG Export Plug-In . SVG Version: 6.00 Build 0)  -->
<svg version="1.1" id="Vrstva_3" xmlns="http://www.w3.org/2000/svg" xmlns:xlink="http://www.w3.org/1999/xlink" x="0px" y="0px"
	 viewBox="0 0 48 48" style="enable-background:new 0 0 48 48;" xml:space="preserve">
<style type="text/css">
	.st0{fill:#E00052;}
	.st1{fill:#FFFFFF;}
</style>
<circle class="st0" cx="32" cy="16" r="12"/>
<polygon class="st1" points="40,19 35,19 35,24 29,24 29,19 24,19 24,13 29,13 29,8 35,8 35,13 40,13 "/>
<path class="st0" d="M40,35v7c0,1.1-0.9,2-2,2C19.2,44,4,28.8,4,10c0-1.1,0.9-2,2-2h7c1.1,0,2,0.9,2,2c0,2.5,0.4,4.9,1.1,7.1
	c0.2,0.7,0.1,1.5-0.5,2l-4.4,4.4c2.9,5.7,7.5,10.3,13.2,13.2l4.4-4.4c0.6-0.5,1.3-0.7,2-0.5c2.2,0.7,4.6,1.1,7.1,1.1
	C39.1,33,40,33.9,40,35z"/>
</svg>
