<?xml version="1.0" encoding="utf-8"?>
<!-- Generator: Adobe Illustrator 27.0.0, SVG Export Plug-In . SVG Version: 6.00 Build 0)  -->
<svg version="1.1" id="Layer_1" xmlns="http://www.w3.org/2000/svg" xmlns:xlink="http://www.w3.org/1999/xlink" x="0px" y="0px"
	 viewBox="0 0 64 64" style="enable-background:new 0 0 64 64;" xml:space="preserve">
<style type="text/css">
	.st0{fill:#8763BA;}
	.st1{fill:#FFFFFF;}
</style>
<path class="st0" d="M16,14h32c1.1,0,2,0.9,2,2v32c0,1.1-0.9,2-2,2H16c-1.1,0-2-0.9-2-2V16C14,14.9,14.9,14,16,14z"/>
<path class="st1" d="M29.8,18.9c0.6-0.6,1.3-0.9,2.2-0.9s1.6,0.3,2.2,0.9c0.6,0.6,0.9,1.3,0.9,2.2c0,0.9-0.3,1.6-0.9,2.2
	c-0.6,0.6-1.4,0.9-2.2,0.9s-1.6-0.3-2.2-0.9s-0.9-1.3-0.9-2.2C28.9,20.3,29.2,19.5,29.8,18.9z M37.1,46H26.9v-0.7
	c0.8,0,1.4-0.3,1.9-0.7c0.3-0.3,0.4-1.1,0.4-2.5v-11c0-1.3-0.2-2.2-0.5-2.6s-0.9-0.6-1.8-0.6v-0.8h7.9V42c0,1.3,0.2,2.2,0.5,2.6
	c0.3,0.4,0.9,0.6,1.8,0.6V46L37.1,46z"/>
</svg>
