<?xml version="1.0" encoding="utf-8"?>
<!-- Generator: Adobe Illustrator 27.0.0, SVG Export Plug-In . SVG Version: 6.00 Build 0)  -->
<svg version="1.1" id="Layer_1" xmlns="http://www.w3.org/2000/svg" xmlns:xlink="http://www.w3.org/1999/xlink" x="0px" y="0px"
	 viewBox="0 0 64 64" style="enable-background:new 0 0 64 64;" xml:space="preserve">
<style type="text/css">
	.st0{fill:#3C7D00;}
</style>
<path class="st0" d="M43.1,37.1C41.7,32.4,39.8,26,32,26V16H16v16v20h4v-4h8v4h4V32c2.9,0,3.7,1.4,5.3,6.8C38.8,44,41.2,52,52,52v-4
	C46,48,44.7,42.8,43.1,37.1z M28,44h-8v-4h8V44z M28,36h-8v-4h8V36z M24,28c-2.2,0-4-1.8-4-4s1.8-4,4-4s4,1.8,4,4S26.2,28,24,28z"/>
</svg>
