<svg xmlns="http://www.w3.org/2000/svg" xml:space="preserve" width="32" height="32"><path d="M3 0h26v32H3z" style="opacity:1;fill:#d40000;stroke-width:.607353;stroke-linejoin:round;stroke-miterlimit:0"/><g style="display:inline"><path d="M14.7 18.3c.6.3.9 1.2.5 1.8-.3.6-1.2.9-1.9.5a6.7 6.7 0 0 1-2.4-9l3.3-5.9a6.6 6.8 0 0 1 11.3 6.8l-1.3 2.3a9 9 0 0 0-1.4-3l.4-.8a3.8 3.9 0 0 0-1.5-5.4A3.8 3.9 0 0 0 16.5 7l-3.2 5.7a4 4 0 0 0 1.3 5.5m2.2-6.3c.3-.6 1.2-.9 1.9-.5 3 1.9 4.2 5.9 2.4 9l-3.3 5.9a6.6 6.8 0 0 1-11.3-6.8l1.3-2.3c.3 1 .8 2 1.4 3l-.4.8a3.8 3.9 0 0 0 1.5 5.4 3.8 3.9 0 0 0 5.2-1.4l3.2-5.7a3.8 3.9 0 0 0-1.4-5.4c-.7-.7-.8-1.4-.5-2z" style="fill:#fff;stroke-width:.895;fill-opacity:1;stroke:#fff;stroke-opacity:1;stroke-miterlimit:4;stroke-dasharray:none"/></g></svg>