<?xml version="1.0" encoding="UTF-8"?>
<svg width="12" height="12" version="1.1" viewBox="0 0 12 12" xmlns="http://www.w3.org/2000/svg">
 <path d="m5.9854 8.9965a3.0109 3.0109 0 0 0 3.0109-3.0109c0-1.114-0.60721-2.0876-1.5055-2.6095v-0.90329a0.50182 0.50182 0 0 0-0.50182-0.50182h-2.0073a0.50182 0.50182 0 0 0-0.50182 0.50182v0.90329c-0.89826 0.5219-1.5055 1.4955-1.5055 2.6095a3.0109 3.0109 0 0 0 3.0109 3.0109m1.0036-7.5274v-0.50182a0.50182 0.50182 0 0 0-0.50182-0.50183h-1.0036a0.50182 0.50182 0 0 0-0.50182 0.50183v0.50182h2.0073m3.0109 5.0182h1.5055v-1.0036h-1.5055v1.0036m-9.535 0h1.5055v-1.0036h-1.5055v1.0036m6.022 5.0182v-1.5055h-1.0036v1.5055h1.0036m-4.0548-1.2545 1.0689-1.0739-0.7126-0.70757-1.0689 1.0639 0.7126 0.71761m6.0369-1.0689 1.0639 1.0689 0.71761-0.71761-1.0689-1.0639z" fill="#f9f27d" stroke="#eba700" stroke-linecap="round" stroke-linejoin="round" stroke-opacity=".99383" stroke-width=".68541" style="mix-blend-mode:normal;paint-order:fill markers stroke"/>
</svg>
