<?xml version="1.0" encoding="utf-8"?>
<!-- Generator: Adobe Illustrator 27.0.0, SVG Export Plug-In . SVG Version: 6.00 Build 0)  -->
<svg version="1.1" id="Layer_1" xmlns="http://www.w3.org/2000/svg" xmlns:xlink="http://www.w3.org/1999/xlink" x="0px" y="0px"
	 viewBox="0 0 64 64" style="enable-background:new 0 0 64 64;" xml:space="preserve">
<style type="text/css">
	.st0{fill:#3C7D00;}
</style>
<path class="st0" d="M37,17c8.3,0,15,6.7,15,15s-6.7,15-15,15H27c-8.3,0-15-6.7-15-15s6.7-15,15-15H37 M37,15H27
	c-9.4,0-17,7.6-17,17s7.6,17,17,17h10c9.4,0,17-7.6,17-17S46.4,15,37,15L37,15z M36.6,21.1c5.7,0,10.3,4.9,10.3,10.9
	s-4.6,10.9-10.3,10.9h-9.1c-5.7,0-10.3-4.9-10.3-10.9s4.6-10.9,10.3-10.9H36.6 M36,19h-8c-7.2,0-13,5.8-13,13s5.8,13,13,13h8
	c7.2,0,13-5.8,13-13S43.2,19,36,19L36,19z M35,24.9c3.7,0,6.6,3.2,6.6,7.1s-3,7.1-6.6,7.1h-6c-3.7,0-6.6-3.2-6.6-7.1s3-7.1,6.6-7.1
	L35,24.9 M34.7,23.1h-5.5c-4.9,0-8.9,4-8.9,8.9s4,8.9,8.9,8.9h5.5c4.9,0,8.9-4,8.9-8.9C43.7,27.1,39.7,23.1,34.7,23.1L34.7,23.1z"/>
</svg>
