<?xml version="1.0" encoding="utf-8"?>
<!-- Generator: Adobe Illustrator 27.0.0, SVG Export Plug-In . SVG Version: 6.00 Build 0)  -->
<svg version="1.1"
	 id="svg20" xmlns:dc="http://purl.org/dc/elements/1.1/" xmlns:rdf="http://www.w3.org/1999/02/22-rdf-syntax-ns#" xmlns:sodipodi="http://sodipodi.sourceforge.net/DTD/sodipodi-0.dtd" xmlns:inkscape="http://www.inkscape.org/namespaces/inkscape" xmlns:cc="http://creativecommons.org/ns#" xmlns:svg="http://www.w3.org/2000/svg"
	 xmlns="http://www.w3.org/2000/svg" xmlns:xlink="http://www.w3.org/1999/xlink" x="0px" y="0px" viewBox="0 0 48 48"
	 style="enable-background:new 0 0 48 48;" xml:space="preserve">
<style type="text/css">
	.st0{fill:#4F4F4F;}
</style>
<path class="st0" d="M14.1,24c0,2.7-2.2,5-5,5s-5-2.2-5-5s2.2-5,5-5S14.1,21.3,14.1,24z M38.9,19.1c-2.7,0-5,2.2-5,5s2.2,5,5,5
	s5-2.2,5-5S41.7,19.1,38.9,19.1z M29.9,15.8l-4.3,4.3c-0.5-0.2-1-0.3-1.5-0.3s-1,0.1-1.5,0.3l-4.3-4.3L16,18.1l4.4,4.4
	c-0.2,0.5-0.3,1-0.3,1.5s0.1,1,0.3,1.5l-4.3,4.3l2.3,2.3l4.4-4.4c0.5,0.2,1,0.3,1.5,0.3s1-0.1,1.5-0.3l4.3,4.3l2.3-2.3l-4.3-4.3
	c0.2-0.5,0.3-1,0.3-1.5s-0.1-1-0.3-1.5l4.3-4.3L29.9,15.8z"/>
</svg>
