<?xml version="1.0" encoding="utf-8"?>
<!-- Generator: Adobe Illustrator 27.0.0, SVG Export Plug-In . SVG Version: 6.00 Build 0)  -->
<svg version="1.1" id="Layer_1" xmlns="http://www.w3.org/2000/svg" xmlns:xlink="http://www.w3.org/1999/xlink" x="0px" y="0px"
	 viewBox="0 0 64 64" style="enable-background:new 0 0 64 64;" xml:space="preserve">
<style type="text/css">
	.st0{fill:#AF5724;}
</style>
<g id="Vrstva_3_kopie_1_">
	<g>
		<path class="st0" d="M44,24c0,0.9-3.9,4.4-5,8c-1.3,4.4-0.4,9-7,9c-6.6,0-5.7-4.6-7-9c-1.1-3.6-5-7.1-5-8c0-2,4-6,12-6
			S44,22.4,44,24z"/>
	</g>
	<g>
		<path class="st0" d="M23.7,35.2c-0.2-0.9-0.3-1.8-0.6-2.6c-0.6-1.8-2.1-3.8-3.3-5.3c-0.6-0.7-1-1.3-1.3-1.8
			C11.3,31.8,7.8,41.6,9,44c1.6,3.3,6.6-2.2,16.1-4.2C24.3,38.3,23.9,36.6,23.7,35.2z"/>
	</g>
	<g>
		<path class="st0" d="M45.6,25.5c-0.3,0.5-0.8,1.1-1.4,1.9c-1.2,1.4-2.7,3.4-3.3,5.3c-0.3,0.9-0.4,1.8-0.6,2.6
			c-0.3,1.4-0.6,3.1-1.4,4.5c10,2,14.4,7.6,16.1,4.3C56.2,41.6,52.7,31.8,45.6,25.5z"/>
	</g>
</g>
</svg>
