<?xml version="1.0" encoding="utf-8"?>
<!-- Generator: Adobe Illustrator 27.0.0, SVG Export Plug-In . SVG Version: 6.00 Build 0)  -->
<svg version="1.1" id="Layer_1" xmlns="http://www.w3.org/2000/svg" xmlns:xlink="http://www.w3.org/1999/xlink" x="0px" y="0px"
	 viewBox="0 0 64 64" style="enable-background:new 0 0 64 64;" xml:space="preserve">
<style type="text/css">
	.st0{fill:#488BC2;}
</style>
<path class="st0" d="M48,48.1c1.2-0.9,2-2.4,2-4V44h4v-4h-2v-3.9h2v-8h-2V28V16h2v-4H44v4h2v12h-6v-4h-6v4h-6V16h2v-4.1H8V16h6v24
	h-2v-4H8v3.9V42v2h8v0.1c0,1.6,0.8,3.1,2,4H8v4h48v-4H48z M18,28V16h6v12H18z M24,48.1c1.2-0.9,2-2.4,2-4V44h2v0.1
	c0,1.6,0.8,3.1,2,4H24z M36,48.1c1.2-0.9,2-2.4,2-4V44h2v0.1c0,1.6,0.8,3.1,2,4H36z"/>
</svg>
