<?xml version="1.0" encoding="utf-8"?>
<!-- Generator: Adobe Illustrator 27.0.0, SVG Export Plug-In . SVG Version: 6.00 Build 0)  -->
<svg version="1.1" id="Layer_1" xmlns="http://www.w3.org/2000/svg" xmlns:xlink="http://www.w3.org/1999/xlink" x="0px" y="0px"
	 viewBox="0 0 64 64" style="enable-background:new 0 0 64 64;" xml:space="preserve">
<style type="text/css">
	.st0{fill:#654B38;}
</style>
<path id="Vrstva_3_kopie" class="st0" d="M34.2,18.5c-2.2,0-4-1.8-4-4s1.8-4,4-4s4,1.8,4,4S36.4,18.5,34.2,18.5z M28.2,19.8
	c1-1,3.1-0.8,3.1-0.8c2,0,2.6,1.3,3.4,2.5l2,3.2c1.6,2.8,4.8,4.8,8.6,4.8v4c-4.4,0-8.4-2-11-5l-1.2,6l4.2,4v15h-4v-12l-4.2-4
	l-3.6,16h-4.2C21.2,53.5,27.7,21.9,28.2,19.8z M19.1,28.9c-0.3,1.5,0.8,2.9,2.4,3.2l0,0c1.6,0.3,3.2-0.7,3.5-2.2l2.2-10.5
	c0.3-1.5-0.8-2.9-2.4-3.2l0,0c-1.6-0.3-3.2,0.7-3.5,2.2L19.1,28.9z"/>
</svg>
