<?xml version="1.0" encoding="utf-8"?>
<!-- Generator: Adobe Illustrator 27.9.0, SVG Export Plug-In . SVG Version: 6.00 Build 0)  -->
<svg version="1.1"
	 id="Layer_1" xmlns:rdf="http://www.w3.org/1999/02/22-rdf-syntax-ns#" xmlns:cc="http://creativecommons.org/ns#" xmlns:dc="http://purl.org/dc/elements/1.1/"
	 xmlns="http://www.w3.org/2000/svg" xmlns:xlink="http://www.w3.org/1999/xlink" x="0px" y="0px" viewBox="0 0 48 48"
	 style="enable-background:new 0 0 48 48;" xml:space="preserve">
<style type="text/css">
	.st0{fill:#4F9CBF;}
</style>
<g>
	<path class="st0" d="M13.4,6.4L4,14.6l9.4,8.2v-4.7h21.3v4.7l9.4-8.2l-9.4-8.2v4.7H13.4V6.4z M4,27.3c2.1,0,6.1,5.7,8,5.7
		c1.8,0,6-5.7,8-5.7s6.2,5.7,8,5.7c2.1,0,6.1-5.7,8-5.7c2.1-0.1,6.3,5.7,8,5.7v8.6c-2,0-6.1-5.7-8-5.7c-1.9,0-6,5.7-8,5.7
		c-1.9,0-6-5.7-8-5.7c-2,0-6.1,5.7-8,5.7c-2.1,0-6-5.7-8-5.7L4,27.3z"/>
</g>
</svg>
