<?xml version="1.0" encoding="utf-8"?>
<!-- Generator: Adobe Illustrator 27.0.0, SVG Export Plug-In . SVG Version: 6.00 Build 0)  -->
<svg version="1.1" id="Vrstva_1" xmlns="http://www.w3.org/2000/svg" xmlns:xlink="http://www.w3.org/1999/xlink" x="0px" y="0px"
	 viewBox="0 0 64 64" style="enable-background:new 0 0 64 64;" xml:space="preserve">
<style type="text/css">
	.st0{fill:#FFFFFF;}
	.st1{fill:#00AD10;}
</style>
<path class="st0" d="M32,58c-6.6,0-12.2-4-14.7-9.7l-2.5,2.5C14.1,51.6,13,52,12,52c-0.5,0-1-0.1-1.5-0.3C9,51.1,8,49.6,8,48v-0.5
	c-2.2,0-4-1.8-4-4v-3c0-2.2,1.8-4,4-4V36c0-1.6,1-3.1,2.5-3.7c0.5-0.2,1-0.3,1.5-0.3c1,0-2-1.8-2-4v-2.4c0-2.5,1.3-4.7,3.3-6
	C13.1,19,13,18.3,13,17.5c0-3.9,3.1-7,7-7c1.5,0,2.8,0.5,4,1.2C25.1,8.4,28.3,6,32,6c3.7,0,6.9,2.4,8,5.7c1.1-0.8,2.5-1.2,4-1.2
	c3.9,0,7,3.1,7,7c0,0.8-0.1,1.5-0.3,2.2c2.1,1.3,3.3,3.5,3.3,6V28c0,2.2-3,4-2,4c0.5,0,1,0.1,1.5,0.3C55,32.9,56,34.4,56,36v0.5
	c2.2,0,4,1.8,4,4v3c0,2.2-1.8,4-4,4V48c0,1.6-1,3.1-2.5,3.7C53,51.9,52.5,52,52,52c-1,0-2.1-0.4-2.8-1.2l-2.5-2.5
	C44.2,54,38.6,58,32,58z"/>
<path class="st1" d="M32,20.1c2.4,0,4.6,0.6,6.4,1.4c1.6,0.7,2.6,2.3,2.6,4.1V28H23v-2.4c0-1.8,1-3.4,2.6-4.1
	C27.4,20.7,29.6,20.1,32,20.1z M20,20.5c1.7,0,3-1.3,3-3c0-1.7-1.3-3-3-3s-3,1.3-3,3C17,19.2,18.3,20.5,20,20.5z M21.7,22.1
	C21.1,22.1,20.6,22,20,22c-1.5,0-2.9,0.3-4.2,0.9c-1.1,0.5-1.8,1.6-1.8,2.8V28h6.8v-2.4C20.8,24.3,21.1,23.2,21.7,22.1z M44,20.5
	c1.6,0,3-1.3,3-3c0-1.7-1.4-3-3-3s-3,1.3-3,3C41,19.2,42.4,20.5,44,20.5z M50,25.6c0-1.2-0.7-2.3-1.8-2.8C46.9,22.3,45.5,22,44,22
	c-0.6,0-1.1,0.1-1.7,0.1c0.6,1,0.9,2.2,0.9,3.4V28H50V25.6z M32,10c2.5,0,4.5,2,4.5,4.5S34.5,19,32,19s-4.5-2-4.5-4.5S29.5,10,32,10
	z M12,40.5H8v3h4V48l6-6l-6-6V40.5z M52,43.5h4v-3h-4V36l-6,6l6,6V43.5z M32,30c-6.6,0-12,5.4-12,12s5.4,12,12,12
	c6.6,0,12-5.4,12-12S38.6,30,32,30z M40,45h-5v5h-6v-5h-5v-6h5v-5h6v5h5V45z"/>
</svg>
