<?xml version="1.0" encoding="utf-8"?>
<!-- Generator: Adobe Illustrator 27.0.0, SVG Export Plug-In . SVG Version: 6.00 Build 0)  -->
<svg version="1.1" id="Layer_1" xmlns="http://www.w3.org/2000/svg" xmlns:xlink="http://www.w3.org/1999/xlink" x="0px" y="0px"
	 viewBox="0 0 64 64" style="enable-background:new 0 0 64 64;" xml:space="preserve">
<style type="text/css">
	.st0{fill:#8763BA;}
</style>
<path class="st0" d="M50,48V12H14v36h-2v4h16v-8h8v8h16v-4H50z M38,24h-8v2h6c1.1,0,2,0.9,2,2v6c0,1.1-0.9,2-2,2h-2v2h-4v-2h-4v-4h8
	v-2h-6c-1.1,0-2-0.9-2-2v-6c0-1.1,0.9-2,2-2h2v-2h4v2h4V24z"/>
</svg>
