<?xml version="1.0" encoding="utf-8"?>
<!-- Generator: Adobe Illustrator 27.0.0, SVG Export Plug-In . SVG Version: 6.00 Build 0)  -->
<svg version="1.1" id="Layer_1" xmlns="http://www.w3.org/2000/svg" xmlns:xlink="http://www.w3.org/1999/xlink" x="0px" y="0px"
	 viewBox="0 0 64 64" style="enable-background:new 0 0 64 64;" xml:space="preserve">
<style type="text/css">
	.st0{fill:#E00052;}
</style>
<path id="Vrstva_3_kopie" class="st0" d="M12,38c0,0,4,14,20,14s20-14,20-14H12z M40,46.5c-2.6,0-4.2-1.1-5.5-1.9
	c-1-0.7-1.7-1.1-2.5-1.1s-1.2,0.3-2,1c-1,0.9-2.3,2-5,2c-4.9,0-7-3.4-7.5-5.1l2.9-0.7c0.1,0.3,0.9,2.9,4.5,2.9
	c1.6,0,2.2-0.6,3.1-1.3c0.9-0.8,2-1.7,3.9-1.7c1.8,0,3.1,0.8,4.2,1.6s2.1,1.4,3.8,1.4c3,0,4.6-3.1,4.7-3.2l2.7,1.3
	C47.2,41.9,44.9,46.5,40,46.5z M26.1,33.7l-2.2-3.3c0.1,0,2.1-1.5,2.1-4.3c0-1.3-0.4-1.9-1.1-2.8C24.1,22.1,23,20.7,23,18
	c0-5.2,4.9-7.7,5.1-7.8l1.8,3.6L29,12l0.9,1.8c0,0-2.9,1.5-2.9,4.2c0,1.3,0.4,1.9,1.1,2.8c0.8,1.1,1.9,2.5,1.9,5.2
	C30,31,26.3,33.6,26.1,33.7z M35.1,33.7l-2.2-3.3c0.1,0,2.1-1.5,2.1-4.3c0-3.2-1.5-4.7-2.4-5.6l2.8-2.8c1.1,1.1,3.6,3.6,3.6,8.4
	C39,31,35.3,33.6,35.1,33.7z"/>
</svg>
