<?xml version="1.0" encoding="utf-8"?>
<!-- Generator: Adobe Illustrator 27.0.0, SVG Export Plug-In . SVG Version: 6.00 Build 0)  -->
<svg version="1.1" id="Vrstva_3" xmlns="http://www.w3.org/2000/svg" xmlns:xlink="http://www.w3.org/1999/xlink" x="0px" y="0px"
	 viewBox="0 0 48 48" style="enable-background:new 0 0 48 48;" xml:space="preserve">
<style type="text/css">
	.st0{fill:#755741;}
</style>
<path class="st0" d="M10.7,22.2c-0.7,0-1.5-0.1-2.1-0.5C8,21.4,7.7,20.9,8,20.2c0.8-2.5,1.6-5.1,2.4-7.6c0.1-0.4,0.4-0.8,0.8-1
	c1.3-0.6,2.6-0.7,3.9-0.2c0.6,0.2,0.9,0.6,0.8,1.3c-0.5,2.5-1,5-1.5,7.6c-0.1,0.5-0.4,0.9-0.9,1.2C12.7,22,11.7,22.1,10.7,22.2z
	 M23.2,12.7c0-0.6-0.2-1-0.8-1.2c-1.3-0.5-2.6-0.5-3.9,0.1c-0.5,0.2-0.7,0.5-0.8,1c-0.4,2.5-0.8,5.1-1.2,7.6
	c-0.1,0.7,0.2,1.2,0.8,1.4c1.7,0.8,3.3,0.7,4.9-0.1c0.5-0.3,0.8-0.7,0.8-1.3C23,19,23.1,13.9,23.2,12.7z M25,20.1
	c0,0.8,0.4,1.3,1,1.5c1.5,0.6,2.9,0.7,4.4,0.1c0.9-0.3,1.1-0.8,1-1.7c-0.3-2.5-0.7-4.9-1.1-7.4c-0.1-0.6-0.4-1-1-1.2
	C28.1,11,27,11,25.8,11.3c-0.7,0.2-1.1,0.6-1,1.4C24.9,14,25,18.9,25,20.1z M39.2,21.8c0.9-0.4,1.1-0.8,0.8-1.7
	c-0.7-2.2-1.5-4.4-2.1-6.6c-0.4-1.6-1.4-2.1-2.8-2.3c-0.6-0.1-1.2,0-1.7,0.1c-1.1,0.3-1.4,0.6-1.2,1.7c0.4,2.2,0.9,4.4,1.2,6.6
	c0.2,1.4,0.9,2,2.1,2.4c0.5,0.1,1.1,0.3,1.7,0.2C37.9,22.2,38.6,22.1,39.2,21.8z M38.6,32.2v-8.4c0-0.4-0.3-0.7-0.7-0.7h-0.6
	c-0.4,0-0.7,0.3-0.7,0.7v7.1c0,0.4-0.3,0.7-0.7,0.7H12.2c-0.4,0-0.7-0.3-0.7-0.7v-7.1c0-0.4-0.3-0.7-0.7-0.7h-0.6
	c-0.4,0-0.7,0.3-0.7,0.7v8.5v5.3V39c0,0.4,0.3,0.7,0.7,0.7H38c0.4,0,0.7-0.3,0.7-0.7L38.6,32.2C38.6,32.3,38.6,32.2,38.6,32.2z"/>
</svg>
