<?xml version="1.0" encoding="utf-8"?>
<!-- Generator: Adobe Illustrator 27.0.0, SVG Export Plug-In . SVG Version: 6.00 Build 0)  -->
<svg version="1.1" id="Layer_1" xmlns="http://www.w3.org/2000/svg" xmlns:xlink="http://www.w3.org/1999/xlink" x="0px" y="0px"
	 viewBox="0 0 64 64" style="enable-background:new 0 0 64 64;" xml:space="preserve">
<style type="text/css">
	.st0{fill:#488BC2;}
</style>
<path class="st0" d="M42,18H14c-2.2,0-4,1.8-4,4v18h4c0,3.3,2.7,6,6,6s6-2.7,6-6h11c0,3.3,2.7,6,6,6s6-2.7,6-6h5V30L42,18z M14,30
	v-8h8v8H14z M20,43c-1.7,0-3-1.3-3-3s1.3-3,3-3s3,1.3,3,3S21.7,43,20,43z M34,30h-8v-8h8V30z M43,43c-1.7,0-3-1.3-3-3s1.3-3,3-3
	s3,1.3,3,3S44.7,43,43,43z M38,30v-8h2l8,8H38z"/>
</svg>
