<?xml version="1.0" encoding="utf-8"?>
<!-- Generator: Adobe Illustrator 27.0.0, SVG Export Plug-In . SVG Version: 6.00 Build 0)  -->
<svg version="1.1" id="Layer_1" xmlns="http://www.w3.org/2000/svg" xmlns:xlink="http://www.w3.org/1999/xlink" x="0px" y="0px"
	 viewBox="0 0 64 64" style="enable-background:new 0 0 64 64;" xml:space="preserve">
<style type="text/css">
	.st0{fill:#488BC2;}
</style>
<path id="Vrstva_3_kopie" class="st0" d="M17,30c1.7,0,3-1.3,3-3s-1.3-3-3-3s-3,1.3-3,3S15.3,30,17,30z M52.3,26.3
	c0-7.7-6.3-14-14-14s-14,6.3-14,14c0,6.9,5,12.7,11.7,13.8V48H20v-6h2v-8c0-1.1-0.9-2-2-2h-6c-1.1,0-2,0.9-2,2v8h2v10h32v-4h-6v-7.8
	C46.9,39.4,52.3,33.5,52.3,26.3z"/>
</svg>
