<?xml version="1.0" encoding="utf-8"?>
<!-- Generator: Adobe Illustrator 27.0.0, SVG Export Plug-In . SVG Version: 6.00 Build 0)  -->
<svg version="1.1" id="Layer_1" xmlns="http://www.w3.org/2000/svg" xmlns:xlink="http://www.w3.org/1999/xlink" x="0px" y="0px"
	 viewBox="0 0 64 64" style="enable-background:new 0 0 64 64;" xml:space="preserve">
<style type="text/css">
	.st0{fill:#488BC2;}
</style>
<path id="Vrstva_3_kopie" class="st0" d="M52,52c-2.2,0-3.5-0.7-4.4-1.3c-0.7-0.4-1.2-0.7-2.3-0.7s-1.6,0.3-2.3,0.7
	c-0.9,0.5-2.1,1.3-4.4,1.3s-3.5-0.7-4.4-1.3C33.6,50.3,33.1,50,32,50c-1.1,0-1.6,0.3-2.3,0.7c-0.9,0.5-2.2,1.3-4.4,1.3
	s-3.5-0.7-4.4-1.3c-0.7-0.5-1.2-0.7-2.3-0.7c-1.1,0-1.6,0.3-2.3,0.7C15.5,51.3,14.2,52,12,52v-4c1.1,0,1.6-0.3,2.3-0.7
	c0.9-0.5,2.2-1.3,4.4-1.3s3.5,0.7,4.4,1.3c0.7,0.5,1.2,0.7,2.3,0.7c1.1,0,1.6-0.3,2.3-0.7c0.9-0.5,2.2-1.3,4.4-1.3s3.5,0.7,4.4,1.3
	c0.7,0.4,1.2,0.7,2.3,0.7s1.6-0.3,2.3-0.7c0.9-0.5,2.1-1.3,4.4-1.3c2.2,0,3.5,0.7,4.4,1.3c0.7,0.5,1.2,0.7,2.3,0.7v4H52z M48,25
	c0-10-6-13-6-13h-5l0,0H12v4h4.3c3.9,2.5,10,7,10.7,11c1.5,9.1-1,19-1,19s6-14,6-19c0-3-0.6-5.4-1.3-7.3c2.2,2,4,4.2,4.3,6.3
	c1.5,9.1-1,18-1,18s6-13,6-18c0-3-0.6-5.4-1.3-7.3c2.2,2,4,4.2,4.3,6.3c1.5,9.1-1,17-1,17S48,30,48,25z"/>
</svg>
