<?xml version="1.0" encoding="utf-8"?>
<!-- Generator: Adobe Illustrator 27.0.0, SVG Export Plug-In . SVG Version: 6.00 Build 0)  -->
<svg version="1.1" id="Layer_1" xmlns="http://www.w3.org/2000/svg" xmlns:xlink="http://www.w3.org/1999/xlink" x="0px" y="0px"
	 viewBox="0 0 64 64" style="enable-background:new 0 0 64 64;" xml:space="preserve">
<style type="text/css">
	.st0{fill:#755741;}
</style>
<path class="st0" d="M42,15c-3.8,1.5-10,5-10,5s-5-3-10-5s-10-3-10-3v27v4v3v4h4h8v2h16v-2h8h4v-4v-3v-1V12C52,12,47,13,42,15z
	 M34,23.5c0.4-0.2,6.1-3.4,9.5-4.8c1.6-0.6,3.1-1.1,4.5-1.6v22.2l-14,1.4V23.5z M16,17.2c1.4,0.4,3,0.9,4.5,1.6
	c4.6,1.9,9.4,4.7,9.4,4.7H30v17.3l-14-1.4V39V17.2z M48,46H36v2h-8v-2H16v-2.6L32,45l16-1.6V46z"/>
</svg>
