<?xml version="1.0" encoding="utf-8"?>
<!-- Generator: Adobe Illustrator 27.0.0, SVG Export Plug-In . SVG Version: 6.00 Build 0)  -->
<svg version="1.1" id="Vrstva_1" xmlns="http://www.w3.org/2000/svg" xmlns:xlink="http://www.w3.org/1999/xlink" x="0px" y="0px"
	 viewBox="0 0 64 64" style="enable-background:new 0 0 64 64;" xml:space="preserve">
<style type="text/css">
	.st0{fill:#488BC2;}
</style>
<path id="Vrstva_3_kopie" class="st0" d="M52,50c-2.2,0-3.5-0.7-4.4-1.3c-0.7-0.4-1.2-0.7-2.3-0.7s-1.6,0.3-2.3,0.7
	c-0.9,0.5-2.1,1.3-4.4,1.3s-3.5-0.7-4.4-1.3C33.6,48.3,33.1,48,32,48c-1.1,0-1.6,0.3-2.3,0.7c-0.9,0.5-2.2,1.3-4.4,1.3
	s-3.5-0.7-4.4-1.3c-0.7-0.5-1.2-0.7-2.3-0.7c-1.1,0-1.6,0.3-2.3,0.7C15.5,49.3,14.2,50,12,50v-4c1.1,0,1.6-0.3,2.3-0.7
	c0.9-0.5,2.2-1.3,4.4-1.3s3.5,0.7,4.4,1.3c0.7,0.5,1.2,0.7,2.3,0.7c1.1,0,1.6-0.3,2.3-0.7c0.9-0.5,2.2-1.3,4.4-1.3s3.5,0.7,4.4,1.3
	c0.7,0.4,1.2,0.7,2.3,0.7s1.6-0.3,2.3-0.7c0.9-0.5,2.1-1.3,4.4-1.3c2.2,0,3.5,0.7,4.4,1.3c0.7,0.5,1.2,0.7,2.3,0.7v4H52z M52,41
	c-2.2,0-3.5-0.7-4.4-1.3c-0.7-0.4-1.2-0.7-2.3-0.7s-1.6,0.3-2.3,0.7c-0.9,0.5-2.1,1.3-4.4,1.3s-3.5-0.7-4.4-1.3
	C33.6,39.3,33.1,39,32,39c-1.1,0-1.6,0.3-2.3,0.7c-0.9,0.5-2.1,1.3-4.4,1.3s-3.5-0.7-4.4-1.3c-0.7-0.4-1.2-0.7-2.3-0.7
	c-1.1,0-1.6,0.3-2.3,0.7C15.5,40.3,14.2,41,12,41v-4c1.1,0,1.6-0.3,2.3-0.7c0.9-0.5,2.1-1.3,4.4-1.3s3.5,0.7,4.4,1.3
	c0.7,0.4,1.2,0.7,2.3,0.7c1.1,0,1.6-0.3,2.3-0.7c0.9-0.5,2.1-1.3,4.4-1.3s3.5,0.7,4.4,1.3c0.7,0.4,1.2,0.7,2.3,0.7s1.6-0.3,2.3-0.7
	c0.9-0.5,2.1-1.3,4.4-1.3s3.5,0.7,4.4,1.3c0.7,0.4,1.2,0.7,2.3,0.7L52,41L52,41z M25.3,32c1.1,0,1.6-0.3,2.3-0.7
	c0.9-0.5,2.2-1.3,4.4-1.3s3.5,0.7,4.4,1.3c0.7,0.4,1.2,0.7,2.3,0.7s1.6-0.3,2.3-0.7c0.2-0.1,0.5-0.3,0.8-0.5L29,18
	c-3.1-3.1-6-4-11-4v5c3.6,0,5.8,0.8,8,3l2,2l-6.5,6.5c0.6,0.2,1.1,0.5,1.5,0.8C23.8,31.7,24.2,32,25.3,32z M41,14c2.8,0,5,2.2,5,5
	s-2.2,5-5,5s-5-2.2-5-5S38.2,14,41,14z"/>
</svg>
