<?xml version="1.0" encoding="utf-8"?>
<!-- Generator: Adobe Illustrator 27.0.0, SVG Export Plug-In . SVG Version: 6.00 Build 0)  -->
<svg version="1.1" id="Vrstva_3_kopie" xmlns="http://www.w3.org/2000/svg" xmlns:xlink="http://www.w3.org/1999/xlink" x="0px"
	 y="0px" viewBox="0 0 64 64" style="enable-background:new 0 0 64 64;" xml:space="preserve">
<style type="text/css">
	.st0{fill:#AF5724;}
</style>
<g>
	<polygon class="st0" points="31,40.1 29,49 33.3,49 33.3,42.3 	"/>
	<path class="st0" d="M51.3,31.5l-18-16c-0.8-0.7-1.9-0.7-2.7,0l-18,16c-0.8,0.7-0.9,2-0.2,2.8c0.7,0.8,2,0.9,2.8,0.2l2.7-2.4V49
		h8.6h0.1c0,0,3.6-17.6,3.9-18.8c0.6-0.6,1.7-0.4,1.7-0.4c1.1,0,1.5,0.7,1.9,1.4l1.1,1.8c0.9,1.6,2.7,2.7,4.8,2.7v2.2
		c-2.5,0-4.7-1.1-6.1-2.8l-0.7,3.3l2.3,2.2V49H46V32.1l2.7,2.4c0.4,0.3,0.9,0.5,1.3,0.5c0.6,0,1.1-0.2,1.5-0.7
		C52.2,33.5,52.2,32.2,51.3,31.5z M29.9,29.9l-1.2,5.9c-0.2,0.8-1,1.4-2,1.2c-0.9-0.1-1.5-0.9-1.3-1.8l1.2-5.9c0.2-0.8,1-1.4,2-1.2
		C29.6,28.3,30.1,29.1,29.9,29.9z M33.9,29.5c-1.2,0-2.2-1-2.2-2.2s1-2.2,2.2-2.2c1.2,0,2.2,1,2.2,2.2S35.1,29.5,33.9,29.5z"/>
</g>
</svg>
