<?xml version="1.0" encoding="utf-8"?>
<!-- Generator: Adobe Illustrator 27.0.0, SVG Export Plug-In . SVG Version: 6.00 Build 0)  -->
<svg version="1.1" id="Layer_1" xmlns="http://www.w3.org/2000/svg" xmlns:xlink="http://www.w3.org/1999/xlink" x="0px" y="0px"
	 viewBox="0 0 64 64" style="enable-background:new 0 0 64 64;" xml:space="preserve">
<style type="text/css">
	.st0{fill:#488BC2;}
</style>
<path id="Vrstva_3_kopie" class="st0" d="M40,14c-4,0-6.5,1.7-8,3.8c-1.5-2.1-4-3.8-8-3.8c-7.9,0-10,6.5-10,10h4c0-1,0.4-6,6-6
	s6,5,6,6v20h4V24c0-1,0.4-6,6-6s6,5,6,6h4C50,20.5,47.9,14,40,14z M36,38.1V46h-8v-7.9c-9.1,0.6-16,3-16,5.9c0,3.3,9,6,20,6
	s20-2.7,20-6C52,41.1,45.1,38.7,36,38.1z"/>
</svg>
