<?xml version="1.0" encoding="utf-8"?>
<!-- Generator: Adobe Illustrator 27.0.0, SVG Export Plug-In . SVG Version: 6.00 Build 0)  -->
<svg version="1.1" id="Layer_1" xmlns="http://www.w3.org/2000/svg" xmlns:xlink="http://www.w3.org/1999/xlink" x="0px" y="0px"
	 viewBox="0 0 64 64" style="enable-background:new 0 0 64 64;" xml:space="preserve">
<style type="text/css">
	.st0{fill:#654B38;}
</style>
<g id="Vrstva_3_kopie">
	<g>
		<g>
			<path class="st0" d="M32,12c-11,0-20,9-20,20s9,20,20,20s20-9,20-20S43,12,32,12z M32,32v5c1.7,0,3,1.3,3,3s-1.3,3-3,3v5
				c-8.8,0-16-7.2-16-16c0-8.5,6.7-15.5,15.2-16c0.3,0,0.5,0,0.8,0c4.4,0,8,3.6,8,8S36.4,32,32,32z"/>
		</g>
	</g>
	<g>
		<g>
			<path class="st0" d="M32,32c-4.4,0-8,3.6-8,8s3.6,8,8,8s8-3.6,8-8S36.4,32,32,32z M32,43c-1.7,0-3-1.3-3-3s1.3-3,3-3
				c1.7,0,3,1.3,3,3S33.7,43,32,43z"/>
		</g>
	</g>
	<g>
		<circle class="st0" cx="32" cy="24" r="3"/>
	</g>
</g>
</svg>
