<?xml version="1.0" encoding="utf-8"?>
<!-- Generator: Adobe Illustrator 27.0.0, SVG Export Plug-In . SVG Version: 6.00 Build 0)  -->
<svg version="1.1" id="Layer_1" xmlns="http://www.w3.org/2000/svg" xmlns:xlink="http://www.w3.org/1999/xlink" x="0px" y="0px"
	 viewBox="0 0 64 64" style="enable-background:new 0 0 64 64;" xml:space="preserve">
<style type="text/css">
	.st0{fill:#488BC2;}
</style>
<g id="Vrstva_3_kopie">
	<g>
		<path class="st0" d="M16,41c0,1.8,0.8,3.3,2,4.4V49c0,1.1,0.9,2,2,2h2c1.1,0,2-0.9,2-2v-2h16v2c0,1.1,0.9,2,2,2h2c1.1,0,2-0.9,2-2
			v-3.6c1.2-1.1,2-2.7,2-4.4V21c0-7-7.2-8-16-8s-16,1-16,8V41z M23,43c-1.7,0-3-1.3-3-3s1.3-3,3-3s3,1.3,3,3S24.7,43,23,43z M41,43
			c-1.7,0-3-1.3-3-3s1.3-3,3-3s3,1.3,3,3S42.7,43,41,43z M44,31H20V21h24V31z"/>
	</g>
</g>
</svg>
