<?xml version="1.0" encoding="utf-8"?>
<!-- Generator: Adobe Illustrator 27.0.0, SVG Export Plug-In . SVG Version: 6.00 Build 0)  -->
<svg version="1.1" id="Vrstva_3" xmlns="http://www.w3.org/2000/svg" xmlns:xlink="http://www.w3.org/1999/xlink" x="0px" y="0px"
	 viewBox="0 0 48 48" enable-background="new 0 0 48 48" xml:space="preserve">
<path fill="#488BC2" d="M4,44v-4c0.094,0,9.529-0.013,18.816-0.992C39.804,37.217,40,34.032,40,34c0-2.406-3.282-3.12-8.289-3.935
	C27.159,29.325,22,28.485,22,24s5.159-5.325,9.711-6.065C36.718,17.12,40,16.406,40,14c0-0.032-0.196-3.217-17.184-5.008
	C13.529,8.012,4.094,8,4,8V4c0.096,0,9.715,0.012,19.209,1.011C37.588,6.524,44,9.297,44,14c0,5.988-6.731,7.083-11.646,7.883
	C29.823,22.294,26,22.917,26,24c0,1.084,3.823,1.706,6.354,2.117C37.269,26.917,44,28.012,44,34c0,4.703-6.412,7.476-20.791,8.989
	C13.715,43.988,4.096,44,4,44z"/>
<g>
</g>
<g>
</g>
<g>
</g>
<g>
</g>
<g>
</g>
<g>
</g>
</svg>
