<?xml version="1.0" encoding="utf-8"?>
<!-- Generator: Adobe Illustrator 27.0.0, SVG Export Plug-In . SVG Version: 6.00 Build 0)  -->
<svg version="1.1"
	 id="svg4" xmlns:dc="http://purl.org/dc/elements/1.1/" xmlns:rdf="http://www.w3.org/1999/02/22-rdf-syntax-ns#" xmlns:sodipodi="http://sodipodi.sourceforge.net/DTD/sodipodi-0.dtd" xmlns:inkscape="http://www.inkscape.org/namespaces/inkscape" xmlns:cc="http://creativecommons.org/ns#" xmlns:svg="http://www.w3.org/2000/svg"
	 xmlns="http://www.w3.org/2000/svg" xmlns:xlink="http://www.w3.org/1999/xlink" x="0px" y="0px" viewBox="0 0 48 48"
	 style="enable-background:new 0 0 48 48;" xml:space="preserve">
<style type="text/css">
	.st0{fill:#4F4F4F;}
</style>
<path id="path2" class="st0" d="M21.6,26.4c0.7,0.6,0.7,1.7,0,2.4c-0.6,0.6-1.7,0.6-2.4,0c-3.2-3.2-3.2-8.5,0-11.7l0,0l5.9-5.9
	c3.2-3.2,8.5-3.2,11.7,0s3.2,8.5,0,11.7l-2.4,2.4c0-1.4-0.2-2.7-0.7-4l0.8-0.8c2-1.9,2-5,0-7c-1.9-2-5-2-7,0l-5.8,5.8
	C19.7,21.3,19.7,24.4,21.6,26.4 M26.4,19.4c0.6-0.6,1.7-0.6,2.4,0c3.2,3.2,3.2,8.5,0,11.7l0,0L22.9,37c-3.2,3.2-8.5,3.2-11.7,0
	s-3.2-8.5,0-11.7l2.4-2.4c0,1.4,0.2,2.7,0.7,4l-0.8,0.8c-2,1.9-2,5,0,7c1.9,2,5,2,7,0l5.8-5.8c2-1.9,2-5,0-7
	C25.7,21,25.7,20,26.4,19.4z"/>
</svg>
