<?xml version="1.0" encoding="utf-8"?>
<!-- Generator: Adobe Illustrator 27.0.0, SVG Export Plug-In . SVG Version: 6.00 Build 0)  -->
<svg version="1.1" id="Vrstva_1" xmlns="http://www.w3.org/2000/svg" xmlns:xlink="http://www.w3.org/1999/xlink" x="0px" y="0px"
	 viewBox="0 0 64 64" style="enable-background:new 0 0 64 64;" xml:space="preserve">
<style type="text/css">
	.st0{fill:#3C7D00;}
</style>
<path id="Vrstva_3_kopie" class="st0" d="M52,52c-2.2,0-3.5-0.7-4.4-1.3c-0.7-0.4-1.2-0.7-2.3-0.7s-1.6,0.3-2.3,0.7
	c-0.9,0.5-2.1,1.3-4.4,1.3s-3.5-0.7-4.4-1.3C33.6,50.3,33.1,50,32,50c-1.1,0-1.6,0.3-2.3,0.7c-0.9,0.5-2.2,1.3-4.4,1.3
	s-3.5-0.7-4.4-1.3c-0.7-0.5-1.2-0.7-2.3-0.7c-1.1,0-1.6,0.3-2.3,0.7C15.5,51.3,14.2,52,12,52v-4c1.1,0,1.6-0.3,2.3-0.7
	c0.9-0.5,2.2-1.3,4.4-1.3s3.5,0.7,4.4,1.3c0.7,0.5,1.2,0.7,2.3,0.7c1.1,0,1.6-0.3,2.3-0.7c0.9-0.5,2.2-1.3,4.4-1.3s3.5,0.7,4.4,1.3
	c0.7,0.4,1.2,0.7,2.3,0.7s1.6-0.3,2.3-0.7c0.9-0.5,2.1-1.3,4.4-1.3c2.2,0,3.5,0.7,4.4,1.3c0.7,0.5,1.2,0.7,2.3,0.7v4H52z M52,44
	c-2.2,0-3.5-0.7-4.4-1.3c-0.7-0.4-1.2-0.7-2.3-0.7s-1.6,0.3-2.3,0.7c-0.9,0.5-2.1,1.3-4.4,1.3s-3.5-0.7-4.4-1.3
	C33.6,42.3,33.1,42,32,42c-1.1,0-1.6,0.3-2.3,0.7c-0.9,0.5-2.2,1.3-4.4,1.3s-3.5-0.7-4.4-1.3c-0.7-0.5-1.2-0.7-2.3-0.7
	c-1.1,0-1.6,0.3-2.3,0.7C15.5,43.3,14.2,44,12,44v-4c1.1,0,1.6-0.3,2.3-0.7c0.9-0.5,2.2-1.3,4.4-1.3s3.5,0.7,4.4,1.3
	c0.7,0.5,1.2,0.7,2.3,0.7c1.1,0,1.6-0.3,2.3-0.7c0.9-0.5,2.2-1.3,4.4-1.3s3.5,0.7,4.4,1.3c0.7,0.4,1.2,0.7,2.3,0.7s1.6-0.3,2.3-0.7
	c0.9-0.5,2.1-1.3,4.4-1.3c2.2,0,3.5,0.7,4.4,1.3c0.7,0.5,1.2,0.7,2.3,0.7v4H52z M26,24h4l-6-6h4l-6-6l-6,6h4l-6,6h4l-6,6h8v4h4v-4h8
	L26,24z M46,24h4l-6-6h4l-6-6l-6,6h4l-6,6h4l-6,6h8v4h4v-4h8L46,24z"/>
</svg>
