<?xml version="1.0" encoding="utf-8"?>
<!-- Generator: Adobe Illustrator 27.0.0, SVG Export Plug-In . SVG Version: 6.00 Build 0)  -->
<svg version="1.1" id="Layer_1" xmlns="http://www.w3.org/2000/svg" xmlns:xlink="http://www.w3.org/1999/xlink" x="0px" y="0px"
	 viewBox="0 0 64 64" style="enable-background:new 0 0 64 64;" xml:space="preserve">
<style type="text/css">
	.st0{fill:#3C7D00;}
</style>
<g id="Vrstva_3_kopie">
	<g>
		<g>
			<polygon class="st0" points="25.6,30.2 28,37.7 36,37.7 38.4,30.2 32,25.6 			"/>
		</g>
		<g>
			<path class="st0" d="M50.4,24.2c-1.1-2.5-2.5-4.6-4.3-6.4c-1.8-1.8-3.9-3.2-6.4-4.3S34.7,12,32,12s-5.3,0.5-7.8,1.6
				c-2.5,1.1-4.6,2.5-6.4,4.3c-1.8,1.8-3.2,3.9-4.3,6.4C12.5,26.7,12,29.3,12,32c0,2.7,0.5,5.3,1.6,7.8c1.1,2.5,2.5,4.6,4.3,6.4
				c1.8,1.8,3.9,3.2,6.4,4.3c2.5,1.1,5.1,1.6,7.8,1.6s5.3-0.5,7.8-1.6s4.6-2.5,6.4-4.3c1.8-1.8,3.2-3.9,4.3-6.4
				c1.1-2.5,1.6-5.1,1.6-7.8C52,29.3,51.5,26.7,50.4,24.2z M49.1,32c0,3.7-1.1,7.1-3.3,10.1l-0.7-2.9l-7.3,0.9l-3.1,6.7l2.6,1.5
				c-1.7,0.6-3.5,0.9-5.4,0.9s-3.6-0.3-5.4-0.9l2.6-1.5l-3.1-6.7l-7.3-0.9l-0.7,2.9c-2.2-3-3.3-6.4-3.3-10.1v-0.1l2.3,2l5.4-5
				l-1.4-7.2l-3,0.3c2.2-3.1,5.1-5.2,8.7-6.3l-1.2,2.8L32,22l6.4-3.5l-1.2-2.8c3.6,1.1,6.4,3.2,8.7,6.3l-3-0.3l-1.4,7.2l5.4,5
				L49.1,32L49.1,32L49.1,32z"/>
		</g>
	</g>
</g>
</svg>
