<?xml version="1.0" encoding="utf-8"?>
<!-- Generator: Adobe Illustrator 27.0.0, SVG Export Plug-In . SVG Version: 6.00 Build 0)  -->
<svg version="1.1" id="Layer_1" xmlns="http://www.w3.org/2000/svg" xmlns:xlink="http://www.w3.org/1999/xlink" x="0px" y="0px"
	 viewBox="0 0 48 48" style="enable-background:new 0 0 48 48;" xml:space="preserve">
<style type="text/css">
	.st0{fill:#755741;}
</style>
<path class="st0" d="M41.1,43H36c-0.9,0-1.7-0.6-1.7-1.5l1.5-35.2c0.1-0.4,0.2-0.7,0.5-0.9C36.6,5.1,37,5,37.3,5h2.4
	c0.4,0,0.7,0.1,1,0.4s0.4,0.6,0.5,0.9l1.5,35.2C42.8,42.4,42.1,43,41.1,43z M33,22.6c-0.2-0.5-0.6-0.9-1-1.1l-11-8
	c-0.6-0.4-1.2-0.6-1.8-0.6c-0.7,0-1.3,0.2-1.8,0.6L6.2,21.4c-0.4,0.3-0.7,0.7-1,1.1C5,23,4.9,23.5,4.9,24v17.3
	c0,0.5,0.1,0.8,0.4,1.1s0.7,0.4,1.1,0.4h25.3c0.5,0,0.8-0.1,1.1-0.4c0.3-0.3,0.4-0.7,0.4-1.1V24C33.4,23.5,33.3,23,33,22.6z
	 M22.2,24.6L22.2,24.6L22.2,24.6c0.2-0.1,0.3-0.1,0.4,0c2,2.7-1.1,5.8-1.2,5.8c0,0-0.1,0.1-0.2,0.1c0,0,0,0-0.1,0s-0.1-0.1-0.2-0.2
	C19.5,26.7,21.5,25.1,22.2,24.6z M19,21c0.1-0.1,0.2-0.1,0.3,0c2.8,2.1,0.1,5.9,0,6c0,0.1-0.1,0.1-0.2,0.1l0,0c-0.1,0-0.2,0-0.2-0.1
	C16.4,23.4,19,21.1,19,21z M13.6,18.7L13.6,18.7C13.7,18.7,13.7,18.7,13.6,18.7c0.1-0.2,0.2-0.3,0.3-0.3s0.1,0.1,0.2,0.1
	c3.5,2.4,2.9,4.5,2.7,5.1c0,0,0,0,0,0.1s-0.1,0.2-0.2,0.2l0,0l0,0l0,0l0,0c-1.4-0.2-3-1.2-2.9-5.1C13.6,18.8,13.6,18.8,13.6,18.7z
	 M12.7,25c0-0.2,0.2-0.3,0.3-0.3c0.3-0.1,3.3-1,5.3,2.6c0,0.1,0,0.2,0,0.2c0,0.1-0.1,0.1-0.2,0.1c0,0-0.4,0.1-1,0.1
	C15.7,27.7,13.2,27.4,12.7,25z M14.3,29.6c0-0.1,0-0.2,0-0.2l0.1-0.1c0.9-0.6,3.1-1.5,5.8,1.5c0.1,0.1,0.1,0.1,0.1,0.2
	s-0.1,0.1-0.2,0.2c0,0-1.1,0.4-2.3,0.4C16.6,31.5,15.1,31.1,14.3,29.6z M22.6,34.7c0,0-1.1,0.4-2.3,0.4c-1.3,0-2.7-0.4-3.5-1.9
	c0-0.1,0-0.2,0-0.2l0.1-0.1c0.9-0.6,3.1-1.5,5.8,1.5c0.1,0.1,0.1,0.1,0.1,0.2C22.7,34.6,22.7,34.7,22.6,34.7z M25.3,40
	c-0.1,0.4-0.5,0.7-0.9,0.7c-0.1,0-0.2,0-0.3-0.1c-0.5-0.2-0.8-0.7-0.6-1.3c0-0.1,0.4-1.3-0.3-3c-0.2-0.5,0.1-1.1,0.6-1.3
	s1.1,0.1,1.3,0.6C25.9,38.1,25.4,39.8,25.3,40z M23.8,33.8c0,0-0.1,0.1-0.2,0.1c0,0,0,0-0.1,0s-0.1-0.1-0.2-0.2
	c-1.5-3.7,0.5-5.4,1.2-5.8l0,0c0,0,0,0,0.1,0c0.1-0.1,0.2,0,0.3,0.1C26.9,30.6,23.8,33.8,23.8,33.8z"/>
</svg>
