<?xml version="1.0" encoding="utf-8"?>
<!-- Generator: Adobe Illustrator 27.0.0, SVG Export Plug-In . SVG Version: 6.00 Build 0)  -->
<svg version="1.1"
	 id="Layer_2_00000115477331798411180550000000471861229391451025_" xmlns:sodipodi="http://sodipodi.sourceforge.net/DTD/sodipodi-0.dtd" xmlns:inkscape="http://www.inkscape.org/namespaces/inkscape" xmlns:svg="http://www.w3.org/2000/svg"
	 xmlns="http://www.w3.org/2000/svg" xmlns:xlink="http://www.w3.org/1999/xlink" x="0px" y="0px" viewBox="0 0 48 48"
	 style="enable-background:new 0 0 48 48;" xml:space="preserve">
<style type="text/css">
	.st0{fill:#4F4F4F;}
</style>
<path class="st0" d="M18.9,9.9c0-1.7,1.4-3.1,3.1-3.1s3.1,1.4,3.1,3.1S23.8,13,22,13C20.3,13,18.9,11.6,18.9,9.9z M38.4,34l-1.2-7.9
	c0-0.2-0.4-1.3-0.7-1.6l-0.2-0.3c-0.6-0.9-1.6-1.3-2.2-0.9l-3.8,2.6c0-0.3,0-1.9,0-3.2l0,0l0,0v-5.3l7.4-9.9c0.9-1.1,1-2.5,0.2-3
	l-0.2-0.2c-0.7-0.5-2-0.1-2.9,1.1l-6.7,8.9h-4.7l-6.6,3.2l-4.3-5.3c-0.5-0.6-1.4-0.6-2.1,0l-0.2,0.2c-0.7,0.6-0.9,1.5-0.4,2.1
	c0,0,5.1,6.3,5.3,6.4c0.6,0.6,1.2,0.9,1.9,0.6l5.1-2.4v3.7l0,0c0,0.5,0,1,0,1.6l-0.3,3l-1.9,7L14.8,41c-0.5,0.7-0.3,1.8,0.6,2.4
	l0.3,0.2c0.9,0.7,2,0.6,2.5,0l5.3-6.9c0.1-0.1,0.2-0.3,0.2-0.5c0.1-0.1,0.2-0.2,0.2-0.4l1.1-4c0.4,0.1,0.9,0.1,1.4,0.1h0.5
	c1.6,0,3.2-0.6,3.3-0.7l3.1-2.1l0.9,5.6c0.1,0.8,1.1,1.3,2.2,1.1l0.3-0.1C37.8,35.6,38.6,34.8,38.4,34z"/>
</svg>
