<?xml version="1.0" encoding="utf-8"?>
<!-- Generator: Adobe Illustrator 27.0.0, SVG Export Plug-In . SVG Version: 6.00 Build 0)  -->
<svg version="1.1" id="Layer_1" xmlns="http://www.w3.org/2000/svg" xmlns:xlink="http://www.w3.org/1999/xlink" x="0px" y="0px"
	 viewBox="0 0 64 64" style="enable-background:new 0 0 64 64;" xml:space="preserve">
<style type="text/css">
	.st0{fill:#E00052;}
	.st1{fill:#FFFFFF;}
</style>
<path class="st0" d="M32,25c-8.8,0-16,8.2-16,17c0,2.9,0.8,5.6,2.1,8c2.8,4.8,7.9,4,13.9,4s11.1,0.8,13.9-4c1.4-2.4,2.1-5.1,2.1-8
	C48,33.2,40.8,25,32,25z M16,18c2.8,0,5,2.7,5,6s-2.2,6-5,6s-5-2.7-5-6S13.2,18,16,18z M48,18c2.8,0,5,2.7,5,6s-2.2,6-5,6
	s-5-2.7-5-6S45.2,18,48,18z M38,10c2.8,0,5,2.7,5,6s-2.2,6-5,6s-5-2.7-5-6S35.2,10,38,10z M26,10c2.8,0,5,2.7,5,6s-2.2,6-5,6
	s-5-2.7-5-6S23.2,10,26,10z"/>
<polygon class="st1" points="39,43 34,43 34,48 30,48 30,43 25,43 25,39 30,39 30,34 34,34 34,39 39,39 "/>
</svg>
