<?xml version="1.0" encoding="utf-8"?>
<!-- Generator: Adobe Illustrator 27.0.0, SVG Export Plug-In . SVG Version: 6.00 Build 0)  -->
<svg version="1.1" id="Layer_1" xmlns="http://www.w3.org/2000/svg" xmlns:xlink="http://www.w3.org/1999/xlink" x="0px" y="0px"
	 viewBox="0 0 64 64" style="enable-background:new 0 0 64 64;" xml:space="preserve">
<style type="text/css">
	.st0{fill:#8763BA;}
</style>
<path id="Vrstva_3_kopie" class="st0" d="M24,23h-6c-2.2,0-4,1.8-4,4v11h3v13h8V38h3V27C28,24.8,26.2,23,24,23z M21,21
	c2.2,0,4-1.8,4-4s-1.8-4-4-4s-4,1.8-4,4S18.8,21,21,21z M43,21c2.2,0,4-1.8,4-4s-1.8-4-4-4s-4,1.8-4,4S40.8,21,43,21z M46.9,25.7
	c-0.6-1.6-2.1-2.7-3.8-2.7h-0.2c-1.7,0-3.3,1.1-3.8,2.7L36,41h4v10h6V41h4L46.9,25.7z M31,13h2v38h-2V13z"/>
</svg>
