<?xml version="1.0" encoding="utf-8"?>
<!-- Generator: Adobe Illustrator 27.0.0, SVG Export Plug-In . SVG Version: 6.00 Build 0)  -->
<svg version="1.1" id="Layer_1" xmlns="http://www.w3.org/2000/svg" xmlns:xlink="http://www.w3.org/1999/xlink" x="0px" y="0px"
	 viewBox="0 0 48 48" style="enable-background:new 0 0 48 48;" xml:space="preserve">
<style type="text/css">
	.st0{fill:#3C7D00;}
</style>
<path class="st0" d="M24,44c0-4.1,1.4-7.7,4.3-11s6.3-5.2,10.2-5.9c0.3-0.1,0.7,0,1,0.1s0.6,0.3,0.8,0.5s0.4,0.5,0.5,0.8
	s0.1,0.6,0.1,1c-0.7,3.9-2.7,7.3-6,10.2C31.7,42.6,28,44,24,44z M27.6,40.4c2.5-0.8,4.7-2.1,6.3-3.8s2.9-3.8,3.8-6.3
	c-2.5,0.8-4.7,2.1-6.3,3.8C29.7,35.8,28.4,37.9,27.6,40.4z M24,44c0-4.1-1.4-7.7-4.3-11s-6.3-5.2-10.2-5.9c-0.3-0.1-0.7,0-1,0.1
	s-0.6,0.3-0.8,0.5c-0.2,0.2-0.4,0.5-0.5,0.8s-0.1,0.6-0.1,1c0.7,3.9,2.7,7.3,6,10.2S20,44,24,44z M20.4,40.4
	c-2.5-0.8-4.7-2.1-6.3-3.8s-2.9-3.8-3.8-6.3c2.5,0.8,4.7,2.1,6.3,3.8C18.3,35.8,19.6,37.9,20.4,40.4z M30.4,23.2
	c0.7,0,1.4-0.3,1.9-0.8s0.8-1.2,0.8-1.9c0-0.5-0.1-1-0.4-1.4c-0.3-0.4-0.7-0.7-1.1-1L29.2,17c-0.2,0.9-0.4,1.7-0.8,2.4
	c-0.4,0.7-0.9,1.3-1.6,1.8l2,1.4c0.2,0.2,0.5,0.3,0.7,0.4C29.8,23.2,30.1,23.2,30.4,23.2z M29.2,16.7l2.2-1.1c0.5-0.3,0.8-0.6,1.1-1
	s0.4-0.9,0.4-1.4c0-0.7-0.3-1.4-0.8-1.9s-1.1-0.8-1.9-0.8c-0.3,0-0.5,0-0.8,0.1c-0.2,0.1-0.5,0.2-0.7,0.4l-2.1,1.4
	c0.7,0.5,1.3,1.1,1.7,1.8C28.8,14.9,29.1,15.7,29.2,16.7z M21.7,12.2c0.4-0.2,0.9-0.3,1.3-0.4c0.4-0.1,0.8-0.1,1.1-0.1
	s0.7,0,1.1,0.1s0.8,0.2,1.3,0.4l0.3-3C26.9,8.5,26.6,8,26,7.5c-0.6-0.5-1.2-0.7-1.9-0.7c-0.7,0-1.3,0.2-1.9,0.7s-0.8,1-0.8,1.7
	L21.7,12.2z M24,19.2c0.6,0,1.2-0.2,1.6-0.7s0.7-1,0.7-1.7c0-0.6-0.2-1.2-0.7-1.6s-1-0.7-1.7-0.7c-0.6,0-1.2,0.2-1.7,0.7
	s-0.7,1-0.7,1.7c0,0.6,0.2,1.2,0.7,1.7S23.4,19.2,24,19.2z M24,26.9c0.7,0,1.3-0.2,1.9-0.7s0.8-1,0.8-1.7l-0.3-3
	c-0.4,0.2-0.9,0.3-1.3,0.4S24.3,22,24,22s-0.7,0-1.1-0.1s-0.8-0.2-1.3-0.4l-0.3,3c-0.1,0.6,0.2,1.2,0.8,1.7S23.3,26.9,24,26.9z
	 M18.8,16.7c0.2-1,0.4-1.8,0.8-2.4c0.4-0.7,0.9-1.3,1.6-1.8l-2-1.4c-0.2-0.2-0.5-0.3-0.7-0.4s-0.5-0.1-0.8-0.1
	c-0.7,0-1.4,0.3-1.9,0.8S15,12.5,15,13.2c0,0.5,0.1,1,0.4,1.4c0.3,0.4,0.7,0.7,1.1,1L18.8,16.7z M17.6,23.1c0.3,0,0.5,0,0.8-0.1
	c0.2-0.1,0.5-0.2,0.7-0.4l2.1-1.4c-0.7-0.5-1.3-1.2-1.7-1.8c-0.4-0.7-0.7-1.5-0.8-2.4l-2.2,1.1c-0.5,0.3-0.8,0.6-1.1,1
	C15.1,19.6,15,20,15,20.5c0,0.7,0.3,1.3,0.8,1.9C16.3,22.9,16.9,23.1,17.6,23.1z M24,29.7c-1.1,0-2.2-0.3-3.1-1s-1.6-1.6-2.1-2.7
	c-0.2,0-0.4,0-0.6,0s-0.4,0-0.6,0c-1.5,0-2.8-0.5-3.9-1.6s-1.6-2.4-1.6-3.9c0-0.6,0.1-1.3,0.4-1.9c0.3-0.6,0.6-1.2,1.1-1.8
	c-0.4-0.6-0.8-1.2-1-1.8c-0.3-0.6-0.4-1.2-0.4-1.9c0-1.5,0.5-2.8,1.6-3.9s2.4-1.6,3.9-1.6c0.2,0,0.4,0,0.6,0s0.4,0,0.6,0
	c0.4-1.1,1.1-2,2.1-2.7c0.9-0.7,2-1,3.1-1s2.2,0.3,3.1,1s1.6,1.6,2.1,2.7c0.2,0,0.4,0,0.6,0s0.4,0,0.6,0c1.5,0,2.8,0.5,3.9,1.6
	s1.6,2.4,1.6,3.9c0,0.6-0.1,1.3-0.4,1.9s-0.6,1.2-1.1,1.8c0.4,0.6,0.8,1.2,1,1.8c0.3,0.6,0.4,1.2,0.4,1.9c0,1.5-0.5,2.8-1.6,3.9
	S31.9,26,30.4,26c-0.2,0-0.4,0-0.6,0s-0.4,0-0.6,0c-0.4,1.1-1.1,2-2.1,2.7C26.2,29.4,25.1,29.7,24,29.7z"/>
</svg>
