<?xml version="1.0" encoding="utf-8"?>
<!-- Generator: Adobe Illustrator 27.0.0, SVG Export Plug-In . SVG Version: 6.00 Build 0)  -->
<svg version="1.1" id="Layer_1" xmlns="http://www.w3.org/2000/svg" xmlns:xlink="http://www.w3.org/1999/xlink" x="0px" y="0px"
	 viewBox="0 0 64 64" style="enable-background:new 0 0 64 64;" xml:space="preserve">
<style type="text/css">
	.st0{fill:#755741;}
</style>
<path class="st0" d="M28,20c0-4.4,3.6-8,8-8s8,3.6,8,8s-3.6,8-8,8S28,24.4,28,20z M48,32l-4,2.7V32c0-2.2-1.8-4-4-4h-4H20h-4
	c-2.2,0-4,1.8-4,4v16c0,2.2,1.8,4,4,4h24c2.2,0,4-1.8,4-4v-2.7l4,2.7h4V32H48z M28,20c0-4.4-3.6-8-8-8s-8,3.6-8,8s3.6,8,8,8
	S28,24.4,28,20z"/>
</svg>
