<?xml version="1.0" encoding="utf-8"?>
<!-- Generator: Adobe Illustrator 27.0.0, SVG Export Plug-In . SVG Version: 6.00 Build 0)  -->
<svg version="1.1" id="Vrstva_3" xmlns="http://www.w3.org/2000/svg" xmlns:xlink="http://www.w3.org/1999/xlink" x="0px" y="0px"
	 viewBox="0 0 64 64" style="enable-background:new 0 0 64 64;" xml:space="preserve">
<style type="text/css">
	.st0{fill:#755741;}
</style>
<path class="st0" d="M50,12v2h-2v-2h-2v2h-2v-2h-2v2h-2v-2h-2v2v6h2v8H24v-8h2v-6v-2h-2v2h-2v-2h-2v2h-2v-2h-2v2h-2v-2h-2v2v6h2v32
	h5h5h4v-8c0-2.2,1.8-4,4-4s4,1.8,4,4v8h4h5h5V20h2v-6v-2H50z M18,27v-7h2v7H18z M46,27h-2v-7h2V27z"/>
</svg>
