<?xml version="1.0" encoding="utf-8"?>
<!-- Generator: Adobe Illustrator 27.0.0, SVG Export Plug-In . SVG Version: 6.00 Build 0)  -->
<svg version="1.1" id="Layer_1" xmlns="http://www.w3.org/2000/svg" xmlns:xlink="http://www.w3.org/1999/xlink" x="0px" y="0px"
	 viewBox="0 0 64 64" style="enable-background:new 0 0 64 64;" xml:space="preserve">
<style type="text/css">
	.st0{fill:#654B38;}
</style>
<path class="st0" d="M44,22c2.6,0,4,0,4,0l4-8c0,0-10,2-20,2s-20-2-20-2l4,8c0,0,1.4,0,4,0v4h-6v4h6v20h5V30h5h4h5v20h5V30h6v-4h-6
	V22z M25,26v-4c1.5,0,3.2,0,5,0v4H25z M34,26v-4c1.8,0,3.5,0,5,0v4H34z"/>
</svg>
