<?xml version="1.0" encoding="utf-8"?>
<!-- Generator: Adobe Illustrator 27.0.0, SVG Export Plug-In . SVG Version: 6.00 Build 0)  -->
<svg version="1.1" id="Layer_1" xmlns="http://www.w3.org/2000/svg" xmlns:xlink="http://www.w3.org/1999/xlink" x="0px" y="0px"
	 viewBox="0 0 64 64" style="enable-background:new 0 0 64 64;" xml:space="preserve">
<style type="text/css">
	.st0{fill:#488BC2;}
</style>
<path id="Vrstva_3_kopie" class="st0" d="M50,40H14c0,4.3,2.9,7.6,8,9.5V51h20v-1.5C47.1,47.6,50,44.3,50,40z M37,38h-4V24
	c0-2.4,1.6-6,6-6s6,3.6,6,6v4h-4v-4c0-0.9-0.4-2-2-2s-2,1.1-2,2V38z M27,38V20c0-0.9-0.4-2-2-2s-2,1.1-2,2v4h-4v-4c0-2.4,1.6-6,6-6
	s6,3.6,6,6v18H27z"/>
</svg>
