<?xml version="1.0" encoding="utf-8"?>
<!-- Generator: Adobe Illustrator 27.0.0, SVG Export Plug-In . SVG Version: 6.00 Build 0)  -->
<svg version="1.1" id="Layer_1" xmlns="http://www.w3.org/2000/svg" xmlns:xlink="http://www.w3.org/1999/xlink" x="0px" y="0px"
	 viewBox="0 0 50 50" style="enable-background:new 0 0 50 50;" xml:space="preserve">
<style type="text/css">
	.st0{fill:#3C7D00;}
</style>
<path class="st0" d="M36.7,37.8l-12-12l2.1-2.1l12,12L36.7,37.8z M10.7,35.7C9.1,34,7.9,32,7.2,29.9C6.4,27.7,6,25.5,6,23.3
	c0-2.4,0.4-4.7,1.3-6.9s2.2-4.3,4-6.1s3.8-3.1,6.1-4C19.7,5.4,22,5,24.3,5c2.2,0,4.4,0.4,6.5,1.2s4.1,2,5.8,3.6L10.7,35.7z
	 M10.9,31.7l3.1-3.2c-0.5-0.7-1-1.4-1.5-2.2c-0.5-0.8-0.9-1.6-1.3-2.5c-0.4-0.9-0.8-1.8-1-2.7c-0.3-0.9-0.5-1.9-0.5-2.8
	c-0.8,2.2-1.1,4.5-0.8,6.9C9.1,27.5,9.7,29.7,10.9,31.7z M16.2,26.4l11.2-11.3c-1.4-1.1-2.8-2-4.3-2.6c-1.4-0.6-2.8-1-4.1-1.2
	c-1.3-0.2-2.5-0.2-3.5,0s-1.8,0.6-2.3,1.1s-0.9,1.3-1,2.3c-0.2,1-0.1,2.2,0.1,3.4s0.7,2.6,1.3,4S15.1,25,16.2,26.4z M29.4,13
	l3.3-3.1c-2-1.3-4.2-2-6.5-2.2c-2.4-0.2-4.6,0.1-6.9,1C20.2,8.8,21.1,9,22,9.2c0.9,0.3,1.8,0.6,2.6,1c0.9,0.4,1.7,0.8,2.5,1.3
	C27.9,12,28.7,12.5,29.4,13z M44,44.2l-0.6-2.7c-6.8,1.6-10.8,0.2-14.9-1.2c-5.4-1.8-10.9-3.7-22,1.2L7.6,44
	c10.1-4.5,14.9-2.8,20-1.1c3,1,6,2,10,2C39.5,45,41.6,44.8,44,44.2z"/>
</svg>
