<?xml version="1.0" encoding="utf-8"?>
<!-- Generator: Adobe Illustrator 27.0.0, SVG Export Plug-In . SVG Version: 6.00 Build 0)  -->
<svg version="1.1" id="Layer_1" xmlns="http://www.w3.org/2000/svg" xmlns:xlink="http://www.w3.org/1999/xlink" x="0px" y="0px"
	 viewBox="0 0 64 64" style="enable-background:new 0 0 64 64;" xml:space="preserve">
<style type="text/css">
	.st0{fill:#755741;}
</style>
<path id="Vrstva_3_kopie" class="st0" d="M49.6,40.8L48.2,37L32,43l-16.2-6l-1.4,3.8l11.8,4.4l-11.8,4.4l1.4,3.8l16.2-6l16.2,6
	l1.4-3.8l-11.8-4.4L49.6,40.8z M28.6,11.9c4.8,9.3-20.6,15.4,1.5,28.2l1-0.3C25.6,32.3,47.9,23.6,28.6,11.9z M38.7,21.5
	c3.1,8.6-7.5,11-4.2,17.2l5-1.7C41.5,32.3,46.7,28.6,38.7,21.5z"/>
</svg>
