<?xml version="1.0" encoding="utf-8"?>
<!-- Generator: Adobe Illustrator 27.0.0, SVG Export Plug-In . SVG Version: 6.00 Build 0)  -->
<svg version="1.1" id="Layer_1" xmlns="http://www.w3.org/2000/svg" xmlns:xlink="http://www.w3.org/1999/xlink" x="0px" y="0px"
	 viewBox="0 0 48 48" style="enable-background:new 0 0 48 48;" xml:space="preserve">
<style type="text/css">
	.st0{fill:#755741;}
</style>
<path class="st0" d="M42.8,41.5c0,0.9-0.7,1.5-1.7,1.5H36c-0.9,0-1.7-0.6-1.7-1.5l1.5-35.2c0.1-0.4,0.2-0.7,0.5-0.9
	C36.6,5.1,37,5,37.3,5h2.4c0.4,0,0.7,0.1,1,0.4s0.4,0.6,0.5,0.9L42.8,41.5z M33,22.6c0.2,0.5,0.3,1,0.3,1.4v17.3
	c0,0.5-0.1,0.8-0.4,1.1c-0.3,0.3-0.7,0.4-1.1,0.4H6.5c-0.5,0-0.8-0.1-1.1-0.4C5.1,42.1,5,41.7,5,41.3V24c0-0.5,0.1-1,0.3-1.4
	c0.2-0.5,0.6-0.9,1-1.1l11.1-7.9c0.6-0.4,1.2-0.6,1.8-0.6c0.7,0,1.3,0.2,1.8,0.6l11.1,7.9C32.5,21.7,32.8,22.1,33,22.6z M24.1,22.6
	c0-1.4-1.1-2.5-2.5-2.5c-0.4,0-0.7,0.1-1,0.2c-0.6-0.7-1.5-1.1-2.5-1.1c-0.9,0-1.8,0.4-2.4,1c-0.1,0-0.2,0-0.4,0l0,0
	c-0.2-0.1-0.5-0.1-0.7-0.1c-1.4,0-2.5,1.1-2.5,2.5c0,0,0,0,0,0.1v0.1c0,1.4,1.5,2.5,3.3,2.5c1.6,0,2.9-0.9,3.2-2H24
	C24.1,23.1,24.1,22.8,24.1,22.6z M27.1,26.3h-3v-2h-4.7c-0.8,1.2-2.4,2-4.2,2c-0.8,0-1.5-0.2-2.2-0.4v11.5c0,1.1,0.9,2,2,2h7
	c1.1,0,2-0.9,2-2v-1h3c0.6,0,1-0.4,1-1v-8C28.1,26.7,27.7,26.3,27.1,26.3z M26.1,34.3h-2v-6h2V34.3z"/>
</svg>
