<?xml version="1.0" encoding="utf-8"?>
<!-- Generator: Adobe Illustrator 27.0.0, SVG Export Plug-In . SVG Version: 6.00 Build 0)  -->
<svg version="1.1" id="Layer_1" xmlns="http://www.w3.org/2000/svg" xmlns:xlink="http://www.w3.org/1999/xlink" x="0px" y="0px"
	 viewBox="0 0 64 64" style="enable-background:new 0 0 64 64;" xml:space="preserve">
<style type="text/css">
	.st0{fill:#488BC2;}
</style>
<path id="Vrstva_3_kopie" class="st0" d="M39,38c1.1,0,2,0.9,2,2s-0.9,2-2,2s-2-0.9-2-2S37.9,38,39,38z M25,38c1.1,0,2,0.9,2,2
	s-0.9,2-2,2s-2-0.9-2-2S23.9,38,25,38z M22,26h20v10H22V26z M43.6,13.6C40,12.2,35.7,12,32,12s-8,0.2-11.6,1.6
	c-5.3,2.1-8.4,6.5-8.4,12.1V52h40V25.7C52,20.1,48.9,15.7,43.6,13.6z M44,39.8c0,2.9-2.4,5.2-5.3,5.2l2.3,2.2V48h-3l-3-3h-5.7l-3,3
	H23v-0.8l2.2-2.2c-2.9,0-5.2-2.4-5.2-5.2V26c0-5.3,6-6,12-6c6.6,0,12,0.8,12,6V39.8z"/>
</svg>
