<?xml version="1.0" encoding="utf-8"?>
<!-- Generator: Adobe Illustrator 27.0.0, SVG Export Plug-In . SVG Version: 6.00 Build 0)  -->
<svg version="1.1" id="Layer_1" xmlns="http://www.w3.org/2000/svg" xmlns:xlink="http://www.w3.org/1999/xlink" x="0px" y="0px"
	 viewBox="0 0 64 64" style="enable-background:new 0 0 64 64;" xml:space="preserve">
<style type="text/css">
	.st0{fill:#00AD10;}
</style>
<path class="st0" d="M38,19c-2.4,2.9-2.7,6.2-2.4,8.9c0,0.1-0.1,0.1-0.1,0.2c-1.6,2.9-3.1,6.3-4.2,9.5L19.6,14.2l-7.2,3.6l16,32
	c0.7,1.4,2.1,2.2,3.6,2.2c0.1,0,0.3,0,0.4,0c1.6-0.2,3-1.3,3.5-2.9c0-0.1,3-10.6,6.6-17.1c0.1-0.2,0.2-0.4,0.3-0.6
	c2.8-1,5.7-2.4,7.2-4.3c3-4,3-13,3-13S43,13,38,19z M41.3,28L39,26.7C40.3,21,51,16,51,16S43.8,20.5,41.3,28z"/>
</svg>
