<?xml version="1.0" encoding="utf-8"?>
<!-- Generator: Adobe Illustrator 27.0.0, SVG Export Plug-In . SVG Version: 6.00 Build 0)  -->
<svg version="1.1" id="Layer_1" xmlns="http://www.w3.org/2000/svg" xmlns:xlink="http://www.w3.org/1999/xlink" x="0px" y="0px"
	 viewBox="0 0 64 64" style="enable-background:new 0 0 64 64;" xml:space="preserve">
<style type="text/css">
	.st0{fill:#654B38;}
</style>
<polygon class="st0" points="49,32 49,28 47,28 47,24 45,24 45,20 43,20 43,16 41,16 41,12 37,12 37,16 34,16 34,12 30,12 30,16 
	27,16 27,12 23,12 23,16 21,16 21,20 19,20 19,24 17,24 17,28 15,28 15,32 13,32 13,36 13,36 13,52 28,52 28,40 36,40 36,52 51,52 
	51,36 51,35 51,32 "/>
</svg>
