<svg xmlns="http://www.w3.org/2000/svg" xml:space="preserve" style="enable-background:new 0 0 48 48" viewBox="0 0 48 48"><path d="M43 31.9c0-1 1-2.9 1-4 0-1-1-2.9-1-4s1-2.9 1-4c0-1-1-2.9-1-4 0-1 .9-2.9 1-4V9.7c0-1-.8-1.8-1.8-1.8 0 0-2.4-.1-3.2 0-1.3.1-3.7 1-5 1s-3.7-1-5-1-3.7 1-5 1-3.7-1-5-1-3.7 1-5 1-3.7-.9-5-1c-.8-.1-3.2 0-3.2 0C4.8 8.2 4 9 4 10v2.2c.1 1 1 2.9 1 4 0 1-1 2.9-1 4 0 1 1 2.9 1 4s-1 2.9-1 4c0 1 1 2.9 1 4 0 1-1 4-1 4V38c0 1 .8 1.8 1.8 1.8 0 0 2.4.1 3.2 0 1.3-.1 3.7-1 5-1s3.7 1 5 1 3.7-1 5-1 3.7 1 5 1 3.7-1 5-1 3.7.9 5 1c.8.1 3.2 0 3.2 0 1 0 1.8-.8 1.8-1.8v-2.2c-.2-.9-1-2.9-1-3.9zm-2.5 4.5H20.2l.4-.3c.3-.3.4-.7.4-1.2 0-.6-.1-1.2-.3-1.7s-.3-1.1-.3-1.7.2-1 .4-1.3.5-.4.8-.4l.8.1 1.1.5a8 8 0 0 0 1.7.8l1.1.2c.7 0 1.3-.3 1.7-.8s.6-1 .6-1.6c0-.5-.2-.8-.5-1.1-.3-.3-.8-.5-1.5-.8l-1.2-.6c-.3-.2-.4-.4-.4-.7s.2-.5.6-.6l2.4-.3c1-.1 1.8-.2 2.3-.4s.8-.6.8-1.2c0-.5-.2-1.1-.5-1.5-.3-.5-.7-.7-1.2-.7l-.8.1-1 .4-.8.3-.5.1-.6-.3-.2-.7c0-.5.2-.9.6-1.3s1.2-.8 2.5-1.4 2.3-1.1 2.7-1.6c.5-.5.7-.9.7-1.4 0-.7-.3-1.3-.9-2s-1.1-1-1.6-1a2 2 0 0 0-1.3.6c-.5.4-1.1 1.3-2.1 2.7-.6 1-1.2 1.7-1.7 2s-1 .5-1.5.5c-.4 0-.9-.1-1.3-.5-.4-.3-.8-1-1.3-2-.4-.9-.8-1.5-1.1-1.9-.3-.4-.7-.6-1.2-.6-.6 0-1.1.2-1.5.4s-.6.5-.6.8.1.7.3 1l.7 1.1.6 1 .2.7c0 .3-.2.5-.5.7l-.9.3c-.3 0-.7-.1-1-.3L14 17.7l-1.3-1.1c-.3-.2-.6-.3-1-.3-.5 0-1 .1-1.3.5s-.5.7-.5 1.1l.1.6.4.7.6 1.4c0 .3-.1.5-.4.7l-1.1.5-1.2.6c-.2.2-.3.5-.3.9l.1 1 .5.7c.3.2.7.4 1.2.4h1.3c.8 0 1.3.1 1.5.4s.3.7.3 1.3c0 .4 0 .8-.2 1.2-.1.4-.4.8-.8 1.3l-1 1.6c0 .4.2.8.6 1.1.4.3.8.4 1.2.4s.8-.1 1.1-.3c.4-.2.8-.7 1.4-1.4l1.1-1.1.7-.2c.3 0 .5.1.9.7.2.3.3.7.3 1.3l-.2 1.6-.2 1.6c0 .5.1.9.4 1.2l.4.3H7.5V11.5h33v24.9zm-8.4-3.1c-.5 0-.9-.2-1.2-.5s-.5-.7-.5-1.2.2-.9.5-1.2c.3-.3.7-.5 1.2-.5s.9.2 1.2.5.5.7.5 1.2-.2.9-.5 1.2c-.4.4-.8.5-1.2.5zm5.2-15.1a2.6 2.6 0 0 0-2.6 2.6c0 1.5 1.2 2.6 2.6 2.6s2.6-1.2 2.6-2.6c.1-1.4-1.1-2.6-2.6-2.6z" style="fill:#755741"/></svg>