<?xml version="1.0" encoding="utf-8"?>
<!-- Generator: Adobe Illustrator 27.0.0, SVG Export Plug-In . SVG Version: 6.00 Build 0)  -->
<svg version="1.1" id="Layer_1" xmlns="http://www.w3.org/2000/svg" xmlns:xlink="http://www.w3.org/1999/xlink" x="0px" y="0px"
	 viewBox="0 0 64 64" style="enable-background:new 0 0 64 64;" xml:space="preserve">
<style type="text/css">
	.st0{fill:#488BC2;}
</style>
<path id="Vrstva_3_kopie" class="st0" d="M34,18l1.5-3H42v-3H22v3h9.5L30,18c-12,0-12,0-12,7v16.9c0,2.9,2.4,5.3,5.2,5.9L20,51v1
	h4.5l4-4H36l4,4h4v-1l-3-3h-0.2c3.4,0,5.2-2.7,5.2-6.1V25C46,18,46,18,34,18z M28,21h8c1.1,0,2,0.9,2,2s-0.9,2-2,2h-8
	c-1.1,0-2-0.9-2-2S26.9,21,28,21z M25,45c-1.7,0-3-1.3-3-3s1.3-3,3-3s3,1.3,3,3S26.7,45,25,45z M39,45c-1.7,0-3-1.3-3-3s1.3-3,3-3
	s3,1.3,3,3S40.7,45,39,45z M42,37H22V27h20V37z"/>
</svg>
