<?xml version="1.0" encoding="utf-8"?>
<!-- Generator: Adobe Illustrator 27.0.0, SVG Export Plug-In . SVG Version: 6.00 Build 0)  -->
<svg version="1.1" id="Layer_1" xmlns="http://www.w3.org/2000/svg" xmlns:xlink="http://www.w3.org/1999/xlink" x="0px" y="0px"
	 viewBox="0 0 48 48" style="enable-background:new 0 0 48 48;" xml:space="preserve">
<style type="text/css">
	.st0{fill:#755741;}
</style>
<path class="st0" d="M9.1,4.2c-2,1.2,0.1,8.8,4.8,17.1c0.2-2.7,2.5-4.8,5.3-4.8c0.9,0,1.8,0.2,2.5,0.6C16.9,8.7,11.2,2.9,9.1,4.2z
	 M22.2,17.3c1.4,1,2.4,2.6,2.4,4.4c0,1.9-0.9,3.5-2.4,4.4c9.7,0,17.5-2,17.5-4.4S31.9,17.4,22.2,17.3z M13.9,22.3
	c-4.7,8.3-6.8,15.9-4.8,17.1c2.1,1.2,7.7-4.6,12.6-12.9c-0.7,0.4-1.6,0.6-2.5,0.6C16.4,27.1,14.2,25,13.9,22.3z M19.2,19.1
	c1.5,0,2.7,1.2,2.7,2.7s-1.2,2.7-2.7,2.7s-2.7-1.2-2.7-2.7S17.7,19.1,19.2,19.1z M15.8,37.4l-1,6.6h7.1l-0.7-13.4
	C19.4,33.3,17.5,35.6,15.8,37.4z"/>
</svg>
