<?xml version="1.0" encoding="utf-8"?>
<!-- Generator: Adobe Illustrator 27.0.0, SVG Export Plug-In . SVG Version: 6.00 Build 0)  -->
<svg version="1.1" id="Layer_1" xmlns="http://www.w3.org/2000/svg" xmlns:xlink="http://www.w3.org/1999/xlink" x="0px" y="0px"
	 viewBox="0 0 64 64" style="enable-background:new 0 0 64 64;" xml:space="preserve">
<style type="text/css">
	.st0{fill:#488BC2;}
</style>
<path class="st0" d="M47,22.5L47,22.5L39.6,15l-2.1,2.1l4.2,4.2c-1.9,0.7-3.2,2.5-3.2,4.7c0,2.8,2.2,5,5,5c0.7,0,1.4-0.2,2-0.4V45
	c0,1.1-0.9,2-2,2s-2-0.9-2-2v-9c0-2.2-1.8-4-4-4h-2V18c0-2.2-1.8-4-4-4h-12c-2.2,0-4,1.8-4,4v32h20V35h3v10c0,2.8,2.2,5,5,5
	s5-2.2,5-5V26C48.5,24.6,47.9,23.4,47,22.5z M31.5,28h-12V18h12V28z M43.5,28c-1.1,0-2-0.9-2-2s0.9-2,2-2s2,0.9,2,2S44.6,28,43.5,28
	z"/>
</svg>
