<?xml version="1.0" encoding="UTF-8" standalone="no"?>
<!-- Generator: Adobe Illustrator 27.9.0, SVG Export Plug-In . SVG Version: 6.00 Build 0)  -->

<svg
   version="1.1"
   id="Svg"
   x="0px"
   y="0px"
   viewBox="0 0 32 32"
   style="enable-background:new 0 0 32 32;"
   xml:space="preserve"
   sodipodi:docname="poi_arete.svg"
   inkscape:version="1.1 (c68e22c387, 2021-05-23)"
   xmlns:inkscape="http://www.inkscape.org/namespaces/inkscape"
   xmlns:sodipodi="http://sodipodi.sourceforge.net/DTD/sodipodi-0.dtd"
   xmlns="http://www.w3.org/2000/svg"
   xmlns:svg="http://www.w3.org/2000/svg"><defs
   id="defs321" /><sodipodi:namedview
   id="namedview319"
   pagecolor="#ffffff"
   bordercolor="#111111"
   borderopacity="1"
   inkscape:pageshadow="0"
   inkscape:pageopacity="0"
   inkscape:pagecheckerboard="1"
   showgrid="false"
   inkscape:zoom="27.28125"
   inkscape:cx="16"
   inkscape:cy="16"
   inkscape:window-width="2560"
   inkscape:window-height="1360"
   inkscape:window-x="2551"
   inkscape:window-y="-9"
   inkscape:window-maximized="1"
   inkscape:current-layer="Svg" />
<style
   type="text/css"
   id="style2">
	.st0{fill:#999999;}
</style>
<polygon
   class="st0"
   points="20.1,5 20,5.1 20,5.3 20,5.5 20.2,5.5 20.2,5.4 20.4,5.3 20.3,5.1 "
   id="polygon4"
   style="fill:#999999" />
<polygon
   class="st0"
   points="12,6.7 11.7,6.8 11.7,7 11.9,7.1 12.1,7.1 12.2,7 12.3,6.8 12.1,6.7 "
   id="polygon6"
   style="fill:#999999" />
<polygon
   class="st0"
   points="28.3,6.7 28.1,6.9 28.2,7.1 28.4,7.1 28.5,6.9 28.4,6.8 "
   id="polygon8"
   style="fill:#999999" />
<polygon
   class="st0"
   points="3.8,7.3 3.7,7.3 3.6,7.5 3.7,7.6 3.8,7.7 3.9,7.6 3.9,7.4 "
   id="polygon10"
   style="fill:#999999" />
<polygon
   class="st0"
   points="20.1,7.8 19.9,7.9 19.8,8.1 20,8.3 20.3,8.2 20.3,7.9 "
   id="polygon12"
   style="fill:#999999" />
<polygon
   class="st0"
   points="11.6,8.9 11.4,9.2 11.7,9.4 12,9.2 12,8.9 "
   id="polygon14"
   style="fill:#999999" />
<polygon
   class="st0"
   points="3.7,9.1 3.5,9.2 3.4,9.4 3.6,9.6 3.8,9.6 4,9.5 4,9.3 3.8,9.2 "
   id="polygon16"
   style="fill:#999999" />
<polygon
   class="st0"
   points="27.9,9.2 27.7,9.4 27.7,9.6 27.9,9.7 28.2,9.7 28.3,9.5 28.2,9.3 "
   id="polygon18"
   style="fill:#999999" />
<polygon
   class="st0"
   points="19.8,9.5 19.5,9.5 19.5,9.6 19.5,9.8 19.7,10 19.9,9.9 20,9.6 19.9,9.5 "
   id="polygon20"
   style="fill:#999999" />
<polygon
   class="st0"
   points="12.3,10.1 12.2,10.3 12.2,10.5 12.4,10.6 12.7,10.5 12.7,10.3 12.6,10.1 "
   id="polygon22"
   style="fill:#999999" />
<polygon
   class="st0"
   points="20.5,10.2 20.3,10.3 20.3,10.6 20.5,10.7 20.8,10.6 20.9,10.4 20.7,10.2 "
   id="polygon24"
   style="fill:#999999" />
<polygon
   class="st0"
   points="28.5,10.3 28.2,10.5 28.3,10.8 28.7,10.8 28.8,10.5 "
   id="polygon26"
   style="fill:#999999" />
<polygon
   class="st0"
   points="11.3,10.3 11.1,10.4 11,10.6 11.3,10.8 11.6,10.7 11.8,10.6 11.7,10.3 "
   id="polygon28"
   style="fill:#999999" />
<polygon
   class="st0"
   points="4.4,10.5 4.3,10.5 4.1,10.6 4.1,10.8 4.3,11 4.5,11 4.6,10.8 4.6,10.6 "
   id="polygon30"
   style="fill:#999999" />
<polygon
   class="st0"
   points="3,10.8 2.7,10.9 2.6,11 2.8,11.2 3,11.3 3.1,11.2 3.2,11.1 3.2,10.8 "
   id="polygon32"
   style="fill:#999999" />
<polygon
   class="st0"
   points="12.4,10.9 11.9,11 11.8,11.3 12.1,11.5 12.6,11.5 12.7,11.1 "
   id="polygon34"
   style="fill:#999999" />
<polygon
   class="st0"
   points="19.7,11 19.5,11.3 19.8,11.6 20.3,11.5 20.5,11.3 20.3,11 "
   id="polygon36"
   style="fill:#999999" />
<polygon
   class="st0"
   points="19.2,14.2 19.4,14.4 19.6,14.3 19.8,14.4 19.9,14.2 19.9,14 19.6,13.9 19.4,14 "
   id="polygon38"
   style="fill:#999999" />
<polygon
   class="st0"
   points="27.6,11 27.2,11.3 27.5,11.6 28.1,11.5 28.1,11.2 "
   id="polygon40"
   style="fill:#999999" />
<polygon
   class="st0"
   points="3.8,11.5 3.3,11.5 3.2,12 3.6,12.3 3.9,11.9 "
   id="polygon42"
   style="fill:#999999" />
<polygon
   class="st0"
   points="11.1,11.5 10.7,11.7 10.8,12 11.1,12.2 11.4,12 11.4,11.7 "
   id="polygon44"
   style="fill:#999999" />
<polygon
   class="st0"
   points="29.2,11.7 28.9,12 29.1,12.3 29.5,12.2 29.6,11.9 "
   id="polygon46"
   style="fill:#999999" />
<polygon
   class="st0"
   points="12.7,11.8 12.5,12.2 12.8,12.5 13.2,12.4 13.4,12.1 13.2,11.9 "
   id="polygon48"
   style="fill:#999999" />
<polygon
   class="st0"
   points="5.1,11.9 4.9,11.9 4.8,12 4.8,12.3 5,12.3 5.2,12.3 5.3,12.2 5.3,12 "
   id="polygon50"
   style="fill:#999999" />
<polygon
   class="st0"
   points="20.5,11.9 20.1,11.9 19.9,12.1 19.7,12.3 20.1,12.4 20.3,12.3 20.6,12.3 20.7,12 "
   id="polygon52"
   style="fill:#999999" />
<polygon
   class="st0"
   points="2.5,12.1 2.2,12.3 2.2,12.6 2.5,12.8 2.8,12.6 2.8,12.3 "
   id="polygon54"
   style="fill:#999999" />
<polygon
   class="st0"
   points="18.9,11.9 18.6,12.1 18.6,12.3 18.9,12.4 19.2,12.3 19.4,12.1 19.1,11.9 "
   id="polygon56"
   style="fill:#999999" />
<polygon
   class="st0"
   points="18.9,12.6 18.5,12.8 18.5,12.9 18.3,13.1 18.2,13.3 18.4,13.4 18.6,13.4 19,13.3 19,13.2 19,13.3   19.4,13.1 19.4,12.8 "
   id="polygon58"
   style="fill:#999999" />
<polygon
   class="st0"
   points="21.4,12.1 20.9,12.2 20.9,12.5 21.3,12.7 21.7,12.4 "
   id="polygon60"
   style="fill:#999999" />
<polygon
   class="st0"
   points="4.2,12.2 4,12.3 3.9,12.6 4,12.8 4.3,12.8 4.4,12.6 4.5,12.5 4.5,12.3 "
   id="polygon62"
   style="fill:#999999" />
<polygon
   class="st0"
   points="11.6,12.2 11.3,12.3 11.1,12.6 11.4,12.8 11.8,12.9 12.1,12.8 12.2,12.5 12.1,12.2 "
   id="polygon64"
   style="fill:#999999" />
<polygon
   class="st0"
   points="27.4,12.3 27.1,12.3 26.9,12.5 27.1,12.7 27.5,12.7 27.7,12.7 27.7,12.5 27.6,12.3 "
   id="polygon66"
   style="fill:#999999" />
<polygon
   class="st0"
   points="28.8,12.4 28.4,12.5 28.2,12.8 28.6,13.1 29.2,12.9 29.3,12.6 "
   id="polygon68"
   style="fill:#999999" />
<polygon
   class="st0"
   points="10.7,12.5 10.3,12.6 10.3,13 10.7,13.1 10.9,12.8 "
   id="polygon70"
   style="fill:#999999" />
<polygon
   class="st0"
   points="20,12.9 19.7,13.1 19.6,13.4 19.9,13.6 20.3,13.7 20.5,13.4 20.4,13.3 20.4,13 "
   id="polygon72"
   style="fill:#999999" />
<polygon
   class="st0"
   points="13.6,12.6 13.4,12.8 13.3,13 13.5,13.1 13.7,13.2 13.9,13.1 13.9,12.8 13.8,12.7 "
   id="polygon74"
   style="fill:#999999" />
<polygon
   class="st0"
   points="4,13.4 3.6,13.7 4.1,14 4.7,13.8 4.6,13.4 "
   id="polygon76"
   style="fill:#999999" />
<polygon
   class="st0"
   points="21.5,14.8 21,15 21.1,15.3 21.5,15.5 21.8,15.3 21.8,15.6 21.9,15.7 21.8,15.9 21.8,15.8 21.4,15.7   21.1,15.8 21.1,15.8 20.7,15.8 20.5,15.9 20.2,15.7 19.7,15.8 19.7,16.2 20.2,16.3 20.4,16.1 20.7,16.4 21.2,16.4 21.3,16.2   21.5,16.2 21.8,16.1 21.8,16 22,16.2 22.5,16.3 22.7,15.9 22.6,15.8 22.8,15.9 23,15.7 23,15.9 23.1,15.9 23,16.2 23.4,16.5   23.8,16.2 23.7,16.1 23.8,16.2 24.1,16.2 24.2,16.1 24.4,16.2 24.7,16 24.6,16 24.8,16.1 25,16 25,16.1 25.2,16.2 25.6,16.2   25.7,15.9 25.6,15.8 25.2,15.7 25.1,15.8 24.9,15.6 24.6,15.6 24.3,15.6 24.3,15.7 24.2,15.7 24.2,15.7 24.2,15.7 23.9,15.6   23.8,15.7 23.8,15.6 23.4,15.4 23,15.5 22.9,15.5 22.6,15.4 22.5,15.4 22.5,15.4 22.2,15.3 21.9,15.3 21.9,15.3 21.9,15 "
   id="polygon78"
   style="fill:#999999" />
<polygon
   class="st0"
   points="30.1,13.8 29.8,13.9 29.6,14 29.6,14.3 29.9,14.4 30.2,14.3 30.3,14.1 "
   id="polygon80"
   style="fill:#999999" />
<polygon
   class="st0"
   points="5.4,13.5 5,13.5 5,13.8 5.3,13.9 5.6,14.1 6,14 6,13.7 5.8,13.5 "
   id="polygon82"
   style="fill:#999999" />
<polygon
   class="st0"
   points="26.7,14.5 26.5,14.6 26.5,14.8 26.6,15.1 27,15.1 27.3,14.9 27.3,14.7 27.1,14.6 "
   id="polygon84"
   style="fill:#999999" />
<polygon
   class="st0"
   points="27.9,14.7 27.5,14.7 27.3,14.9 27.5,15.2 27.9,15.3 28.2,15.2 28.3,14.8 "
   id="polygon86"
   style="fill:#999999" />
<polygon
   class="st0"
   points="11.9,15.1 11.6,15.1 11.4,15.3 11.4,15.5 11.7,15.6 12,15.6 11.9,15.6 11.8,15.9 11.6,15.7 11.3,15.7   11.4,15.6 11.3,15.4 11,15.3 10.7,15.5 10.6,15.6 10.7,15.7 10.4,15.8 10.2,15.9 10.3,16 10.3,16 10,16.2 10,16.4 10.3,16.5   10.6,16.5 10.9,16.4 10.8,16.2 10.8,16.1 11,16 10.9,15.8 10.9,15.8 11,15.9 11,16 11.2,16.1 11.2,16.1 11.1,16.1 11.2,16.3   11.4,16.5 11.7,16.4 12,16.3 11.9,16.1 11.8,16.1 11.8,15.9 12.2,16.2 12.3,16.1 12.4,16.2 12.6,16.4 12.9,16.4 13,16.3 13,16.2   13.1,16.2 13.6,16.2 13.7,15.9 13.5,15.6 13.1,15.6 13.3,15.5 13.2,15.2 12.7,15.1 12.5,15.5 12.9,15.7 13,15.7 12.8,15.9   12.7,15.9 12.7,15.7 12.3,15.5 12.1,15.6 12.1,15.5 12.2,15.3 "
   id="polygon88"
   style="fill:#999999" />
<polygon
   class="st0"
   points="2.7,13.7 2.5,13.9 2.6,14.1 3,14.2 3.3,14.1 3.4,13.9 3.2,13.7 "
   id="polygon90"
   style="fill:#999999" />
<polygon
   class="st0"
   points="16.6,14.6 16.3,14.8 16.3,14.9 16.4,15.1 16.7,15.1 17,15 17,14.8 16.8,14.7 "
   id="polygon92"
   style="fill:#999999" />
<polygon
   class="st0"
   points="7.8,15.3 7.5,15.6 7.8,15.9 8.1,15.8 8.2,16 8.4,16.1 8.7,16.1 8.9,15.9 8.8,15.7 8.7,15.6 8.4,15.6   8.3,15.7 8.3,15.4 "
   id="polygon94"
   style="fill:#999999" />
<polygon
   class="st0"
   points="26.2,15.4 25.8,15.6 25.8,15.9 26,16 26,16.2 26.3,16.2 26.5,16.4 26.5,16.4 26.3,16.5 26.4,16.7   26.6,16.8 26.8,16.8 27,16.7 27.1,16.4 26.8,16.3 26.5,16.4 26.8,16.3 26.8,16.2 26.9,16.3 27.2,16.3 27.4,16.2 27.5,15.9   27.2,15.8 26.9,15.9 26.8,16 26.6,15.9 26.6,15.9 26.6,15.9 26.6,15.6 "
   id="polygon96"
   style="fill:#999999" />
<polygon
   class="st0"
   points="9.7,15.4 9.4,15.7 9.5,15.8 9.5,15.8 9.2,15.8 9.2,16 9.1,16 8.9,16.1 8.9,16.4 8.7,16.3 8.3,16.4   8.2,16.8 8.7,16.9 9.1,16.8 9.1,16.5 9.2,16.5 9.5,16.4 9.7,16.3 9.6,16.3 9.7,16.3 10,16.2 10,16 9.9,15.9 10.3,15.9 10.2,15.5 "
   id="polygon98"
   style="fill:#999999" />
<polygon
   class="st0"
   points="0.3,15.4 0,15.5 0,15.5 0,16.2 0.1,16.2 0.2,16.1 0.3,16 0.3,15.9 0.4,15.9 0.6,15.8 0.6,15.8   0.7,15.9 0.7,16 0.5,16.2 0.7,16.3 0.7,16.4 1,16.6 1.2,16.5 1.3,16.6 1.8,16.7 2.1,16.4 2,16.3 2.1,16.3 2.5,16.3 2.6,16.2   2.6,16.2 2.7,16.3 3.1,16.2 3.1,16.3 3.6,16.5 3.9,16.2 3.9,16.2 4,16.2 3.9,16.2 4,16.4 4.3,16.5 4.5,16.4 4.7,16.3 4.7,16.2   4.8,16.4 5.3,16.3 5.5,16.1 5.3,15.8 4.7,15.8 4.5,16.1 4.4,16 4.4,16 4.2,15.7 3.7,15.7 3.6,15.9 3.2,16 3.3,15.9 2.8,15.7   2.5,15.9 2.4,15.8 2.1,15.9 1.9,16.1 1.9,16.1 1.4,16.1 1.3,16.2 1.3,16.2 1.2,16 1.2,16 1.3,15.9 1.4,15.7 1.3,15.5 1,15.5   0.7,15.6 0.7,15.8 0.6,15.5 "
   id="polygon100"
   style="fill:#999999" />
<polygon
   class="st0"
   points="6.3,15.4 6.1,15.5 6,15.6 5.9,15.6 5.7,15.6 5.4,15.8 5.6,16 6,16.1 6.2,16 6.2,15.9 6.3,15.9   6.3,15.9 6.3,16 6.3,16.1 6.6,16.3 6.8,16.3 6.8,16.3 6.8,16.5 7.1,16.6 7.3,16.6 7.5,16.5 7.5,16.4 7.7,16.5 8,16.4 8,16.1 7.8,16   7.5,16 7.3,15.7 6.8,15.8 6.7,15.8 6.6,15.8 6.7,15.7 6.6,15.5 "
   id="polygon102"
   style="fill:#999999" />
<polygon
   class="st0"
   points="29.1,15.5 28.8,15.5 28.5,15.7 28.5,15.7 28.4,15.7 28.3,15.9 28.1,15.8 27.8,16.1 27.9,16.4   28.3,16.5 28.8,16.3 28.7,16.2 28.8,16.2 29.1,16 29.1,16 29.3,15.8 29.2,15.6 "
   id="polygon104"
   style="fill:#999999" />
<polygon
   class="st0"
   points="15,15.5 14.8,15.7 14.8,15.8 14.5,15.8 14.5,15.8 14,15.8 13.8,16.1 14.1,16.3 13.9,16.3 14,16.7   14.5,16.7 14.7,16.5 14.8,16.6 15.1,16.7 15.3,16.4 15.2,16.3 15.1,16.1 15.1,16.1 15.1,16 15.2,16 15.5,15.9 15.5,15.7 15.3,15.6   "
   id="polygon106"
   style="fill:#999999" />
<polygon
   class="st0"
   points="32,15.5 31.9,15.7 31.8,15.7 31.8,15.7 31.8,15.7 31.6,15.9 31.5,15.8 31.2,15.8 31.2,15.9 31.1,15.7   30.8,15.6 30.5,15.7 30.5,15.7 30.3,15.7 30,15.7 30,15.7 29.9,15.7 29.7,15.7 29.4,15.7 29.3,15.9 29.4,16.1 29.7,16.2 29.8,16.1   29.8,16.2 30.1,16.2 30.2,16.1 30.3,16.1 30.5,16.1 30.5,16.2 30.9,16.2 31,16 31,16 31,16.2 31.3,16.3 31.5,16.3 31.7,16.2   31.8,16.2 32,16.2 "
   id="polygon108"
   style="fill:#999999" />
<polygon
   class="st0"
   points="19.3,15.6 19,15.7 18.9,15.8 18.9,16 19,16.1 18.8,16.1 18.8,16.4 19,16.5 19.3,16.5 19.5,16.3   19.4,16.1 19.5,16.1 19.6,15.9 19.5,15.7 "
   id="polygon110"
   style="fill:#999999" />
<polygon
   class="st0"
   points="18.3,15.6 17.9,15.7 17.9,15.8 17.8,15.7 17.3,15.6 17,15.9 17,15.9 16.7,16 16.7,16.2 16.9,16.4   17.2,16.5 17.4,16.3 17.4,16.2 17.8,16.2 17.9,16.1 18.2,16.3 18.6,16.1 18.7,15.8 "
   id="polygon112"
   style="fill:#999999" />
<polygon
   class="st0"
   points="15.7,16 15.6,16.1 15.4,16.3 15.6,16.4 15.8,16.5 15.8,16.8 16.2,17 16.6,16.8 16.6,16.5 16.3,16.3   16.2,16.4 16.2,16.2 16,16 "
   id="polygon114"
   style="fill:#999999" />
<polygon
   class="st0"
   points="17.7,16.3 17.5,16.4 17.6,16.6 17.7,16.8 18,16.8 18.2,16.7 18.3,16.4 18.1,16.3 "
   id="polygon116"
   style="fill:#999999" />
<polygon
   class="st0"
   points="0,16.5 0,17 0,17 0.6,16.9 0.5,16.5 "
   id="polygon118"
   style="fill:#999999" />
<polygon
   class="st0"
   points="32,16.5 31.7,16.7 32,17 32,16.5 "
   id="polygon120"
   style="fill:#999999" />
<polygon
   class="st0"
   points="1.3,16.7 1,16.8 0.8,16.9 0.8,17 0.8,17 0.7,17.3 1,17.4 1.4,17.3 1.5,17.2 1.5,17.1 1.5,17.1   1.5,16.9 "
   id="polygon122"
   style="fill:#999999" />
<polygon
   class="st0"
   points="25.3,16.5 25.1,16.6 24.9,16.7 24.9,17 25.2,17.1 25.5,17 25.7,16.9 25.6,16.7 "
   id="polygon124"
   style="fill:#999999" />
<polygon
   class="st0"
   points="8.1,16.6 7.8,16.7 7.7,16.9 7.7,17 7.9,17.1 8.3,17.2 8.4,16.9 8.3,16.8 "
   id="polygon126"
   style="fill:#999999" />
<polygon
   class="st0"
   points="13.2,16.7 12.7,17 12.9,17.3 13.5,17.3 13.7,16.9 "
   id="polygon128"
   style="fill:#999999" />
<polygon
   class="st0"
   points="30.7,16.7 30.5,16.9 30.6,17.2 31.1,17.3 31.4,17.1 31.2,16.7 "
   id="polygon130"
   style="fill:#999999" />
<polygon
   class="st0"
   points="16.8,16.7 16.3,16.9 16.2,17.2 16.5,17.4 17.1,17.3 17.1,17 "
   id="polygon132"
   style="fill:#999999" />
<polygon
   class="st0"
   points="16.5,19.4 16.2,19.5 16.1,19.7 16.3,19.8 16.6,19.9 16.7,19.8 16.9,19.7 16.8,19.5 "
   id="polygon134"
   style="fill:#999999" />
<polygon
   class="st0"
   points="6.6,17.2 6.3,17.3 6.2,17.6 6.5,17.7 6.8,17.7 7,17.5 6.9,17.3 "
   id="polygon136"
   style="fill:#999999" />
<polygon
   class="st0"
   points="5.3,16.8 5,16.9 4.9,17 5,17.3 5.3,17.3 5.6,17.3 5.7,17.1 5.5,17 "
   id="polygon138"
   style="fill:#999999" />
<polygon
   class="st0"
   points="15.8,19 15.3,19 15,19.2 14.9,19.5 15.3,19.7 15.6,19.6 16,19.5 16.1,19.2 "
   id="polygon140"
   style="fill:#999999" />
<polygon
   class="st0"
   points="23.3,16.6 23,16.7 22.8,16.9 23,17.1 23.2,17 23.5,17.1 23.7,16.9 23.6,16.7 "
   id="polygon142"
   style="fill:#999999" />
<polygon
   class="st0"
   points="23.9,19.5 23.4,19.6 23.2,19.9 23.5,20.2 23.9,20.1 24.2,19.8 "
   id="polygon144"
   style="fill:#999999" />
<polygon
   class="st0"
   points="21.9,16.9 21.3,17 21.3,17.3 21.7,17.4 22.1,17.2 "
   id="polygon146"
   style="fill:#999999" />
<polygon
   class="st0"
   points="31.8,19.4 31.4,19.2 31,19.4 31.1,19.7 31.7,19.7 "
   id="polygon148"
   style="fill:#999999" />
<polygon
   class="st0"
   points="7.2,19.2 7,19.3 6.8,19.4 6.7,19.7 7.1,19.8 7.4,19.7 7.5,19.9 7.6,20 8,20.1 8.1,19.9 8.1,19.7   7.9,19.5 7.7,19.6 7.5,19.7 7.6,19.6 7.5,19.4 "
   id="polygon150"
   style="fill:#999999" />
<polygon
   class="st0"
   points="29.9,19.3 29.5,19.3 29.4,19.5 29.6,19.7 29.9,19.7 30.2,19.6 30.1,19.4 "
   id="polygon152"
   style="fill:#999999" />
<polygon
   class="st0"
   points="14,19.3 13.9,19.5 14,19.6 14.1,19.8 14.4,19.8 14.6,19.7 14.6,19.4 14.3,19.3 "
   id="polygon154"
   style="fill:#999999" />
<polygon
   class="st0"
   points="5.8,19.5 5.5,19.7 5.7,20 6,20.1 6.4,20 6.5,19.7 6.1,19.5 "
   id="polygon156"
   style="fill:#999999" />
<polygon
   class="st0"
   points="0.5,19.9 0.1,19.9 0,20.1 0,20.3 0.3,20.4 0.6,20.4 0.7,20.2 0.7,20 "
   id="polygon158"
   style="fill:#999999" />
<polygon
   class="st0"
   points="14,20 13.7,20 13.5,20.1 13.6,20.3 13.8,20.4 14,20.4 14.2,20.3 14.3,20.1 "
   id="polygon160"
   style="fill:#999999" />
<polygon
   class="st0"
   points="22.1,20 21.9,20.1 21.9,20.3 22.1,20.5 22.3,20.4 22.5,20.3 22.4,20.1 22.3,20.1 "
   id="polygon162"
   style="fill:#999999" />
<polygon
   class="st0"
   points="30.8,20.1 30.4,20.2 30.4,20.5 30.6,20.7 30.9,20.7 31.1,20.3 "
   id="polygon164"
   style="fill:#999999" />
<polygon
   class="st0"
   points="7.3,20.1 6.9,20.2 6.7,20.4 6.7,20.6 7,20.7 7.4,20.7 7.5,20.5 7.6,20.4 "
   id="polygon166"
   style="fill:#999999" />
<polygon
   class="st0"
   points="24.4,20.2 24.1,20.3 24.1,20.5 24.2,20.7 24.5,20.7 24.7,20.5 24.6,20.3 "
   id="polygon168"
   style="fill:#999999" />
<polygon
   class="st0"
   points="15.3,20.4 15.1,20.4 14.9,20.6 15.1,20.8 15.3,20.9 15.6,20.8 15.8,20.6 15.6,20.4 "
   id="polygon170"
   style="fill:#999999" />
<polygon
   class="st0"
   points="23.2,20.6 23,20.7 22.9,20.8 22.8,21.1 23.1,21.2 23.3,21.1 23.4,21 23.4,20.8 "
   id="polygon172"
   style="fill:#999999" />
<polygon
   class="st0"
   points="6.1,20.7 5.9,20.9 5.9,21.1 6.1,21.2 6.2,21.3 6.4,21.1 6.3,21 6.3,20.8 "
   id="polygon174"
   style="fill:#999999" />
<polygon
   class="st0"
   points="30.8,21.1 30.6,21.1 30.4,21.2 30.5,21.4 30.6,21.6 30.8,21.6 31,21.4 30.9,21.2 "
   id="polygon176"
   style="fill:#999999" />
<polygon
   class="st0"
   points="15,21.3 14.6,21.3 14.5,21.7 14.8,21.9 15.2,21.7 "
   id="polygon178"
   style="fill:#999999" />
<polygon
   class="st0"
   points="16,21.4 15.8,21.5 15.8,21.6 15.8,21.8 16,21.9 16.1,21.9 16.3,21.7 16.2,21.5 "
   id="polygon180"
   style="fill:#999999" />
<polygon
   class="st0"
   points="23.6,21.5 23.4,21.7 23.6,22 24,22.1 24.1,21.8 24,21.5 "
   id="polygon182"
   style="fill:#999999" />
<polygon
   class="st0"
   points="7,21.8 6.9,21.8 6.8,22 6.8,22.2 7,22.2 7.2,22.2 7.3,22 7.2,21.8 "
   id="polygon184"
   style="fill:#999999" />
<polygon
   class="st0"
   points="31.5,22 31.3,22.1 31.2,22.2 31.2,22.5 31.5,22.5 31.6,22.4 31.7,22.2 "
   id="polygon186"
   style="fill:#999999" />
<polygon
   class="st0"
   points="23,22.3 22.9,22.5 22.9,22.6 23,22.8 23.2,22.8 23.4,22.6 23.4,22.5 23.3,22.3 "
   id="polygon188"
   style="fill:#999999" />
<polygon
   class="st0"
   points="15.4,22.5 15.1,22.6 15.2,22.8 15.3,23 15.5,23 15.6,22.9 15.6,22.6 15.5,22.5 "
   id="polygon190"
   style="fill:#999999" />
<polygon
   class="st0"
   points="31.8,23.5 31.6,23.5 31.5,23.8 31.6,23.9 31.8,24 32,23.8 31.9,23.6 "
   id="polygon192"
   style="fill:#999999" />
<polygon
   class="st0"
   points="6.6,24.5 6.6,24.6 6.6,24.8 6.9,24.8 7,24.6 6.9,24.5 "
   id="polygon194"
   style="fill:#999999" />
<polygon
   class="st0"
   points="23.1,24.9 23,25.1 23.1,25.3 23.3,25.3 23.4,25.1 23.3,24.9 "
   id="polygon196"
   style="fill:#999999" />
<polygon
   class="st0"
   points="14.8,25 14.6,25.2 14.6,25.4 14.8,25.5 15,25.4 15,25.2 "
   id="polygon198"
   style="fill:#999999" />
<polygon
   class="st0"
   points="31.3,26.3 31.2,26.5 31.2,26.6 31.4,26.8 31.6,26.7 31.6,26.5 31.5,26.3 "
   id="polygon200"
   style="fill:#999999" />
<polygon
   class="st0"
   points="12.3,14.2 11.9,14.6 12.4,14.9 13,14.7 12.9,14.3 "
   id="polygon202"
   style="fill:#999999" />
<polygon
   class="st0"
   points="21,13.8 20.7,13.8 20.5,14 20.5,14.2 20.8,14.4 21.1,14.2 21.2,14 "
   id="polygon204"
   style="fill:#999999" />
<polygon
   class="st0"
   points="13.7,14.3 13.3,14.4 13.4,14.7 13.7,14.8 13.9,14.9 14.3,14.8 14.4,14.6 14.1,14.3 "
   id="polygon206"
   style="fill:#999999" />
<polygon
   class="st0"
   points="17.8,13.9 17.7,14 17.6,14.2 17.7,14.5 18.1,14.4 18.4,14.3 18.4,14.1 18.2,14 "
   id="polygon208"
   style="fill:#999999" />
<polygon
   class="st0"
   points="18.8,14.6 18.4,14.7 18.2,14.9 18.4,15.2 18.8,15.2 19.1,15.1 19.2,14.8 "
   id="polygon210"
   style="fill:#999999" />
<polygon
   class="st0"
   points="11.1,14.5 10.9,14.7 11,14.9 11.3,15.1 11.7,14.9 11.7,14.7 11.5,14.5 "
   id="polygon212"
   style="fill:#999999" />
<polygon
   class="st0"
   points="25,14.6 24.7,14.8 24.7,15 24.8,15.1 25.1,15.1 25.4,15 25.4,14.8 25.2,14.7 "
   id="polygon214"
   style="fill:#999999" />
<polygon
   class="st0"
   points="28.4,13.7 28,13.8 27.9,14 28.1,14.1 28.4,14.3 28.6,14.2 28.7,14 28.7,13.8 "
   id="polygon216"
   style="fill:#999999" />
<polygon
   class="st0"
   points="27.6,13.3 27.1,13.3 26.8,13.6 26.7,13.8 27.2,14 27.4,13.9 27.8,13.8 27.9,13.5 "
   id="polygon218"
   style="fill:#999999" />
<polygon
   class="st0"
   points="25.8,13.6 25.7,13.8 25.9,13.9 25.9,14.1 26.3,14.2 26.5,14 26.4,13.8 26.1,13.6 "
   id="polygon220"
   style="fill:#999999" />
<polygon
   class="st0"
   points="2,14.6 2.1,14.4 2.2,14.1 2,13.9 1.7,14.1 1.5,14.3 1.4,14.3 1.2,14.3 0.9,14.5 0.9,14.8 1.1,14.9   1.3,14.9 1.4,14.7 1.5,14.5 1.5,14.6 1.7,14.7 "
   id="polygon222"
   style="fill:#999999" />
<polygon
   class="st0"
   points="9.5,14.4 9.8,14.5 9.9,14.6 9.7,14.8 9.4,14.9 9.2,14.8 9.1,14.7 9.1,14.4 "
   id="polygon224"
   style="fill:#999999" />
<polygon
   class="st0"
   points="10.2,13.6 10.7,13.7 10.9,13.9 11.1,14.2 10.6,14.4 10.3,14.2 10,14.2 9.9,13.9 "
   id="polygon226"
   style="fill:#999999" />
<polygon
   class="st0"
   points="30.5,14.7 30.2,14.7 30.2,15.1 30.5,15.1 30.8,15.3 31.1,15.2 31.2,14.9 30.9,14.7 "
   id="polygon228"
   style="fill:#999999" />
<polygon
   class="st0"
   points="29.2,14.6 29.1,14.7 29.1,14.8 29.3,15 29.5,14.9 29.5,14.7 29.4,14.6 "
   id="polygon230"
   style="fill:#999999" />
<polygon
   class="st0"
   points="5,14.6 5.3,15 4.9,15.3 4.3,15.1 4.4,14.7 "
   id="polygon232"
   style="fill:#999999" />
<polygon
   class="st0"
   points="3.6,14.7 4,14.8 3.9,15.1 3.7,15.1 3.4,15.3 3.1,15.2 3,14.9 3.3,14.7 "
   id="polygon234"
   style="fill:#999999" />
<polygon
   class="st0"
   points="6.5,14.3 6.7,14.5 6.7,14.8 6.3,14.9 6,14.8 5.9,14.5 6.1,14.3 "
   id="polygon236"
   style="fill:#999999" />
<polygon
   class="st0"
   points="12.8,13.2 12.4,13.3 12.2,13.5 12.3,13.8 12.7,13.9 13,13.7 13.1,13.4 "
   id="polygon238"
   style="fill:#999999" />
<polygon
   class="st0"
   points="14.3,13.5 14.1,13.7 14.1,13.9 14.3,14 14.5,14 14.5,13.9 14.6,13.6 14.5,13.6 "
   id="polygon240"
   style="fill:#999999" />
<polygon
   class="st0"
   points="15.2,14.7 15,14.8 15,15 15.2,15.1 15.4,15 15.4,14.8 "
   id="polygon242"
   style="fill:#999999" />
<polygon
   class="st0"
   points="21.6,13 21.3,13.3 21.5,13.6 21.9,13.5 22,13.2 "
   id="polygon244"
   style="fill:#999999" />
<polygon
   class="st0"
   points="22.7,14.2 22.3,14 21.9,14.1 22,14.5 22.6,14.5 "
   id="polygon246"
   style="fill:#999999" />
<polygon
   class="st0"
   points="7,26.3 7.2,26.2 7.2,26 7.2,25.9 7,25.9 6.9,26 6.8,26.1 6.8,26.2 "
   id="polygon248"
   style="fill:#999999" />
<polygon
   class="st0"
   points="23.7,24.3 23.9,24.2 24,24 23.8,23.8 23.5,23.9 23.5,24.2 "
   id="polygon250"
   style="fill:#999999" />
<polygon
   class="st0"
   points="31.1,24.6 31.4,24.6 31.4,24.4 31.4,24.3 31.2,24.1 31,24.2 30.9,24.4 30.9,24.6 "
   id="polygon252"
   style="fill:#999999" />
<polygon
   class="st0"
   points="7.3,24.2 7.4,23.9 7.1,23.7 6.8,23.9 6.9,24.2 "
   id="polygon254"
   style="fill:#999999" />
<polygon
   class="st0"
   points="6.6,23 6.7,22.8 6.7,22.6 6.4,22.5 6.2,22.6 6.2,22.8 6.3,23 "
   id="polygon256"
   style="fill:#999999" />
<polygon
   class="st0"
   points="4.8,18.7 5.1,18.7 5.3,18.7 5.4,18.5 5.2,18.3 4.8,18.2 4.6,18.3 4.7,18.4 "
   id="polygon258"
   style="fill:#999999" />
<polygon
   class="st0"
   points="6.1,18.6 6.4,18.6 6.6,18.5 6.5,18.3 6.3,18.2 6.1,18.1 5.8,18.1 5.8,18.4 "
   id="polygon260"
   style="fill:#999999" />
<polygon
   class="st0"
   points="7.4,19.1 8,19.2 8.1,18.9 7.7,18.6 7.3,18.7 "
   id="polygon262"
   style="fill:#999999" />
<polygon
   class="st0"
   points="8.6,17.6 8.1,17.6 8.1,17.7 7.9,17.7 7.8,17.9 7.9,18 8.2,18.1 8.6,18.1 8.6,18.1 8.6,18.1 9.1,18.1   9.1,17.9 "
   id="polygon264"
   style="fill:#999999" />
<polygon
   class="st0"
   points="15.2,17.3 15.4,17.1 15.5,17 15.4,16.8 15.1,16.7 14.8,16.9 14.8,17.1 14.9,17.2 "
   id="polygon266"
   style="fill:#999999" />
<polygon
   class="st0"
   points="13.5,19 13.7,19 13.9,18.9 13.9,18.8 14,18.7 14,18.5 13.7,18.4 13.4,18.5 13.2,18.6 13.3,18.7   13.2,18.7 13.2,18.9 "
   id="polygon268"
   style="fill:#999999" />
<polygon
   class="st0"
   points="15.4,18.3 15.7,18.1 15.6,17.8 15.1,17.7 14.7,18 14.9,18.3 "
   id="polygon270"
   style="fill:#999999" />
<polygon
   class="st0"
   points="14,18 14.2,17.9 14.3,17.7 14.1,17.5 13.8,17.5 13.6,17.6 13.5,17.8 13.6,18 "
   id="polygon272"
   style="fill:#999999" />
<polygon
   class="st0"
   points="17.6,17.6 17.4,17.6 17.1,17.8 17.1,17.8 17,17.8 16.9,18 16.7,17.9 16.4,18.2 16.5,18.4 16.9,18.6   17.3,18.3 17.3,18.3 17.4,18.3 17.7,18.1 17.7,18.1 17.9,17.9 17.8,17.7 "
   id="polygon274"
   style="fill:#999999" />
<polygon
   class="st0"
   points="22,19.5 22.5,19.3 22.6,19 22.3,18.8 21.8,18.9 21.7,19.2 "
   id="polygon276"
   style="fill:#999999" />
<polygon
   class="st0"
   points="23.3,18.8 23.7,18.7 23.6,18.3 23.3,18.1 23,18.3 23,18.6 "
   id="polygon278"
   style="fill:#999999" />
<polygon
   class="st0"
   points="21.7,18.5 21.9,18.2 21.6,17.9 21.2,17.9 21,18.2 21.2,18.5 "
   id="polygon280"
   style="fill:#999999" />
<polygon
   class="st0"
   points="22.8,18.1 23.1,18 23.3,17.8 23,17.5 22.6,17.5 22.3,17.5 22.2,17.8 22.3,18.1 "
   id="polygon282"
   style="fill:#999999" />
<polygon
   class="st0"
   points="24.2,17.7 24.6,17.6 24.6,17.2 24.2,17.1 24,17.4 "
   id="polygon284"
   style="fill:#999999" />
<polygon
   class="st0"
   points="24.9,18.1 24.5,18.4 24.4,18.8 24.5,19.1 25,18.9 25.1,18.7 25.4,18.4 25.3,18.1 "
   id="polygon286"
   style="fill:#999999" />
<polygon
   class="st0"
   points="15.4,23.7 15.2,23.7 15.1,23.9 15.2,24.1 15.4,24.2 15.5,24.1 15.6,24 15.6,23.8 "
   id="polygon288"
   style="fill:#999999" />
<polygon
   class="st0"
   points="20.1,15 19.7,15.4 20.2,15.7 20.8,15.5 20.7,15.1 "
   id="polygon290"
   style="fill:#999999" />
<polygon
   class="st0"
   points="28.6,17.2 28.9,17.3 29.1,17.2 29.1,16.9 28.9,16.7 28.6,16.8 28.4,17 "
   id="polygon292"
   style="fill:#999999" />
<polygon
   class="st0"
   points="30.5,18.2 30.9,18.2 31,18 30.9,17.9 30.6,17.7 30.4,17.7 30.2,17.8 30.2,18.1 "
   id="polygon294"
   style="fill:#999999" />
<polygon
   class="st0"
   points="1.2,19.1 1.4,18.9 1.2,18.8 1.2,18.5 0.9,18.5 0.6,18.6 0.6,18.8 0.9,19 "
   id="polygon296"
   style="fill:#999999" />
<polygon
   class="st0"
   points="29.2,17.8 29,17.9 28.8,18.2 29,18.3 29.2,18.3 29.2,18.7 29.7,18.8 30.1,18.6 30,18.3 29.7,18.2   29.6,18.2 29.6,18.1 29.4,17.9 "
   id="polygon298"
   style="fill:#999999" />
<g
   id="g316"
   style="fill:#999999">
	<polygon
   class="st0"
   points="32,16.3 31.8,16.4 31.6,16.6 31.8,16.8 32,16.8 32,16.3  "
   id="polygon300"
   style="fill:#999999" />
	<polygon
   class="st0"
   points="0.3,16.7 0.4,16.5 0.3,16.4 0,16.3 0,16.8 0.1,16.9  "
   id="polygon302"
   style="fill:#999999" />
	<polygon
   class="st0"
   points="0.5,17.4 0.1,17.4 0,17.4 0,17.8 0,17.8 0.3,17.8 0.5,17.8 0.6,17.6  "
   id="polygon304"
   style="fill:#999999" />
	<polygon
   class="st0"
   points="31.9,17.5 31.8,17.6 32,17.8 32,17.4  "
   id="polygon306"
   style="fill:#999999" />
	<polygon
   class="st0"
   points="0.1,21.1 0,21 0,21.3  "
   id="polygon308"
   style="fill:#999999" />
	<polygon
   class="st0"
   points="31.4,21 31.6,21.4 32,21.4 32,21.3 32,21 31.8,20.9  "
   id="polygon310"
   style="fill:#999999" />
	<polygon
   class="st0"
   points="31.5,18.2 31,18.2 30.9,18.5 31.2,18.7 31.7,18.8 32,18.7 32,18.6 32,18.3 31.8,18.1  "
   id="polygon312"
   style="fill:#999999" />
	<polygon
   class="st0"
   points="0.2,18.4 0,18.3 0,18.6  "
   id="polygon314"
   style="fill:#999999" />
</g>
</svg>
