<?xml version="1.0" encoding="utf-8"?>
<!-- Generator: Adobe Illustrator 26.5.0, SVG Export Plug-In . SVG Version: 6.00 Build 0)  -->
<svg version="1.1" id="Vrstva_3" xmlns="http://www.w3.org/2000/svg" xmlns:xlink="http://www.w3.org/1999/xlink" x="0px" y="0px"
	 viewBox="0 0 48 48" style="enable-background:new 0 0 48 48;" xml:space="preserve">
<style type="text/css">
	.st0{fill:#755741;}
</style>
<path class="st0" d="M24.8,6L32,44H16l7.2-38c0,0,0,0,0,0l0.4-2c0,0,0,0,0,0L24,2l0.4,2c0,0,0,0,0,0L24.8,6C24.8,6,24.8,6,24.8,6z
	 M19,6.9l0.4-2.3C12.8,6.6,8,12.8,8,20c0,5.1,2.4,9.6,6.1,12.6l0.4-2.3C11.8,27.7,10,24.1,10,20C10,14,13.7,9,19,6.9z M28.6,4.7
	L29,6.9c5.2,2,9,7.1,9,13.1c0,4.1-1.8,7.7-4.5,10.3l0.4,2.3c3.7-3,6.1-7.5,6.1-12.6C40,12.8,35.2,6.6,28.6,4.7z"/>
</svg>
