<?xml version="1.0" encoding="utf-8"?>
<!-- Generator: Adobe Illustrator 27.0.0, SVG Export Plug-In . SVG Version: 6.00 Build 0)  -->
<svg version="1.1" id="Layer_1" xmlns="http://www.w3.org/2000/svg" xmlns:xlink="http://www.w3.org/1999/xlink" x="0px" y="0px"
	 viewBox="0 0 64 64" style="enable-background:new 0 0 64 64;" xml:space="preserve">
<style type="text/css">
	.st0{fill:#488BC2;}
</style>
<path class="st0" d="M40.5,45.4c-4.9,3.4-11.1,3.4-16,0c-2.4,1.7-5.2,2.6-8,2.6h-4v4h4c2.8,0,5.5-0.7,8-2c5,2.6,11,2.6,16,0
	c2.5,1.3,5.2,2,8,2H54v-4h-5.5C45.7,48,42.9,47.1,40.5,45.4z M16.5,44c3.2,0,6-1.8,8-4c2,2.2,4.8,4,8,4s6-1.8,8-4c2,2.2,4.8,4,8,4
	H54l-3-13h-4v-9H23l-6,9h-7l6.4,13H16.5z M39,24h6v7h-6V24z M31,24h6v7h-6V24z M24,24h5v7h-9L24,24z"/>
</svg>
