<?xml version="1.0" encoding="utf-8"?>
<!-- Generator: Adobe Illustrator 27.0.0, SVG Export Plug-In . SVG Version: 6.00 Build 0)  -->
<svg version="1.1" id="Layer_1" xmlns="http://www.w3.org/2000/svg" xmlns:xlink="http://www.w3.org/1999/xlink" x="0px" y="0px"
	 viewBox="0 0 64 64" style="enable-background:new 0 0 64 64;" xml:space="preserve">
<style type="text/css">
	.st0{fill:#AF5724;}
</style>
<g id="Vrstva_3_kopie">
	<g>
		<path class="st0" d="M42.4,27l-8.8-13.1c-0.4-0.6-1-0.8-1.7-0.8s-1.3,0.3-1.7,0.9L21.6,27H12c-1.1,0-2,0.9-2,2
			c0,0.2,0,0.4,0.1,0.5l5.1,18.5c0.5,1.7,2,2.9,3.8,2.9h26c1.8,0,3.4-1.2,3.9-2.9l5.1-18.5L54,29c0-1.1-0.9-2-2-2H42.4z M26,27
			l6-8.8l6,8.8H26z M32,43c-2.2,0-4-1.8-4-4c0-2.2,1.8-4,4-4s4,1.8,4,4C36,41.2,34.2,43,32,43z"/>
	</g>
</g>
</svg>
