<?xml version="1.0" encoding="UTF-8" standalone="no"?>
<!-- Generator: Adobe Illustrator 26.4.1, SVG Export Plug-In . SVG Version: 6.00 Build 0)  -->

<svg
   width="16"
   height="16"
   inkscape:version="1.1 (c68e22c387, 2021-05-23)"
   sodipodi:docname="poi_snowmobile.svg"
   version="1.1"
   viewBox="0 0 16 16"
   xml:space="preserve"
   id="svg8"
   xmlns:inkscape="http://www.inkscape.org/namespaces/inkscape"
   xmlns:sodipodi="http://sodipodi.sourceforge.net/DTD/sodipodi-0.dtd"
   xmlns="http://www.w3.org/2000/svg"
   xmlns:svg="http://www.w3.org/2000/svg"><defs
   id="defs10" /><sodipodi:namedview
   bordercolor="#111111"
   borderopacity="1"
   inkscape:current-layer="svg8"
   inkscape:cx="4.3250221"
   inkscape:cy="7.922342"
   inkscape:pagecheckerboard="1"
   inkscape:pageopacity="0"
   inkscape:pageshadow="0"
   inkscape:window-height="1009"
   inkscape:window-maximized="1"
   inkscape:window-width="1920"
   inkscape:window-x="1912"
   inkscape:window-y="-8"
   inkscape:zoom="36.415999"
   pagecolor="#ffffff"
   showgrid="false"
   id="namedview2" />
<style
   type="text/css"
   id="style4">
	.st0{fill:#231F20;}
</style>
<path
   class="st0"
   d="m 8.2741808,11.461184 c -0.063617,0.12631 -0.063617,0.25263 -0.063617,0.37894 0,0.56842 0.4453187,1.0105 1.01788,1.0105 h 5.2801832 c 0.572551,0 1.01788,-0.4421 1.01788,-1.0105 0,-0.31579 -0.159043,-0.63157 -0.413508,-0.82104 -0.03181,0.03158 -0.03181,0.06316 -0.06361,0.06316 -0.159043,0.15789 -0.445319,0.34736 -0.763395,0.34736 H 8.2742061 Z m -7.50672609,-0.66315 c 0.19085386,0 0.31808639,0.15789 0.31808639,0.31579 v 0.09474 c 0,0.53684 0.4453186,0.97894 0.9860591,0.97894 h 1.1451024 l 0.4453186,-1.1684 c -0.2862756,0 -0.5725511,-0.09474 -0.7952054,-0.284209 L 1.0856015,9.3769934 c 1.4313779,-2.0526 4.2623029,-2.6842 4.2623029,-2.6842 L 7.1609496,3.9769937 c 0.5407406,-1.1053 0.5407406,0.78947 0.5407406,0.78947 H 7.5744577 c -0.3498869,0 -0.6679731,0.18947 -0.7952056,0.53684 -0.1908537,0.4105197 -0.031807,0.8526197 0.3498869,1.1367997 l 0.031807,0.031574 0.6361623,1.2316 -1.176933,1.3895 c -0.1590432,0.18948 -0.2226544,0.41053 -0.1908539,0.66316 0.031809,0.22105 0.1272325,0.4421006 0.3180862,0.5999906 0.1590433,0.12631 0.3498868,0.18947 0.5725513,0.18947 0.2862755,0 0.5407405,-0.12632 0.6997836,-0.31579 l 1.049711,-1.2316006 c 0,0 1.7494845,-0.03157 1.7494845,-0.03157 0.349886,0 0.667973,-0.15789 0.954248,-0.47368 l 0.03181,-0.03157 v -0.03159 c 0.09542,-0.1579 0.159044,-0.28421 0.222654,-0.4421 h 1.431377 l 1.367716,2.2737006 c 0.03181,0.06316 0.03181,0.18947 0.03181,0.25263 0,0.25263 -0.349887,0.50526 -0.572552,0.50526 H 4.2664607 l -0.4453187,1.2 h 3.244423 c 0.1908537,0 0.3180862,0.15789 0.3180862,0.31578 0,0.18947 -0.159043,0.31579 -0.3180862,0.31579 H 2.0716576 c -0.9224379,0 -1.65399197,-0.72631 -1.65399197,-1.6421 v -0.09474 c 0.0318107,-0.18947 0.15904311,-0.31579 0.34988678,-0.31579 z m 7.72944099,-3.2526006 -1.5267697,1.8 c -0.1590431,0.18947 -0.1272325,0.47368 0.063616,0.63157 0.1908538,0.1578906 0.4771293,0.1263106 0.6361623,-0.06316 l 1.1769331,-1.3895 1.9402666,-0.03158 c 0.222654,0 0.413509,-0.09473 0.604351,-0.31579 0.127233,-0.18947 0.222655,-0.41052 0.190854,-0.66315 l -0.159043,-1.7684 c 0,-0.2526297 -0.09542,-0.4420997 -0.318086,-0.6315697 -0.222654,-0.15789 -0.445319,-0.25263 -0.731595,-0.25263 l -0.5725493,0.06316 c -0.4771193,0.03157 -1.5586003,0.59999 -1.9085374,0.37894 -0.3180862,-0.18947 -0.6043518,-0.06316 -0.6997837,0.15789 -0.095424,0.2210497 -0.031807,0.4420997 0.1908537,0.5999897 0.6361625,0.37894 1.1451024,0.12631 1.844876,-0.031576 l 0.5407406,-0.1579 0.1272325,1.5158 z M 11.009714,4.1981337 c 0.318086,-0.37894 0.286275,-0.94736 -0.09542,-1.2631 -0.381697,-0.31579 -0.9542484,-0.28421 -1.2723242,0.09474 -0.3180862,0.37894 -0.2862757,0.94736 0.095425,1.2631 0.3816972,0.31579 0.9542472,0.28421 1.2723242,-0.09474 z"
   fill="#ee5b00"
   id="path6"
   style="fill:#ee5900;fill-opacity:1;stroke-width:1.00365" />
</svg>
