<?xml version="1.0" encoding="utf-8"?>
<!-- Generator: Adobe Illustrator 27.0.0, SVG Export Plug-In . SVG Version: 6.00 Build 0)  -->
<svg version="1.1" id="Layer_1" xmlns="http://www.w3.org/2000/svg" xmlns:xlink="http://www.w3.org/1999/xlink" x="0px" y="0px"
	 viewBox="0 0 64 64" style="enable-background:new 0 0 64 64;" xml:space="preserve">
<style type="text/css">
	.st0{fill:#755741;}
</style>
<path id="Vrstva_3_kopie" class="st0" d="M18.9,52V40.7h-2.2v-8.2c0-1.6,1.4-3,3-3h4.5c1.6,0,3,1.4,3,3v8.2h-2.3V52H18.9z M21.9,28
	c1.7,0,3-1.3,3-3s-1.3-3-3-3s-3,1.3-3,3S20.2,28,21.9,28z M45.9,52v-9h4.5l-3.8-11.4c-0.4-1.2-1.6-2.1-2.9-2.1h-0.2
	c-1.3,0-2.4,0.8-2.8,2.1L36.9,43h4.5v9H45.9z M43.6,28c1.7,0,3-1.3,3-3s-1.3-3-3-3s-3,1.3-3,3S42,28,43.6,28z M34.6,37.7
	c0,1.2-1,2.3-2.3,2.3s-2.2-1-2.2-2.3c0-1.2,1-2.2,2.2-2.2C33.6,35.5,34.6,36.5,34.6,37.7z M35.4,47.5h-6V43c0-0.8,0.7-1.5,1.5-1.5h3
	c0.8,0,1.5,0.7,1.5,1.5V47.5z M33.9,52h-3v-6h3V52z M51.3,21.9L32,14.2l-19.3,7.7l-1.5-3.7L32,9.8l20.7,8.3L51.3,21.9z"/>
</svg>
