<?xml version="1.0" encoding="utf-8"?>
<!-- Generator: Adobe Illustrator 27.0.0, SVG Export Plug-In . SVG Version: 6.00 Build 0)  -->
<svg version="1.1" id="Layer_1" xmlns="http://www.w3.org/2000/svg" xmlns:xlink="http://www.w3.org/1999/xlink" x="0px" y="0px"
	 viewBox="0 0 64 64" style="enable-background:new 0 0 64 64;" xml:space="preserve">
<style type="text/css">
	.st0{fill:#755741;}
</style>
<path id="Vrstva_3_kopie" class="st0" d="M14,25c-3-4,1-6,1-8s1-7,7-7c7.3,0,10.9,12,17,12c6,0,13,2,13,9c0,8-4,6.7-4,13
	c0,3,0,9,0,9h-9c0,0,0-3,3-3l-0.1-2.5c0,0-2.6-1.3-2.8-5.9C39,39,40,38,40,38s-2,1-5,1c-5,0-7-5-7-5s-0.1,1.5-1,4.1
	C26,41,24,41,24,41s-1,4-2,5s-1,1-1,2s2,1,2,3s-1,2-3,2c-1.6,0-3-1-3-3c0-5,4-26,4-26S16.2,27.9,14,25z"/>
</svg>
