<?xml version="1.0" encoding="utf-8"?>
<!-- Generator: Adobe Illustrator 27.0.0, SVG Export Plug-In . SVG Version: 6.00 Build 0)  -->
<svg version="1.1" id="Vrstva_3_kopie" xmlns="http://www.w3.org/2000/svg" xmlns:xlink="http://www.w3.org/1999/xlink" x="0px"
	 y="0px" viewBox="0 0 64 64" style="enable-background:new 0 0 64 64;" xml:space="preserve">
<style type="text/css">
	.st0{fill:#8763BA;}
</style>
<path class="st0" d="M48,16H16c-2.2,0-4,1.8-4,4v24c0,2.2,1.8,4,4,4h32c2.2,0,4-1.8,4-4V20C52,17.8,50.2,16,48,16z M48,44H16V20h32
	V44z M30,42h4v-2h2c1.1,0,2-0.9,2-2v-6c0-1.1-0.9-2-2-2h-6v-2h8v-4h-4v-2h-4v2h-2c-1.1,0-2,0.9-2,2v6c0,1.1,0.9,2,2,2h6v2h-8v4h4V42
	z"/>
</svg>
