<?xml version="1.0" encoding="utf-8"?>
<!-- Generator: Adobe Illustrator 27.0.0, SVG Export Plug-In . SVG Version: 6.00 Build 0)  -->
<svg version="1.1" id="Layer_1" xmlns="http://www.w3.org/2000/svg" xmlns:xlink="http://www.w3.org/1999/xlink" x="0px" y="0px"
	 viewBox="0 0 64 64" style="enable-background:new 0 0 64 64;" xml:space="preserve">
<style type="text/css">
	.st0{fill:#00AD10;}
	.st1{fill:#FFFFFF;}
</style>
<path class="st0" d="M40,22h-3v-6h3v-4H24v4h3v6h-3c-2.2,0-4,1.8-4,4v24c0,2.2,1.8,4,4,4h16c2.2,0,4-1.8,4-4V26
	C44,23.8,42.2,22,40,22z"/>
<polygon class="st1" points="39,40 34,40 34,45 30,45 30,40 25,40 25,36 30,36 30,31 34,31 34,36 39,36 "/>
</svg>
