<?xml version="1.0" encoding="utf-8"?>
<!-- Generator: Adobe Illustrator 27.0.0, SVG Export Plug-In . SVG Version: 6.00 Build 0)  -->
<svg version="1.1"
	 id="svg6" xmlns:dc="http://purl.org/dc/elements/1.1/" xmlns:rdf="http://www.w3.org/1999/02/22-rdf-syntax-ns#" xmlns:sodipodi="http://sodipodi.sourceforge.net/DTD/sodipodi-0.dtd" xmlns:inkscape="http://www.inkscape.org/namespaces/inkscape" xmlns:cc="http://creativecommons.org/ns#" xmlns:svg="http://www.w3.org/2000/svg"
	 xmlns="http://www.w3.org/2000/svg" xmlns:xlink="http://www.w3.org/1999/xlink" x="0px" y="0px" viewBox="0 0 48 48"
	 style="enable-background:new 0 0 48 48;" xml:space="preserve">
<style type="text/css">
	.st0{fill:#4F4F4F;}
</style>
<path id="path4" class="st0" d="M40,12H16.5c-2.2-2.5-6-2.6-8.4-0.4c-1.3,1.1-2,2.7-2,4.4v18c-1.1,0-2,0.9-2,2v2h16v-2
	c0-1.1-0.9-2-2-2V20h22c2.2,0,4-1.8,4-4S42.2,12,40,12 M15,34H9V21.2c1.9,1.1,4.1,1.1,6,0V34 M12,19c-1.7,0-3-1.3-3-3s1.3-3,3-3
	s3,1.3,3,3S13.7,19,12,19 M21,18l-3-4h3l3,4H21 M29,18l-3-4h3l3,4H29 M37,18l-3-4h3l3,4H37z"/>
</svg>
