<?xml version="1.0" encoding="UTF-8"?>
<svg width="26" height="26" enable-background="new 0 0 48 48" version="1.1" viewBox="0 0 26 26" xml:space="preserve" xmlns="http://www.w3.org/2000/svg" xmlns:cc="http://creativecommons.org/ns#" xmlns:dc="http://purl.org/dc/elements/1.1/" xmlns:rdf="http://www.w3.org/1999/02/22-rdf-syntax-ns#"><metadata><rdf:RDF><cc:Work rdf:about=""><dc:format>image/svg+xml</dc:format><dc:type rdf:resource="http://purl.org/dc/dcmitype/StillImage"/></cc:Work></rdf:RDF></metadata><g transform="matrix(1 0 0 -.99997 -1.9488e-6 19.011)">
<polygon transform="matrix(-.28414 0 0 -.12771 12.649 5.2752)" points="28 40 28 30 4 30 4 18 28 18 28 8 44 24" fill="#999"/>
<path d="m8.0402 5.0349c0.63216 0 1.1469 0.55012 1.1469 1.2295 0 0.67768-0.51472 1.2295-1.1469 1.2295-0.63272 0-1.148-0.55181-1.148-1.2295 0-0.6788 0.51472-1.2295 1.148-1.2295m0 2.986c0.90357 0 1.6386-0.78613 1.6386-1.7566 0-0.97156-0.73555-1.756-1.6386-1.756-0.90413 0-1.6391 0.78613-1.6391 1.756 0 0.96931 0.73499 1.7566 1.6391 1.7566m-3.2131 0.7024h-1.3761v0.63104h1.0485l0.63609 1.1503c0.094403 0.17588 0.28152 0.2922 0.47876 0.2922 0.1534 0 0.29445-0.06687 0.39334-0.17588l1.2126-1.2969c0.10283-0.10789 0.16408-0.24949 0.16408-0.42537 0-0.22083-0.10845-0.40571-0.27759-0.51584l-1.0991-0.71364v-1.756h-0.59002v2.2831l0.7378 0.57934-0.7614 0.82546m-1.9431-4.5662c0.63216 0 1.1469 0.55012 1.1469 1.2295 0 0.67768-0.51472 1.2295-1.1469 1.2295-0.63272 0-1.1474-0.55181-1.1474-1.2295 0-0.6788 0.51472-1.2295 1.1474-1.2295m0 2.986c0.90357 0 1.6391-0.78725 1.6391-1.7566 0-0.96987-0.73499-1.756-1.6391-1.756-0.90413 0-1.6391 0.78613-1.6391 1.756 0 0.96931 0.73499 1.7566 1.6391 1.7566m0.98336 2.5286c-0.32816 0-0.59058 0.28152-0.59058 0.63272s0.26242 0.63104 0.59058 0.63104c0.3276 0 0.59002-0.27984 0.59002-0.63104s-0.26242-0.63272-0.59002-0.63272z" fill="#999" stroke="#999" stroke-width=".19579"/><polygon transform="matrix(.29039 0 0 .20574 12.976 .93712)" points="28 30 4 30 4 18 28 18 28 8 44 24 28 40" fill="#747474" stroke="#747474"/></g></svg>
