<?xml version="1.0" encoding="utf-8"?>
<!-- Generator: Adobe Illustrator 15.0.2, SVG Export Plug-In . SVG Version: 6.00 Build 0)  -->
<!DOCTYPE svg PUBLIC "-//W3C//DTD SVG 1.1//EN" "http://www.w3.org/Graphics/SVG/1.1/DTD/svg11.dtd">
<svg version="1.1" xmlns="http://www.w3.org/2000/svg" xmlns:xlink="http://www.w3.org/1999/xlink" x="0px" y="0px" width="64px"
	 height="64px" viewBox="0 0 64 64" enable-background="new 0 0 64 64" xml:space="preserve">
<g id="Vrstva_3">
	<path id="bg" fill="#FFFFFF" d="M46,17H30h-4v0.841C24.774,17.303,23.422,17,22,17s-2.774,0.303-4,0.841V17v-4h-4h-4H6v4v30v4h4h4
		h4v-4v-2h28v2v4h4h4h4v-4V29C58,22.383,52.617,17,46,17z"/>
</g>
<g id="Vrstva_3_kopie">
	<g>
		<path fill="#AF5724" d="M22,33c3.32,0,6-2.68,6-6c0-3.32-2.68-6-6-6c-3.32,0-6,2.68-6,6C16,30.32,18.68,33,22,33z"/>
	</g>
	<g>
		<path fill="#AF5724" d="M46,21H30v14H14V17h-4v30h4v-6h36v6h4V29C54,24.58,50.42,21,46,21z"/>
	</g>
</g>
</svg>
