<?xml version="1.0" encoding="utf-8"?>
<!-- Generator: Adobe Illustrator 27.0.0, SVG Export Plug-In . SVG Version: 6.00 Build 0)  -->
<svg version="1.1" id="Layer_1" xmlns="http://www.w3.org/2000/svg" xmlns:xlink="http://www.w3.org/1999/xlink" x="0px" y="0px"
	 viewBox="0 0 64 64" style="enable-background:new 0 0 64 64;" xml:space="preserve">
<style type="text/css">
	.st0{fill:#AF5724;}
</style>
<path class="st0" d="M22,29h20L32,52L22,29z M43.8,21.6c-1.1-5.5-6-9.6-11.8-9.6s-10.6,4.1-11.8,9.6C19.5,22.1,19,23,19,24
	c0,1.7,1.3,3,3,3c1,0,2-0.5,2.5-1.3C25,26.5,26,27,27,27s2-0.5,2.5-1.3C30,26.5,31,27,32,27s2-0.5,2.5-1.3C35,26.5,36,27,37,27
	s2-0.5,2.5-1.3C40,26.5,41,27,42,27c1.7,0,3-1.3,3-3C45,23,44.5,22.1,43.8,21.6z"/>
</svg>
