<?xml version="1.0" encoding="utf-8"?>
<!-- Generator: Adobe Illustrator 27.0.0, SVG Export Plug-In . SVG Version: 6.00 Build 0)  -->
<svg version="1.1" id="Vrstva_1" xmlns="http://www.w3.org/2000/svg" xmlns:xlink="http://www.w3.org/1999/xlink" x="0px" y="0px"
	 viewBox="0 0 64 64" style="enable-background:new 0 0 64 64;" xml:space="preserve">
<style type="text/css">
	.st0{fill:#3C7D00;}
</style>
<path id="Vrstva_3_kopie" class="st0" d="M52.5,49.3c-0.4,1.2-1.6,1.9-2.9,1.6l-39.2-11L10,41.4l39.2,11c2,0.6,4.2-0.6,4.8-2.6
	L52.5,49.3z M49,18.2c1.5-1.6,1.4-4.2-0.2-5.6c-1.6-1.5-4.2-1.4-5.7,0.2s-1.4,4.2,0.3,5.7C45,19.9,47.5,19.8,49,18.2z M13.2,21.9
	l12.9,1.9l-1.4,1c-0.8,1.4-0.8,3.2,0.6,4.5l6.7,6c0,0-5,3.1-7.3,4.5c-2.5,1.5-0.3,5.2,2.2,3.7L37,37.4c1.5-0.9,1.8-3.3,0.8-4.3
	l-6.3-5.9l3.9-2.1l7.6,1.1l0.1-1.5L37.6,24l2.2-1.2c3.9-2.3,0.6-8.3-3.4-6.1l-8.5,6l-15.1-2.1L13.2,21.9z"/>
</svg>
