<?xml version="1.0" encoding="utf-8"?>
<!-- Generator: Adobe Illustrator 27.0.0, SVG Export Plug-In . SVG Version: 6.00 Build 0)  -->
<svg version="1.1" id="Layer_1" xmlns="http://www.w3.org/2000/svg" xmlns:xlink="http://www.w3.org/1999/xlink" x="0px" y="0px"
	 viewBox="0 0 64 64" style="enable-background:new 0 0 64 64;" xml:space="preserve">
<style type="text/css">
	.st0{fill:#755741;}
</style>
<g id="Vrstva_3_kopie">
	<g>
		<g>
			<path class="st0" d="M28.7,51.7L32,32L20.4,48.3C22.8,50,25.6,51.2,28.7,51.7z M48.3,43.6c1.7-2.4,2.9-5.3,3.4-8.3L32,32
				L48.3,43.6z M43.6,48.3L32,32l3.3,19.7C38.4,51.2,41.2,50,43.6,48.3z M15.7,43.6L32,32l-19.7,3.3C12.8,38.4,14,41.2,15.7,43.6z
				 M12.3,28.7L32,32L15.7,20.4C14,22.8,12.8,25.6,12.3,28.7z M35.3,12.3L32,32l11.6-16.3C41.2,14,38.4,12.8,35.3,12.3z M48.3,20.4
				L32,32l19.7-3.3C51.2,25.6,50,22.8,48.3,20.4z M20.4,15.7L32,32l-3.3-19.7C25.6,12.8,22.8,14,20.4,15.7z"/>
		</g>
	</g>
	<g>
		<circle class="st0" cx="32" cy="32" r="2"/>
	</g>
</g>
</svg>
