<?xml version="1.0" encoding="utf-8"?>
<!-- Generator: Adobe Illustrator 27.0.0, SVG Export Plug-In . SVG Version: 6.00 Build 0)  -->
<svg version="1.1" id="Layer_1" xmlns="http://www.w3.org/2000/svg" xmlns:xlink="http://www.w3.org/1999/xlink" x="0px" y="0px"
	 viewBox="0 0 64 64" style="enable-background:new 0 0 64 64;" xml:space="preserve">
<style type="text/css">
	.st0{fill:#755741;}
</style>
<path id="Vrstva_3_kopie" class="st0" d="M46,36c0,0-4-8-16-8s-16,8-16,8h-2v16h24v-7c0-1.7,1.3-3,3-3s3,1.3,3,3v7h10V36H46z M20,48
	h-4v-6h4V48z M26,48h-4v-6h4V48z M32,48h-4v-6h4V48z M53,24v-4h-1v-3.1L49,10l-3,6.9V20h-1v4h1v2h-1v4h1v3v6h6v-9h1v-4h-1v-2H53z"/>
</svg>
