<?xml version="1.0" encoding="utf-8"?>
<!-- Generator: Adobe Illustrator 27.0.0, SVG Export Plug-In . SVG Version: 6.00 Build 0)  -->
<svg version="1.1" id="Layer_1" xmlns="http://www.w3.org/2000/svg" xmlns:xlink="http://www.w3.org/1999/xlink" x="0px" y="0px"
	 viewBox="0 0 64 64" style="enable-background:new 0 0 64 64;" xml:space="preserve">
<style type="text/css">
	.st0{fill:#488BC2;}
</style>
<path class="st0" d="M38.7,45.4c0,0.8-0.6,1.4-1.4,1.4H26.7c-0.4,0-0.7-0.2-1-0.4c-0.3-0.3-0.4-0.6-0.4-1V18.7
	c-0.8-0.2-1.5-0.7-2-1.2l-16,5.7L6,19.5l16-5.7c0.2-2.5,2.2-4.4,4.7-4.4c1.4,0,2.6,0.6,3.4,1.5l16-5.7l1.3,3.6l-16,5.7
	c-0.1,2-1.5,3.6-3.3,4.1v25.3h9.1C38.1,43.9,38.7,44.6,38.7,45.4z M57.7,43.9c0.3,1-0.2,2.1-1.2,2.4L24.8,57.6l0.4,1.2l31.7-11.3
	c1.7-0.6,2.5-2.4,2-4L57.7,43.9z M29.3,41.5c0.5,1.2,1.8,2,3.4,1.7l7.3-0.7c0,0-0.3,4.3-0.4,6.5c-0.2,2.4,3.4,2.7,3.6,0.3l0.6-9.1
	c0.1-1.4-1.4-2.8-2.5-2.5l-7,0.5l0.9-7.7c0.3-3.7-5.4-4.3-5.8-0.6L29.3,41.5z M36.4,21.9c-0.4-1.8-2.2-2.9-3.9-2.5
	c-1.8,0.4-2.9,2.2-2.5,4s2.2,2.9,4,2.5C35.6,25.5,36.8,23.7,36.4,21.9z"/>
</svg>
