<?xml version="1.0" encoding="utf-8"?>
<!-- Generator: Adobe Illustrator 27.0.0, SVG Export Plug-In . SVG Version: 6.00 Build 0)  -->
<svg version="1.1" id="Layer_1" xmlns="http://www.w3.org/2000/svg" xmlns:xlink="http://www.w3.org/1999/xlink" x="0px" y="0px"
	 viewBox="0 0 64 64" style="enable-background:new 0 0 64 64;" xml:space="preserve">
<style type="text/css">
	.st0{fill:#8763BA;}
	.st1{fill:#FFFFFF;}
</style>
<circle class="st0" cx="32" cy="32" r="20"/>
<path class="st1" d="M32,48c-6.6,0-12-5.4-12-12c0-5.1,1.8-9.7,4.8-13.3v0.5c0,3.1,2.3,5.6,5.4,5.6s5.1-2.5,5.1-5.6
	c0-3.2-1.1-7.2-1.1-7.2c5.9,4.7,9.8,11.9,9.8,20C44,42.6,38.6,48,32,48z"/>
<path class="st0" d="M26.7,38.8c0,2.6,2.2,4.7,4.8,4.7c4,0,7.2-3.2,7.2-7.2c0-2.1-0.3-4.1-0.9-6.1c-1.5,2.1-4.3,3.3-6.9,3.9
	C28.3,34.6,26.7,36.4,26.7,38.8z"/>
</svg>
