<?xml version="1.0" encoding="utf-8"?>
<!-- Generator: Adobe Illustrator 27.0.0, SVG Export Plug-In . SVG Version: 6.00 Build 0)  -->
<svg version="1.1" id="Vrstva_1" xmlns="http://www.w3.org/2000/svg" xmlns:xlink="http://www.w3.org/1999/xlink" x="0px" y="0px"
	 viewBox="0 0 64 64" style="enable-background:new 0 0 64 64;" xml:space="preserve">
<style type="text/css">
	.st0{fill:#654B38;}
</style>
<path class="st0" d="M45.9,32l6.9-12H38.9L32,8l-6.9,12H11.2l6.9,12l-6.9,12h13.9L32,56l6.9-12h13.9L45.9,32z M45.9,24l-2.3,4
	l-2.3-4H45.9z M41.2,32l-4.6,8h-9.2l-4.6-8l4.6-8h9.2L41.2,32z M32,16l2.3,4h-4.6L32,16z M18.1,24h4.6l-2.3,4L18.1,24z M18.1,40
	l2.3-4l2.3,4H18.1z M32,48l-2.3-4h4.6L32,48z M43.5,36l2.3,4h-4.6L43.5,36z"/>
</svg>
