<?xml version="1.0" encoding="utf-8"?>
<!-- Generator: Adobe Illustrator 27.0.0, SVG Export Plug-In . SVG Version: 6.00 Build 0)  -->
<svg version="1.1" id="Layer_1" xmlns="http://www.w3.org/2000/svg" xmlns:xlink="http://www.w3.org/1999/xlink" x="0px" y="0px"
	 viewBox="0 0 64 64" style="enable-background:new 0 0 64 64;" xml:space="preserve">
<style type="text/css">
	.st0{fill:#3C7D00;}
</style>
<path id="Vrstva_3_kopie" class="st0" d="M35,41.9c0.3,0,0.7,0.1,1,0.1c5.5,0,10-4.5,10-10c0-4.3-2.7-7.9-6.5-9.3
	C39.8,21.9,40,21,40,20c0-4.4-3.6-8-8-8s-8,3.6-8,8c0,0.9,0.2,1.8,0.5,2.7c-3.8,1.4-6.5,5-6.5,9.3c0,5.5,4.5,10,10,10
	c0.3,0,0.7,0,1-0.1V50h-9v2h9h6h9v-2h-9V41.9z"/>
</svg>
