<?xml version="1.0" encoding="utf-8"?>
<!-- Generator: Adobe Illustrator 27.0.0, SVG Export Plug-In . SVG Version: 6.00 Build 0)  -->
<svg version="1.1" id="Vrstva_1" xmlns="http://www.w3.org/2000/svg" xmlns:xlink="http://www.w3.org/1999/xlink" x="0px" y="0px"
	 viewBox="0 0 64 64" style="enable-background:new 0 0 64 64;" xml:space="preserve">
<style type="text/css">
	.st0{fill:#755741;}
</style>
<g id="Vrstva_3_kopie">
	<g>
		<path class="st0" d="M32.1,51.4c0,0-9.8-4.9,0.3-25.1c0.7-1.3,10.1,2.5,10.8,2.9c0.7,0.4,9.4,5.6,8.8,6.9
			C41.8,56.2,32.2,51.4,32.1,51.4z M35.5,34.6c-1.6-0.8-3.4-0.3-3.5-0.1c-0.1,0.2,0.8,2,2.2,2.7c1.4,0.7,3.4,0.5,3.5,0.2
			C37.9,37.1,37.1,35.4,35.5,34.6z M31.6,40.2c0,0-0.2,5.7,2.6,7c2.6,1.3,7.2-2.2,7.2-2.2s-3.3,0.8-5.9-0.5
			C32.9,43.3,31.6,40.2,31.6,40.2z M43.3,38.6c-1.6-0.8-3.4-0.3-3.5-0.1c-0.1,0.2,0.8,2,2.2,2.7c1.4,0.7,3.4,0.5,3.5,0.2
			C45.7,41,44.9,39.3,43.3,38.6z M31.2,24.7c-0.7,1.4-1.3,2.7-1.8,3.9c-0.9-0.3-1.9-0.4-2.9-0.1c-2.8,0.9-4,5.5-4,5.5s2-2.4,4.7-3.3
			c0.5-0.2,1-0.3,1.5-0.3c-1,2.6-1.7,5-2.2,7.1c-3.6-0.6-9.8-3.8-14.4-18.3c-0.5-1.4,9-5.2,9.8-5.4c0.8-0.2,10.6-2.5,11.1-1.2
			c1.6,5,2.2,9.1,2.3,12.3C33.1,24.3,31.5,24.1,31.2,24.7z M23.4,22.9c-0.1-0.3-2-0.5-3.5,0.2c-1.6,0.8-2.2,2.5-2.1,2.7
			c0.1,0.2,2,0.5,3.4-0.2C22.6,24.9,23.5,23.2,23.4,22.9z M32.1,21.3c0-0.3-1.7-1.2-3.4-1c-1.8,0.2-3,1.6-2.9,1.8
			c0,0.2,1.7,1.2,3.3,1C30.6,22.9,32.1,21.6,32.1,21.3z"/>
	</g>
</g>
</svg>
