<?xml version="1.0" encoding="utf-8"?>
<!-- Generator: Adobe Illustrator 27.0.0, SVG Export Plug-In . SVG Version: 6.00 Build 0)  -->
<svg version="1.1" id="Layer_1" xmlns="http://www.w3.org/2000/svg" xmlns:xlink="http://www.w3.org/1999/xlink" x="0px" y="0px"
	 viewBox="0 0 48 48" style="enable-background:new 0 0 48 48;" xml:space="preserve">
<style type="text/css">
	.st0{fill:#E00052;}
	.st1{fill:#FFFFFF;}
</style>
<path class="st0" d="M43.5,40.4c0.3,0.7-0.2,1.6-1,1.6h-37c-0.8,0-1.3-0.8-1-1.5l9.2-20.3c0.3-0.6,0.6-0.9,1.1-0.9s0.8,0.3,1.1,0.9
	l2.5,6.3c0.3,0.8,1.3,1.2,2.1,0.9l0,0c0.8-0.3,1.2-1.2,0.9-2l-1-2.7c-0.1-0.3-0.1-0.7,0-1l6.2-13.5c0.3-0.6,0.6-0.9,1.1-0.9
	s0.8,0.3,1.1,0.9L43.5,40.4z"/>
<path class="st1" d="M36.2,33.7v-4c0-0.3-0.2-0.5-0.5-0.5h-4c-0.3,0-0.5-0.2-0.5-0.5v-4c0-0.3-0.2-0.5-0.5-0.5h-4
	c-0.3,0-0.5,0.2-0.5,0.5v4c0,0.3-0.2,0.5-0.5,0.5h-4c-0.3,0-0.5,0.2-0.5,0.5v4c0,0.3,0.2,0.5,0.5,0.5h4c0.3,0,0.5,0.2,0.5,0.5v4
	c0,0.3,0.2,0.5,0.5,0.5h4c0.3,0,0.5-0.2,0.5-0.5v-4c0-0.3,0.2-0.5,0.5-0.5h4C35.9,34.3,36.2,34,36.2,33.7z"/>
</svg>
