<?xml version="1.0" encoding="utf-8"?>
<!-- Generator: Adobe Illustrator 27.0.0, SVG Export Plug-In . SVG Version: 6.00 Build 0)  -->
<svg version="1.1" id="Layer_1" xmlns="http://www.w3.org/2000/svg" xmlns:xlink="http://www.w3.org/1999/xlink" x="0px" y="0px"
	 viewBox="0 0 48 48" style="enable-background:new 0 0 48 48;" xml:space="preserve">
<style type="text/css">
	.st0{fill:#8763BA;}
	.st1{fill:#FFFFFF;}
</style>
<path class="st0" d="M11.5,44.5h25c1.4,0,2.5-1.1,2.5-2.5l0,0c0-1.4-1.1-2.5-2.5-2.5h-9.3v-8h8.1c0.7,0,1.4-0.3,1.9-0.8
	s0.8-1.1,0.8-1.9V6.2c0-0.6-0.2-1.2-0.6-1.7c-0.5-0.6-1.2-1-2.1-1H12.7c-0.8,0-1.4,0.3-1.9,0.8S10,5.4,10,6.2V29
	c0,0.6,0.2,1.2,0.6,1.7c0.5,0.6,1.2,1,2.1,1l8.3-0.1v7.9h-9.5C10.1,39.5,9,40.6,9,42l0,0C9,43.3,10.1,44.5,11.5,44.5z"/>
<path class="st1" d="M22.3,7.1c0.5-0.5,1-0.7,1.7-0.7c0.7,0,1.3,0.2,1.7,0.7c0.5,0.5,0.7,1,0.7,1.7c0,0.7-0.2,1.2-0.7,1.7
	c-0.5,0.5-1.1,0.7-1.7,0.7s-1.2-0.2-1.7-0.7c-0.5-0.5-0.7-1-0.7-1.7C21.6,8.2,21.8,7.6,22.3,7.1z M28,28.2H20v-0.6
	c0.6,0,1.1-0.2,1.4-0.6c0.2-0.2,0.3-0.9,0.3-1.9v-8.6c0-1-0.1-1.7-0.4-2c-0.2-0.3-0.7-0.5-1.4-0.5v-0.6h6.2v11.6c0,1,0.1,1.7,0.4,2
	c0.2,0.3,0.7,0.5,1.4,0.5L28,28.2L28,28.2z"/>
</svg>
